/* XPM */
static const char * B[] = {
"26 49 121 2",
"  	c #000000",
". 	c #A9A9A9",
"+ 	c #A0A0A0",
"@ 	c #C7C7C7",
"# 	c #FCFCFC",
"$ 	c #979797",
"% 	c #C9C9C9",
"& 	c #C8C8C8",
"* 	c #A8A8A8",
"= 	c #E6E6E6",
"- 	c #FFFFFF",
"; 	c #FDFDFD",
"> 	c #A1A1A1",
", 	c #6E6E6E",
"' 	c #C6C6C6",
") 	c #8B8B8B",
"! 	c #E3E3E3",
"~ 	c #FAFAFA",
"{ 	c #6F6F6F",
"] 	c #CCCCCC",
"^ 	c #878787",
"/ 	c #E5E5E5",
"( 	c #F8F8F8",
"_ 	c #F9F9F9",
": 	c #C3C3C3",
"< 	c #888888",
"[ 	c #F7F7F7",
"} 	c #707070",
"| 	c #BFBFBF",
"1 	c #828282",
"2 	c #DFDFDF",
"3 	c #808080",
"4 	c #D3D3D3",
"5 	c #D1D1D1",
"6 	c #FEFEFE",
"7 	c #D8D8D8",
"8 	c #919191",
"9 	c #959595",
"0 	c #F5F5F5",
"a 	c #F6F6F6",
"b 	c #EEEEEE",
"c 	c #939393",
"d 	c #989898",
"e 	c #B0B0B0",
"f 	c #ADADAD",
"g 	c #ACACAC",
"h 	c #D4D4D4",
"i 	c #CFCFCF",
"j 	c #9F9F9F",
"k 	c #9A9A9A",
"l 	c #DDDDDD",
"m 	c #525252",
"n 	c #717171",
"o 	c #E8E8E8",
"p 	c #999999",
"q 	c #DCDCDC",
"r 	c #5E5E5E",
"s 	c #B4B4B4",
"t 	c #B2B2B2",
"u 	c #969696",
"v 	c #626262",
"w 	c #BCBCBC",
"x 	c #B9B9B9",
"y 	c #D6D6D6",
"z 	c #E1E1E1",
"A 	c #E2E2E2",
"B 	c #B6B6B6",
"C 	c #DBDBDB",
"D 	c #676767",
"E 	c #C4C4C4",
"F 	c #C1C1C1",
"G 	c #8F8F8F",
"H 	c #838383",
"I 	c #9D9D9D",
"J 	c #9C9C9C",
"K 	c #CDCDCD",
"L 	c #6B6B6B",
"M 	c #EBEBEB",
"N 	c #F3F3F3",
"O 	c #787878",
"P 	c #DEDEDE",
"Q 	c #727272",
"R 	c #7C7C7C",
"S 	c #929292",
"T 	c #A3A3A3",
"U 	c #EAEAEA",
"V 	c #7F7F7F",
"W 	c #737373",
"X 	c #F0F0F0",
"Y 	c #E9E9E9",
"Z 	c #F2F2F2",
"` 	c #7A7A7A",
" .	c #E4E4E4",
"..	c #8D8D8D",
"+.	c #6A6A6A",
"@.	c #868686",
"#.	c #EDEDED",
"$.	c #C5C5C5",
"%.	c #C2C2C2",
"&.	c #747474",
"*.	c #D0D0D0",
"=.	c #CBCBCB",
"-.	c #949494",
";.	c #757575",
">.	c #909090",
",.	c #686868",
"'.	c #9E9E9E",
").	c #767676",
"!.	c #F4F4F4",
"~.	c #8E8E8E",
"{.	c #CECECE",
"].	c #DADADA",
"^.	c #A4A4A4",
"/.	c #777777",
"(.	c #D2D2D2",
"_.	c #B7B7B7",
":.	c #797979",
"<.	c #D7D7D7",
"[.	c #E0E0E0",
"}.	c #F1F1F1",
"|.	c #FBFBFB",
"                                                    ",
"                                                    ",
"                                                    ",
"                                                    ",
". + + + + + + + + + + + + + + + + @ # # #           ",
"$ % % % % % % % % % % % % % % % & * = - ; >         ",
", - - - - - - - - - - - - - - - - ' ) ! - ~         ",
"{ - - - - - - - - - - - - - - - - ; ] ^ / ( _       ",
"{ - - - - - - - - - - - - - - - - - - : < = ( ( [   ",
"} - - - - - - - - - - - - - - - - - - - | 1 2 ; ~   ",
"} - - - - - - - - - - - - - - - - - - - - % 3 4 5   ",
"} - - - - - - - - - - - - - - - - - - - - 6 7 8 9   ",
"} - - - - - - 0 a [ [ [ [ [ a ~ - - - - - - b c d   ",
"} - - - - - - c e f g g g g d h - - - - - ; i j >   ",
"} - - - - - - $ 2   f f f g k l - - - - - [ m g .   ",
"n - - - - - - $ l o       j p q - - - - - ( r s t   ",
"n - - - - - - u l o l l l * p q - - - - - ( v w x   ",
"n - - - - - - u y ! z z z A B C - - - - - ( D E F   ",
"n - - - - - - G H I J J J J ^ K - - - - - ( L ] %   ",
"n - - - - - - M A z A A A A z N - - - - - [ O P C   ",
"Q - - - - - - - - - - - - - - - - - - - ( R . - 2   ",
"Q - - - - - - - - - - - - - - - - - - - S T [ (     ",
"Q - - - - - - - - - - - - - - - - - - - 8 & 6 -     ",
"Q - - - - - - - - - - - - - - - - - - - U V @ @ !   ",
"W - - - - - - - - - - - - - - - - - - - - X 1 = !   ",
"W - - - - - - Y 2 2 2 2 2 2 2 Z - - - - - ( `  .z   ",
"W - - - - - - ..+.< ^ ^ ^ @.r @ - - - - - ( 3 #.Y   ",
"W - - - - - - c $.$.%.: : 4 | & - - - - - ( @.a Z   ",
"&.- - - - - - c *.C | | | [ =.& - - - - - ( ) ; ~   ",
"&.- - - - - - c i 4 6 6 6 [ =.& - - - - - ( G - ;   ",
"&.- - - - - - c *.- - - - - ] & - - - - - ( -.- ;   ",
";.- - - - - - >.` ,.'.I I J ).@ - - - - - ( p - 6   ",
";.- - - - - - a N !.!.!.!.!.N ~ - - - - - N @.- 6   ",
";.- - - - - - - - - - - - - - - - - - - #.3 ] K     ",
").- - - - - - - - - - - - - - - - - - = 3 *.~.{.    ",
").- - - - - - - - - - - - - - - - - Y Q F 0 -       ",
").- - - - - - - - - - - - - - - - 6 ].^.! !.        ",
"/.- - - - - - - - - - - - - - - - 2 @.(._.          ",
"v @ ' ' ' ' ' ' ' ' ' ' ' ' ' ' $.:.<.h i           ",
"i & & & & & & & & & & & & & & & % [.- -             ",
"!.}.}.}.}.}.}.}.}.}.}.}.}.}.}.}.}.|.# #             ",
"                                                    ",
"                                                    ",
"                                                    ",
"                                                    ",
"                                                    ",
"                                                    ",
"                                                    ",
"                                                    "};
