/* XPM */
static const char * colon[] = {
"10 45 79 1",
" 	c #000000",
".	c #ACACAC",
"+	c #9A9A9A",
"@	c #B0B0B0",
"#	c #DBDBDB",
"$	c #D9D9D9",
"%	c #9C9C9C",
"&	c #D8D8D8",
"*	c #7F7F7F",
"=	c #FFFFFF",
"-	c #FDFDFD",
";	c #F7F7F7",
">	c #5D5D5D",
",	c #A9A9A9",
"'	c #A6A6A6",
")	c #7C7C7C",
"!	c #F8F8F8",
"~	c #606060",
"{	c #B1B1B1",
"]	c #AEAEAE",
"^	c #7B7B7B",
"/	c #666666",
"(	c #BBBBBB",
"_	c #B7B7B7",
":	c #7A7A7A",
"<	c #6B6B6B",
"[	c #C4C4C4",
"}	c #C1C1C1",
"|	c #797979",
"1	c #717171",
"2	c #CDCDCD",
"3	c #C9C9C9",
"4	c #757575",
"5	c #FBFBFB",
"6	c #F9F9F9",
"7	c #F2F2F2",
"8	c #767676",
"9	c #D7D7D7",
"0	c #D3D3D3",
"a	c #6A6A6A",
"b	c #626262",
"c	c #E7E7E7",
"d	c #E3E3E3",
"e	c #B6B6B6",
"f	c #F5F5F5",
"g	c #FEFEFE",
"h	c #EDEDED",
"i	c #EBEBEB",
"j	c #E9E9E9",
"k	c #A7A7A7",
"l	c #6C6C6C",
"m	c #BDBDBD",
"n	c #BCBCBC",
"o	c #B4B4B4",
"p	c #5E5E5E",
"q	c #AFAFAF",
"r	c #ABABAB",
"s	c #646464",
"t	c #B9B9B9",
"u	c #B5B5B5",
"v	c #C2C2C2",
"w	c #BEBEBE",
"x	c #707070",
"y	c #CBCBCB",
"z	c #C7C7C7",
"A	c #787878",
"B	c #D5D5D5",
"C	c #D1D1D1",
"D	c #4F4F4F",
"E	c #A5A5A5",
"F	c #A1A1A1",
"G	c #7E7E7E",
"H	c #E0E0E0",
"I	c #DCDCDC",
"J	c #E6E6E6",
"K	c #E5E5E5",
"L	c #FAFAFA",
"M	c #F1F1F1",
"N	c #F0F0F0",
"          ",
"          ",
"          ",
"          ",
"          ",
"          ",
"          ",
"          ",
"          ",
"          ",
"          ",
"          ",
".++++++@#$",
".%%%%%%@#&",
"*=----;>,'",
")=====!~{]",
"^=====!/(_",
":=====!<[}",
"|=====!123",
"4566667890",
"abbbbbb+cd",
"e@{{{{@2;f",
"          ",
"          ",
"          ",
"          ",
"          ",
"ggggggggg ",
"hiiiiiijk(",
"lmnnnn_/o@",
")=====6pqr",
"^=====!stu",
":=====!avw",
"|=====!xyz",
"A=====64BC",
"D'EEEEFGHI",
"JKKKKKKh5L",
"MNNNNNNf--",
"          ",
"          ",
"          ",
"          ",
"          ",
"          ",
"          "};
