/* XPM */
static const char * E[] = {
"22 49 99 2",
"  	c #000000",
". 	c #B4B4B4",
"+ 	c #A0A0A0",
"@ 	c #A2A2A2",
"# 	c #D4D4D4",
"$ 	c #FAFAFA",
"% 	c #F7F7F7",
"& 	c #A1A1A1",
"* 	c #C9C9C9",
"= 	c #BDBDBD",
"- 	c #C3C3C3",
"; 	c #F5F5F5",
"> 	c #F2F2F2",
", 	c #757575",
"' 	c #FFFFFF",
") 	c #E5E5E5",
"! 	c #9D9D9D",
"~ 	c #EBEBEB",
"{ 	c #E7E7E7",
"] 	c #767676",
"^ 	c #E4E4E4",
"/ 	c #9E9E9E",
"( 	c #E6E6E6",
"_ 	c #EAEAEA",
": 	c #9C9C9C",
"< 	c #E9E9E9",
"[ 	c #9A9A9A",
"} 	c #E2E2E2",
"| 	c #979797",
"1 	c #E3E3E3",
"2 	c #DFDFDF",
"3 	c #747474",
"4 	c #F6F6F6",
"5 	c #DEDEDE",
"6 	c #9F9F9F",
"7 	c #959595",
"8 	c #ADADAD",
"9 	c #ACACAC",
"0 	c #F3F3F3",
"a 	c #989898",
"b 	c #D0D0D0",
"c 	c #AEAEAE",
"d 	c #999999",
"e 	c #D3D3D3",
"f 	c #737373",
"g 	c #D6D6D6",
"h 	c #5B5B5B",
"i 	c #5A5A5A",
"j 	c #707070",
"k 	c #E8E8E8",
"l 	c #BBBBBB",
"m 	c #494949",
"n 	c #464646",
"o 	c #6E6E6E",
"p 	c #F1F1F1",
"q 	c #C4C4C4",
"r 	c #C7C7C7",
"s 	c #C8C8C8",
"t 	c #828282",
"u 	c #EDEDED",
"v 	c #939393",
"w 	c #ECECEC",
"x 	c #727272",
"y 	c #969696",
"z 	c #F0F0F0",
"A 	c #717171",
"B 	c #A4A4A4",
"C 	c #F8F8F8",
"D 	c #A6A6A6",
"E 	c #FDFDFD",
"F 	c #7A7A7A",
"G 	c #7F7F7F",
"H 	c #7D7D7D",
"I 	c #A5A5A5",
"J 	c #B1B1B1",
"K 	c #CBCBCB",
"L 	c #AAAAAA",
"M 	c #D7D7D7",
"N 	c #606060",
"O 	c #EEEEEE",
"P 	c #BFBFBF",
"Q 	c #6A6A6A",
"R 	c #DBDBDB",
"S 	c #FBFBFB",
"T 	c #434343",
"U 	c #C2C2C2",
"V 	c #C6C6C6",
"W 	c #E1E1E1",
"X 	c #FEFEFE",
"Y 	c #EFEFEF",
"Z 	c #BABABA",
"` 	c #6F6F6F",
" .	c #AFAFAF",
"..	c #ABABAB",
"+.	c #A7A7A7",
"@.	c #545454",
"#.	c #B0B0B0",
"$.	c #CCCCCC",
"%.	c #E0E0E0",
"                                            ",
"                                            ",
"                                            ",
"                                            ",
". + + + + + + + + + + + + + + + + + @ # $ % ",
"& * * * * * * * * * * * * * * * * * = - ; > ",
", ' ' ' ' ' ' ' ' ' ' ' ' ' ' ' ' ' ) ! ~ { ",
"] ' ' ' ' ' ' ' ' ' ' ' ' ' ' ' ' ' ^ / ~ ( ",
", ' ' ' ' ' ' ' ' ' ' ' ' ' ' ' ' ' ^ ! _ ( ",
", ' ' ' ' ' ' ' ' ' ' ' ' ' ' ' ' ' ^ : < ) ",
", ' ' ' ' ' ' ' ' ' ' ' ' ' ' ' ' ' ^ [ { } ",
", ' ' ' ' ' ' ' ' ' ' ' ' ' ' ' ' ' ^ | 1 2 ",
"3 ' ' ' ' ' ' 4 ; % % % % % % % % % 5 6 1 2 ",
"3 ' ' ' ' ' ' 7 & 8 9 9 9 9 9 9 9 9 8 # 4 0 ",
"3 ' ' ' ' ' ' a b ' 8 8 8 8 8 8 8 8 c # ; 0 ",
"3 ' ' ' ' ' ' d e 2                         ",
"f ' ' ' ' ' ' d g ) h h h h h i j k         ",
"f ' ' ' ' ' ' | l i m m m m m n o k p       ",
"f ' ' ' ' ' ' g q r r r r r r s t ^ u       ",
"f ' ' ' ' ' ' ' ' ' ' ' ' ' ' ' v } w       ",
"x ' ' ' ' ' ' ' ' ' ' ' ' ' ' ' y ( z       ",
"x ' ' ' ' ' ' ' ' ' ' ' ' ' ' ' [ < 0       ",
"x ' ' ' ' ' ' ' ' ' ' ' ' ' ' ' 6 u %       ",
"A ' ' ' ' ' ' ' ' ' ' ' ' ' ' ' B z $       ",
"A ' ' ' ' ' ' C ; 4 4 4 4 4 4 % D 0 E       ",
"A ' ' ' ' ' ' [ F G G G G G G H I J K       ",
"A ' ' ' ' ' ' L M k k k k k k { p ;         ",
"j ' ' ' ' ' ' c N ^ ^ ^ ^ ^ ^ 1 O >         ",
"j ' ' ' ' ' E 8 F                           ",
"j ' ' ' ' ' P Q R S $ $ $ $ $ $ $ $ S E S $ ",
"j ' ' ' ' ' = T l U U U U U U U U U V W X $ ",
"j ' ' ' ' ' Y R 5 5 5 5 5 5 5 5 5 5 K Z S % ",
"` ' ' ' ' ' ' ' ' ' ' ' ' ' ' ' ' ' (  .% 0 ",
"` ' ' ' ' ' ' ' ' ' ' ' ' ' ' ' ' ' ) ..; p ",
"` ' ' ' ' ' ' ' ' ' ' ' ' ' ' ' ' ' ) +.0 O ",
"` ' ' ' ' ' ' ' ' ' ' ' ' ' ' ' ' ' ) B z w ",
"` ' ' ' ' ' ' ' ' ' ' ' ' ' ' ' ' ' ^ & O < ",
"` ' ' ' ' ' ' ' ' ' ' ' ' ' ' ' ' ' ) / ~ ( ",
"@.r V V V V V V V V V V V V V V V V #.: { 1 ",
"$.s s s s s s s s s s s s s s s s s * %.% ; ",
"> p p p p p p p p p p p p p p p p p p % X E ",
"                                            ",
"                                            ",
"                                            ",
"                                            ",
"                                            ",
"                                            ",
"                                            ",
"                                            "};
