/* XPM */
static const char * eight[] = {
"24 45 131 2",
"  	c #000000",
". 	c #FDFDFD",
"+ 	c #FFFFFF",
"@ 	c #D1D1D1",
"# 	c #A2A2A2",
"$ 	c #A5A5A5",
"% 	c #DADADA",
"& 	c #F8F8F8",
"* 	c #FEFEFE",
"= 	c #D3D3D3",
"- 	c #9E9E9E",
"; 	c #DCDCDC",
"> 	c #FAFAFA",
", 	c #F7F7F7",
"' 	c #EEEEEE",
") 	c #CBCBCB",
"! 	c #868686",
"~ 	c #F5F5F5",
"{ 	c #E4E4E4",
"] 	c #777777",
"^ 	c #E2E2E2",
"/ 	c #F6F6F6",
"( 	c #FBFBFB",
"_ 	c #E1E1E1",
": 	c #8C8C8C",
"< 	c #E9E9E9",
"[ 	c #D5D5D5",
"} 	c #7B7B7B",
"| 	c #DFDFDF",
"1 	c #FCFCFC",
"2 	c #A7A7A7",
"3 	c #9B9B9B",
"4 	c #737373",
"5 	c #DBDBDB",
"6 	c #CDCDCD",
"7 	c #AEAEAE",
"8 	c #909090",
"9 	c #797979",
"0 	c #F9F9F9",
"a 	c #E6E6E6",
"b 	c #BEBEBE",
"c 	c #AAAAAA",
"d 	c #818181",
"e 	c #E0E0E0",
"f 	c #EBEBEB",
"g 	c #6D6D6D",
"h 	c #E3E3E3",
"i 	c #8F8F8F",
"j 	c #B9B9B9",
"k 	c #F0F0F0",
"l 	c #8D8D8D",
"m 	c #898989",
"n 	c #BCBCBC",
"o 	c #E8E8E8",
"p 	c #363636",
"q 	c #A9A9A9",
"r 	c #ADADAD",
"s 	c #535353",
"t 	c #969696",
"u 	c #929292",
"v 	c #D2D2D2",
"w 	c #BBBBBB",
"x 	c #585858",
"y 	c #858585",
"z 	c #6A6A6A",
"A 	c #A4A4A4",
"B 	c #9C9C9C",
"C 	c #C9C9C9",
"D 	c #7C7C7C",
"E 	c #A6A6A6",
"F 	c #C0C0C0",
"G 	c #DDDDDD",
"H 	c #B0B0B0",
"I 	c #B6B6B6",
"J 	c #4C4C4C",
"K 	c #CACACA",
"L 	c #5D5D5D",
"M 	c #7D7D7D",
"N 	c #B8B8B8",
"O 	c #BABABA",
"P 	c #ACACAC",
"Q 	c #CECECE",
"R 	c #878787",
"S 	c #888888",
"T 	c #8A8A8A",
"U 	c #7F7F7F",
"V 	c #C7C7C7",
"W 	c #DEDEDE",
"X 	c #E5E5E5",
"Y 	c #717171",
"Z 	c #F4F4F4",
"` 	c #D0D0D0",
" .	c #505050",
"..	c #F1F1F1",
"+.	c #AFAFAF",
"@.	c #999999",
"#.	c #EFEFEF",
"$.	c #F2F2F2",
"%.	c #D8D8D8",
"&.	c #575757",
"*.	c #EAEAEA",
"=.	c #7E7E7E",
"-.	c #D6D6D6",
";.	c #D7D7D7",
">.	c #D4D4D4",
",.	c #D9D9D9",
"'.	c #8B8B8B",
").	c #949494",
"!.	c #545454",
"~.	c #555555",
"{.	c #484848",
"].	c #828282",
"^.	c #C5C5C5",
"/.	c #848484",
"(.	c #ECECEC",
"_.	c #F3F3F3",
":.	c #9F9F9F",
"<.	c #989898",
"[.	c #E7E7E7",
"}.	c #3E3E3E",
"|.	c #919191",
"1.	c #BDBDBD",
"2.	c #939393",
"3.	c #B5B5B5",
"4.	c #808080",
"5.	c #838383",
"6.	c #A8A8A8",
"7.	c #656565",
"8.	c #C2C2C2",
"9.	c #C3C3C3",
"0.	c #A3A3A3",
"                                                ",
"                                                ",
"                                                ",
"      . + @ # # # # # # # # # $ % &             ",
"      * + = - - - - - - - - - # ; > ,           ",
"      ' ) ! ~ , , , , , , , , { ] ^ / &         ",
"  ( + _ : < + + + + + + + + + + [ } | + (       ",
"  1 > 2 3 & + + + + + + + + + + + ; 4 5 . >     ",
"6 | 7 8 . + + + + + + + + + + + + + { 9 { 0 (   ",
"a b c + + + + + + + + + + + + + + + + % d e ^   ",
"f g < + + + + + + + + + + + + + + + + + h i :   ",
"h j + + + + 1 k ~ / / / / ~ k + + + + + . l m   ",
"; n + + + + o p 3 q q q q r s . + + + + + t u   ",
"v w + + + + o x y r r r n v z . + + + + A B B   ",
"C w + + + + o x !       6 @ z . + + + + D A E   ",
"F w + + + + o x 9 G G G % @ z . + + + + D 7 H   ",
"I w + + + + < J K % % % % C L . + + + + M N O   ",
"P w + + + + + Q R S S S S R T . + + + + U V C   ",
"c n + + + + + + + + + + + + + + + + + G u 5 W   ",
"X 9 a + + + + + + + + + + + + + + + f Y h Z G   ",
". `  .. + + + + + + + + + + + + + + o : G Z ..  ",
"h +.V * + + + + + + + + + + + + + + & @.B #.$.  ",
"%.&.*.+ + + + + + + + + + + + + + + + 1 =.-.%.  ",
"@.n + + + + , v ;.;.;.;.;.>., + + + + + d ,.5   ",
"'.w + + + + o m ).!.!.!.~.{.*.+ + + + + ].h X   ",
"S ^.+ + + + o # _       z L f + + + + + /.(.'   ",
"2 + + + + + o # _       z L f + + + + + ! _.~   ",
":.+ + + + + o # _ * * *   L f + + + + + m ~ &   ",
"<.+ + + + + o ).r *.f f [.}.f + + + + + l , 0   ",
"|.+ + + + + Z j 1.n n n n O Z + + + + + 2.& (   ",
"i + + + + + + + + + + + + + + + + + + C 2 Z (   ",
"9 3.( + + + + + + + + + + + + + + + v 4.(.(     ",
";.5.6.+ + + + + + + + + + + + + + + 7.-.( 1     ",
"#.~ @.3 * + + + + + + + + + + + * B ^.Z (.      ",
"* + ,.8.r > + + + + + + + + + > E O K @         ",
"    + & 9.0.$ $ $ $ $ $ $ $ $ @.A k *           ",
"      + 0 f { X X X X X X X X [.k Z             ",
"      * * ~ #.k k k k k k k k $.0 0             ",
"                                                ",
"                                                ",
"                                                ",
"                                                ",
"                                                ",
"                                                ",
"                                                "};
