/* XPM */
static const char * five[] = {
"21 45 110 2",
"  	c #000000",
". 	c #A8A8A8",
"+ 	c #A2A2A2",
"@ 	c #A1A1A1",
"# 	c #C6C6C6",
"$ 	c #FCFCFC",
"% 	c #FAFAFA",
"& 	c #A9A9A9",
"* 	c #9E9E9E",
"= 	c #9D9D9D",
"- 	c #C7C7C7",
"; 	c #858585",
"> 	c #F9F9F9",
", 	c #F7F7F7",
"' 	c #F8F8F8",
") 	c #8F8F8F",
"! 	c #F4F4F4",
"~ 	c #808080",
"{ 	c #FFFFFF",
"] 	c #8B8B8B",
"^ 	c #929292",
"/ 	c #979797",
"( 	c #FDFDFD",
"_ 	c #8C8C8C",
": 	c #B6B6B6",
"< 	c #959595",
"[ 	c #898989",
"} 	c #F6F6F6",
"| 	c #9A9A9A",
"1 	c #919191",
"2 	c #C5C5C5",
"3 	c #D0D0D0",
"4 	c #D1D1D1",
"5 	c #D2D2D2",
"6 	c #ADADAD",
"7 	c #B1B1B1",
"8 	c #EFEFEF",
"9 	c #5C5C5C",
"0 	c #828282",
"a 	c #747474",
"b 	c #7B7B7B",
"c 	c #C9C9C9",
"d 	c #CECECE",
"e 	c #CCCCCC",
"f 	c #FEFEFE",
"g 	c #E5E5E5",
"h 	c #ECECEC",
"i 	c #F0F0F0",
"j 	c #F5F5F5",
"k 	c #565656",
"l 	c #969696",
"m 	c #DCDCDC",
"n 	c #C1C1C1",
"o 	c #6A6A6A",
"p 	c #FBFBFB",
"q 	c #818181",
"r 	c #CDCDCD",
"s 	c #EEEEEE",
"t 	c #575757",
"u 	c #8D8D8D",
"v 	c #6F6F6F",
"w 	c #C2C2C2",
"x 	c #D8D8D8",
"y 	c #5B5B5B",
"z 	c #DBDBDB",
"A 	c #F1F1F1",
"B 	c #949494",
"C 	c #9C9C9C",
"D 	c #F3F3F3",
"E 	c #E2E2E2",
"F 	c #D6D6D6",
"G 	c #D5D5D5",
"H 	c #555555",
"I 	c #B9B9B9",
"J 	c #EAEAEA",
"K 	c #7F7F7F",
"L 	c #BBBBBB",
"M 	c #A7A7A7",
"N 	c #EBEBEB",
"O 	c #B4B4B4",
"P 	c #616161",
"Q 	c #DEDEDE",
"R 	c #838383",
"S 	c #F2F2F2",
"T 	c #B3B3B3",
"U 	c #9B9B9B",
"V 	c #D7D7D7",
"W 	c #868686",
"X 	c #E0E0E0",
"Y 	c #878787",
"Z 	c #AEAEAE",
"` 	c #A4A4A4",
" .	c #E4E4E4",
"..	c #888888",
"+.	c #B8B8B8",
"@.	c #989898",
"#.	c #E6E6E6",
"$.	c #8A8A8A",
"%.	c #939393",
"&.	c #848484",
"*.	c #ABABAB",
"=.	c #B5B5B5",
"-.	c #CFCFCF",
";.	c #BABABA",
">.	c #C3C3C3",
",.	c #646464",
"'.	c #A6A6A6",
").	c #A5A5A5",
"!.	c #A3A3A3",
"~.	c #E8E8E8",
"                                          ",
"                                          ",
"                                          ",
". + + + + + + + + + + + + + + + + @ # $ % ",
"& * * * * * * * * * * * * * * * * = - $ % ",
"; > , , , , , , , , , , , , , , , ' ) , ! ",
"~ { { { { { { { { { { { { { { { { { ] % , ",
"~ { { { { { { { { { { { { { { { { { ^ $ > ",
"~ { { { { { { { { { { { { { { { { { / { ( ",
"~ { { { { { { { { { { { { { { { { { _ : ( ",
"~ { { { { { { { { { { { { { { { { { < [   ",
"~ { { { { { { { { { { { { { { { { } | 1   ",
"~ { { { { ' 2 3 4 4 4 4 4 4 4 4 5 ] 6 7   ",
"~ { { { { 8 9 0 a a a a a a a a a b c d   ",
"~ { { { { { e @ f !                       ",
"~ { { { { { g < d h i j                   ",
"~ { { { { { { h k l h m {                 ",
"~ { { { { { { { { n o 5 8   ( p           ",
"q { { { { { { { { { r . = 5 { s           ",
"t e > { { { { { { { { p u v w x , ,       ",
"x [ y z } { { { { { { { { A B C z , { D   ",
"x E F ] ] ( { { { { { { { { { G H I A } ' ",
"  % , J 2 K L } { { { { { { { { , M / % , ",
"      , G N O P Q { { { { { { { { { R j S ",
"        i { } E T U > { { { { { { { ; } D ",
"            ( $ S V ] & $ { { { { { W } D ",
"                ( g i * X { { { { { Y , ! ",
"Z ` ` ` ` ` ` ` ` M  .L X { { { { { ..' j ",
". +.+.+.+.+.+.+.+.+.+.@.#.{ { { { { $.' j ",
"q { { { { { { { { { { { { { { { { { $.> } ",
"R { { { { { { { { { { { { { { { { { %.$ ' ",
"&.{ { { { { { { { { { { { { { { > ` c & > ",
"; { { { { { { { { { { { { { { f *.=.-.3   ",
"; { { { { { { { { { { { { { f < ;.-.e     ",
"Y { { { { { { { { { { { { p *.=.>.2       ",
",.'.).).).).).).).).).).).!.- s n         ",
"~.g g g g g g g g g g g  .J > {           ",
"S i i i i i i i i i i i 8 ! { f           ",
"                                          ",
"                                          ",
"                                          ",
"                                          ",
"                                          ",
"                                          ",
"                                          "};
