/* XPM */
static const char * G[] = {
"26 49 120 2",
"  	c #000000",
". 	c #F2F2F2",
"+ 	c #F3F3F3",
"@ 	c #E3E3E3",
"# 	c #A7A7A7",
"$ 	c #9F9F9F",
"% 	c #A0A0A0",
"& 	c #ACACAC",
"* 	c #D3D3D3",
"= 	c #DFDFDF",
"- 	c #F4F4F4",
"; 	c #EDEDED",
"> 	c #C2C2C2",
", 	c #ADADAD",
"' 	c #C9C9C9",
") 	c #C5C5C5",
"! 	c #CACACA",
"~ 	c #FFFFFF",
"{ 	c #FEFEFE",
"] 	c #F6F6F6",
"^ 	c #F5F5F5",
"/ 	c #B6B6B6",
"( 	c #7A7A7A",
"_ 	c #E8E8E8",
": 	c #EBEBEB",
"< 	c #C0C0C0",
"[ 	c #FDFDFD",
"} 	c #F1F1F1",
"| 	c #F7F7F7",
"1 	c #B3B3B3",
"2 	c #6E6E6E",
"3 	c #F0F0F0",
"4 	c #EAEAEA",
"5 	c #BFBFBF",
"6 	c #FAFAFA",
"7 	c #BABABA",
"8 	c #737373",
"9 	c #BEBEBE",
"0 	c #FCFCFC",
"a 	c #848484",
"b 	c #BDBDBD",
"c 	c #BBBBBB",
"d 	c #878787",
"e 	c #ECECEC",
"f 	c #E9E9E9",
"g 	c #FBFBFB",
"h 	c #797979",
"i 	c #767676",
"j 	c #DDDDDD",
"k 	c #8F8F8F",
"l 	c #6F6F6F",
"m 	c #939393",
"n 	c #929292",
"o 	c #999999",
"p 	c #D0D0D0",
"q 	c #757575",
"r 	c #CBCBCB",
"s 	c #9A9A9A",
"t 	c #747474",
"u 	c #CECECE",
"v 	c #D9D9D9",
"w 	c #DADADA",
"x 	c #5B5B5B",
"y 	c #606060",
"z 	c #F8F8F8",
"A 	c #494949",
"B 	c #949494",
"C 	c #DCDCDC",
"D 	c #9B9B9B",
"E 	c #4C4C4C",
"F 	c #484848",
"G 	c #535353",
"H 	c #959595",
"I 	c #D7D7D7",
"J 	c #777777",
"K 	c #C7C7C7",
"L 	c #B1B1B1",
"M 	c #969696",
"N 	c #DBDBDB",
"O 	c #808080",
"P 	c #464646",
"Q 	c #EEEEEE",
"R 	c #E7E7E7",
"S 	c #A4A4A4",
"T 	c #979797",
"U 	c #E0E0E0",
"V 	c #707070",
"W 	c #E6E6E6",
"X 	c #727272",
"Y 	c #989898",
"Z 	c #E4E4E4",
"` 	c #717171",
" .	c #9D9D9D",
"..	c #EFEFEF",
"+.	c #BCBCBC",
"@.	c #595959",
"#.	c #D2D2D2",
"$.	c #A2A2A2",
"%.	c #7E7E7E",
"&.	c #7F7F7F",
"*.	c #7C7C7C",
"=.	c #444444",
"-.	c #A1A1A1",
";.	c #5D5D5D",
">.	c #F9F9F9",
",.	c #656565",
"'.	c #E5E5E5",
").	c #A8A8A8",
"!.	c #AAAAAA",
"~.	c #ABABAB",
"{.	c #9C9C9C",
"].	c #E1E1E1",
"^.	c #B0B0B0",
"/.	c #909090",
"(.	c #858585",
"_.	c #B9B9B9",
":.	c #CFCFCF",
"<.	c #C6C6C6",
"[.	c #B2B2B2",
"}.	c #C8C8C8",
"                                                    ",
"                                                    ",
"                                                    ",
"                                                    ",
"      . + @ # $ % % % % % % % % % % % % % % & * = & ",
"    - + ; > , ' ' ' ' ' ' ' ' ' ' ' ' ' ' ' ) ! ~ { ",
"  ] ] ^ / ( _ ~ ~ ~ ~ ~ ~ ~ ~ ~ ~ ~ ~ ~ ~ ~ : < ~ [ ",
"] } | 1 2 3 ~ ~ ~ ~ ~ ~ ~ ~ ~ ~ ~ ~ ~ ~ ~ ~ 4 5 ~ [ ",
"6 } 7 8 - ~ ~ ~ ~ ~ ~ ~ ~ ~ ~ ~ ~ ~ ~ ~ ~ ~ 4 9 ~ 0 ",
". 5 a 3 ~ ~ ~ ~ ~ ~ ~ ~ ~ ~ ~ ~ ~ ~ ~ ~ ~ ~ 4 b ~ 0 ",
"c d e ~ ~ ~ ~ ~ ~ ~ ~ ~ ~ ~ ~ ~ ~ ~ ~ ~ ~ ~ f c ~ g ",
"h } ~ ~ ~ ~ ~ ~ ~ ~ ~ ~ ~ ~ ~ ~ ~ ~ ~ ~ ~ ~ f 7 { 6 ",
"i ~ ~ ~ ~ ~ ~ ^ } . . . . . . . . . . . . . j 7 { 6 ",
"i ~ ~ ~ ~ ~ ~ k l m n n n n n n n n n n n n o p { 6 ",
"q ~ ~ ~ ~ ~ ~ n ) | ] ] ] ] ] ] ] ] ] ] ] ] | g 6 6 ",
"q ~ ~ ~ ~ ~ ~ n r s } } } } } } } } } } } } . | |   ",
"t ~ ~ ~ ~ ~ ~ m u v w o x x x x x x x x x x y 9 z A ",
"t ~ ~ ~ ~ ~ ~ B * = C D E A A A A A A A A F G 5 z - ",
"8 ~ ~ ~ ~ ~ ~ H I ~ 1 J 7 K K K K K K K K K / L ^ 3 ",
"8 ~ ~ ~ ~ ~ ~ M N ~ O P Q ~ ~ ~ ~ ~ ~ ~ ~ ~ R S . ; ",
"8 ~ ~ ~ ~ ~ ~ T U ~ b V ; ~ ~ ~ ~ ~ ~ ~ ~ ~ W S . ; ",
"X ~ ~ ~ ~ ~ ~ Y Z ~ < X ; ~ ~ ~ ~ ~ ~ ~ ~ ~ W S . ; ",
"X ~ ~ ~ ~ ~ ~ s _ ~ 9 ` ; ~ ~ ~ ~ ~ ~ ~ ~ ~ W S . ; ",
"` ~ ~ ~ ~ ~ ~ D e ~ b V ; ~ ~ ~ ~ ~ ~ ~ ~ ~ W S . ; ",
"` ~ ~ ~ ~ ~ ~  ...~ +.V Z ] ] ^ [ ~ ~ ~ ~ ~ W S . ; ",
"` ~ ~ ~ ~ ~ ~ $ @.p #.$.%.&.*.=.W ~ ~ ~ ~ ~ W S . ; ",
"V ~ ~ ~ ~ ~ ~ -.;.>.6 Q R _ W o W ~ ~ ~ ~ ~ W S . ; ",
"V ~ ~ ~ ~ ~ ~ S ,.| z : @ '.: % W ~ ~ ~ ~ ~ W S . ; ",
"V ~ ~ ~ ~ ~ ~ ).2         @ _  .W ~ ~ ~ ~ ~ W S . ; ",
"l ~ ~ ~ ~ ~ ~ !.* 3 3 3 3 3 R Y W ~ ~ ~ ~ ~ W S . ; ",
"l ~ ~ ~ ~ ~ ~ D ~.L L L L L ~.x '.~ ~ ~ ~ ~ W S . ; ",
"X ~ ~ ~ ~ ~ ~ W w w w w w w w w z ~ ~ ~ ~ ~ W S . ; ",
"{.!.{ ~ ~ ~ ~ ~ ~ ~ ~ ~ ~ ~ ~ ~ ~ ~ ~ ~ ~ ~ W S . ; ",
"f i ' ~ ~ ~ ~ ~ ~ ~ ~ ~ ~ ~ ~ ~ ~ ~ ~ ~ ~ ~ W S . ; ",
"].+.!.] ~ ~ ~ ~ ~ ~ ~ ~ ~ ~ ~ ~ ~ ~ ~ ~ ~ ~ W S . ; ",
"W Q ^./.6 ~ ~ ~ ~ ~ ~ ~ ~ ~ ~ ~ ~ ~ ~ ~ ~ ~ W S . ; ",
"g ~ '.(.+ ~ ~ ~ ~ ~ ~ ~ ~ ~ ~ ~ ~ ~ ~ ~ ~ ~ W S . ; ",
"  f _.:.h Q ~ ~ ~ ~ ~ ~ ~ ~ ~ ~ ~ ~ ~ ~ ~ ~ R S . ; ",
"    ~ [ +.8 K <.<.<.<.<.<.<.<.<.<.<.<.<.<.<.[.# + Q ",
"    [ ~ 4 #.K }.}.}.}.}.}.}.}.}.}.}.}.}.}.}.' Z g 6 ",
"      Q >.] } } } } } } } } } } } } } } } } } >.~ { ",
"                                                    ",
"                                                    ",
"                                                    ",
"                                                    ",
"                                                    ",
"                                                    ",
"                                                    ",
"                                                    "};
