/* XPM */
static const char * H[] = {
"25 49 132 2",
"  	c #000000",
". 	c #A9A9A9",
"+ 	c #A0A0A0",
"@ 	c #9F9F9F",
"# 	c #B6B6B6",
"$ 	c #F6F6F6",
"% 	c #FAFAFA",
"& 	c #E2E2E2",
"* 	c #C7C7C7",
"= 	c #FFFFFF",
"- 	c #FDFDFD",
"; 	c #989898",
"> 	c #C9C9C9",
", 	c #A8A8A8",
"' 	c #F2F2F2",
") 	c #F7F7F7",
"! 	c #D0D0D0",
"~ 	c #B0B0B0",
"{ 	c #B8B8B8",
"] 	c #C4C4C4",
"^ 	c #D4D4D4",
"/ 	c #FCFCFC",
"( 	c #6F6F6F",
"_ 	c #8B8B8B",
": 	c #E8E8E8",
"< 	c #EFEFEF",
"[ 	c #757575",
"} 	c #DCDCDC",
"| 	c #EDEDED",
"1 	c #FBFBFB",
"2 	c #707070",
"3 	c #8C8C8C",
"4 	c #E7E7E7",
"5 	c #EEEEEE",
"6 	c #767676",
"7 	c #DBDBDB",
"8 	c #ECECEC",
"9 	c #E6E6E6",
"0 	c #B9B9B9",
"a 	c #717171",
"b 	c #E4E4E4",
"c 	c #EBEBEB",
"d 	c #BABABA",
"e 	c #E9E9E9",
"f 	c #A6A6A6",
"g 	c #DADADA",
"h 	c #BBBBBB",
"i 	c #8A8A8A",
"j 	c #E1E1E1",
"k 	c #C6C6C6",
"l 	c #F9F9F9",
"m 	c #BCBCBC",
"n 	c #E0E0E0",
"o 	c #9D9D9D",
"p 	c #BDBDBD",
"q 	c #DEDEDE",
"r 	c #E5E5E5",
"s 	c #9C9C9C",
"t 	c #BEBEBE",
"u 	c #727272",
"v 	c #898989",
"w 	c #E3E3E3",
"x 	c #9B9B9B",
"y 	c #BFBFBF",
"z 	c #FEFEFE",
"A 	c #9A9A9A",
"B 	c #D3D3D3",
"C 	c #C0C0C0",
"D 	c #D8D8D8",
"E 	c #B5B5B5",
"F 	c #B7B7B7",
"G 	c #878787",
"H 	c #B4B4B4",
"I 	c #C1C1C1",
"J 	c #818181",
"K 	c #C5C5C5",
"L 	c #838383",
"M 	c #737373",
"N 	c #858585",
"O 	c #888888",
"P 	c #8D8D8D",
"Q 	c #8F8F8F",
"R 	c #919191",
"S 	c #747474",
"T 	c #8E8E8E",
"U 	c #939393",
"V 	c #F8F8F8",
"W 	c #909090",
"X 	c #959595",
"Y 	c #848484",
"Z 	c #969696",
"` 	c #F0F0F0",
" .	c #979797",
"..	c #868686",
"+.	c #CFCFCF",
"@.	c #A5A5A5",
"#.	c #949494",
"$.	c #D2D2D2",
"%.	c #999999",
"&.	c #CACACA",
"*.	c #C8C8C8",
"=.	c #CECECE",
"-.	c #F1F1F1",
";.	c #CDCDCD",
">.	c #9E9E9E",
",.	c #A1A1A1",
"'.	c #CBCBCB",
").	c #A3A3A3",
"!.	c #A4A4A4",
"~.	c #C2C2C2",
"{.	c #A2A2A2",
"].	c #777777",
"^.	c #A7A7A7",
"/.	c #535353",
"(.	c #ABABAB",
"_.	c #585858",
":.	c #ACACAC",
"<.	c #AAAAAA",
"[.	c #787878",
"}.	c #595959",
"|.	c #ADADAD",
"1.	c #636363",
"2.	c #656565",
"3.	c #555555",
"4.	c #B3B3B3",
"5.	c #B1B1B1",
"6.	c #CCCCCC",
"7.	c #D5D5D5",
"8.	c #D1D1D1",
"9.	c #F4F4F4",
"0.	c #F5F5F5",
"a.	c #F3F3F3",
"                                                  ",
"                                                  ",
"                                                  ",
"                                                  ",
". + + + + + @ # $ %       & * + + + + + + . & = - ",
"; > > > > > > , ' )       ! ~ { > > > > > ] ^ = / ",
"( = = = = = = _ : <       . [ } = = = = = | # = 1 ",
"2 = = = = = = 3 4 5       . 6 7 = = = = = 8 { = 1 ",
"2 = = = = = = _ 9 |       . 6 7 = = = = = 8 0 = 1 ",
"a = = = = = = _ b c       , [ 7 = = = = = | d = / ",
"a = = = = = = _ & e       f a g = = = = = | h = / ",
"a = = = = = = i j :       + k l = = = = = | m = - ",
"a = = = = = = i n 4       o ^ = = = = = = | p = - ",
"a = = = = = = i q r       s ^ = = = = = = | t = - ",
"u = = = = = = v } w       x ^ = = = = = = | y = z ",
"u = = = = = = v 7 &       A B = = = = = = 5 C = z ",
"u = = = = = = v D E F F F + B = = = = = = 5 G = z ",
"u = = = = = = H v A A A A _ I = = = = = = 5 J G   ",
"u = = = = = = = K y y y y t j = = = = = = 5 L v   ",
"M = = = = = = = = = = = = = = = = = = = = 5 N _   ",
"M = = = = = = = = = = = = = = = = = = = = < O P   ",
"M = = = = = = = = = = = = = = = = = = = = < i Q   ",
"M = = = = = = = = = = = = = = = = = = = = < 3 R   ",
"S = = = = = = = = = = = = = = = = = = = = < T U   ",
"S = = = = = = V ) V V V V V 1 = = = = = = < W X   ",
"S = = = = = = Y X Z Z Z Z v K = = = = = = ` U  .  ",
"S = = = = = = ..+.@.Z Z Z #.$.= = = = = = ` #.%.  ",
"S = = = = = = ..&.!       W ! = = = = = = `  .x   ",
"[ = = = = = = N *.+.      Q ! = = = = = = ` %.o   ",
"[ = = = = = = N * =.      T ! = = = = = = -.x @   ",
"[ = = = = = = N k ;.      P +.= = = = = = -.>.,.  ",
"6 = = = = = = N K '.      3 +.= = = = = = -.@ ).  ",
"6 = = = = = = N ] &.      _ +.= = = = = = -.+ !.  ",
"6 = = = = = = Y ~.>       i =.= = = = = = ' {.@.  ",
"].= = = = = = Y I *.      v =.= = = = = - C ^.^.  ",
"].= = = = = = Y C k       O =.= = = = = l /.(..   ",
"].= = = = = = Y y K       G ;.= = = = = % _.:.<.  ",
"[.= = = = = = Y p ]       ..=.= = = = = % }.|.(.  ",
"1.* k k k k * 2.t K       T :.k k k k k I 3.4.5.  ",
"+.*.*.*.*.*.*.6.c |       j 7.*.*.*.*.*.*.8.e :   ",
"9.-.-.-.-.-.-.' 1 1       l 0.-.-.-.-.-.-.a.1 1   ",
"                                                  ",
"                                                  ",
"                                                  ",
"                                                  ",
"                                                  ",
"                                                  ",
"                                                  ",
"                                                  "};
