/* XPM */
static const char * M[] = {
"34 49 151 2",
"  	c #000000",
". 	c #E7E7E7",
"+ 	c #E6E6E6",
"@ 	c #A8A8A8",
"# 	c #A0A0A0",
"$ 	c #9F9F9F",
"% 	c #B1B1B1",
"& 	c #F0F0F0",
"* 	c #FEFEFE",
"= 	c #FAFAFA",
"- 	c #FCFCFC",
"; 	c #DCDCDC",
"> 	c #A6A6A6",
", 	c #ACACAC",
"' 	c #CCCCCC",
") 	c #DADADA",
"! 	c #5F5F5F",
"~ 	c #D5D5D5",
"{ 	c #D3D3D3",
"] 	c #969696",
"^ 	c #C9C9C9",
"/ 	c #B7B7B7",
"( 	c #F6F6F6",
"_ 	c #F9F9F9",
": 	c #CACACA",
"< 	c #C1C1C1",
"[ 	c #C2C2C2",
"} 	c #C5C5C5",
"| 	c #FFFFFF",
"1 	c #FDFDFD",
"2 	c #9D9D9D",
"3 	c #9C9C9C",
"4 	c #606060",
"5 	c #BDBDBD",
"6 	c #DFDFDF",
"7 	c #DDDDDD",
"8 	c #E2E2E2",
"9 	c #949494",
"0 	c #E8E8E8",
"a 	c #E3E3E3",
"b 	c #B4B4B4",
"c 	c #F8F8F8",
"d 	c #F4F4F4",
"e 	c #858585",
"f 	c #8C8C8C",
"g 	c #AEAEAE",
"h 	c #747474",
"i 	c #E1E1E1",
"j 	c #A1A1A1",
"k 	c #E4E4E4",
"l 	c #E0E0E0",
"m 	c #A3A3A3",
"n 	c #E9E9E9",
"o 	c #939393",
"p 	c #CFCFCF",
"q 	c #8E8E8E",
"r 	c #CBCBCB",
"s 	c #8B8B8B",
"t 	c #D8D8D8",
"u 	c #EEEEEE",
"v 	c #C4C4C4",
"w 	c #737373",
"x 	c #ABABAB",
"y 	c #EBEBEB",
"z 	c #7E7E7E",
"A 	c #919191",
"B 	c #8F8F8F",
"C 	c #EFEFEF",
"D 	c #CECECE",
"E 	c #C8C8C8",
"F 	c #F3F3F3",
"G 	c #A7A7A7",
"H 	c #D4D4D4",
"I 	c #D7D7D7",
"J 	c #717171",
"K 	c #ECECEC",
"L 	c #BEBEBE",
"M 	c #646464",
"N 	c #6F6F6F",
"O 	c #F5F5F5",
"P 	c #FBFBFB",
"Q 	c #EAEAEA",
"R 	c #A9A9A9",
"S 	c #C0C0C0",
"T 	c #9E9E9E",
"U 	c #9B9B9B",
"V 	c #E5E5E5",
"W 	c #A2A2A2",
"X 	c #BFBFBF",
"Y 	c #D1D1D1",
"Z 	c #BABABA",
"` 	c #898989",
" .	c #F1F1F1",
"..	c #333333",
"+.	c #AAAAAA",
"@.	c #B2B2B2",
"#.	c #696969",
"$.	c #999999",
"%.	c #8A8A8A",
"&.	c #EDEDED",
"*.	c #F2F2F2",
"=.	c #A4A4A4",
"-.	c #787878",
";.	c #BBBBBB",
">.	c #818181",
",.	c #6C6C6C",
"'.	c #959595",
").	c #B3B3B3",
"!.	c #727272",
"~.	c #616161",
"{.	c #979797",
"].	c #5C5C5C",
"^.	c #474747",
"/.	c #909090",
"(.	c #CDCDCD",
"_.	c #848484",
":.	c #D0D0D0",
"<.	c #767676",
"[.	c #6D6D6D",
"}.	c #212121",
"|.	c #D6D6D6",
"1.	c #656565",
"2.	c #C3C3C3",
"3.	c #ADADAD",
"4.	c #515151",
"5.	c #777777",
"6.	c #C6C6C6",
"7.	c #F7F7F7",
"8.	c #DBDBDB",
"9.	c #B8B8B8",
"0.	c #929292",
"a.	c #808080",
"b.	c #888888",
"c.	c #6E6E6E",
"d.	c #D2D2D2",
"e.	c #B9B9B9",
"f.	c #B0B0B0",
"g.	c #555555",
"h.	c #878787",
"i.	c #757575",
"j.	c #6A6A6A",
"k.	c #868686",
"l.	c #838383",
"m.	c #AFAFAF",
"n.	c #BCBCBC",
"o.	c #7F7F7F",
"p.	c #A5A5A5",
"q.	c #DEDEDE",
"r.	c #7B7B7B",
"s.	c #8D8D8D",
"t.	c #323232",
"                                                                    ",
"                                                                    ",
"                                                                    ",
"                                                                    ",
"    . + @ # # # # $ % & *         = - ; > # # # # # , ' ) !         ",
"    ~ { ] ^ ^ ^ ^ ^ / + -         ( _ : < ^ ^ ^ ^ ^ [ } | 1         ",
"    2 3 4 | | | | | < 5 6         7 8 9 0 | | | | | a b c d         ",
"  1   e . | | | | | < f b c       g % h 0 | | | | | i j k l         ",
"  1 | ] _ | | | | | * m n (       | o p * | | | | | l q p r         ",
"  = 1 s _ | | | | | | ] ' t       u v r | | | | | | l w x 0         ",
"  y u z _ | | | | | | A B   C     D > E | | | | | | F G H |         ",
"  H I J _ | | | | | | C z K u   1 G z : | | | | | | | } ) 1         ",
"  L < M _ | | | | | | | N r D O P Q R * | | | | | | | S r C         ",
"  @ @ T P | | | | | | | @ U | * V ~ W | | | | | | | | X % Y         ",
"= Z ` & | | | | | | | | P ` d  ...+.2 | | | | | | | | L o @.        ",
"= | @.y | | | | | | | | _ #.v 7 _ $ C | | | | | | | | d g $._       ",
"O _ g n | | | | | | | | | + %.| &.` | | | | | | | | | | R K c       ",
"&.*.=.0 | | | | | | | | | 0 j u E -.| | | | | | | | | | 3 8 C       ",
"k n $.. | | | | | | | | | + h ;.>.,.| | | | | | | | | | ] { l       ",
"p { ` . | | | | | | | | | = ;.D A k | | | | | | | | | | '.b X       ",
")./ h . | | | | | | | | | | : > !.P | | | | | | | | | | m A ] ~.    ",
"{.U ].. | | | | | | | | | | E ].^.P | | | | | | | | | | | /.O -     ",
"(.,.=.d | | | | | | | | | | . 5 S 1 | | | | | | | | | | | _. .F     ",
"* r :.| | | | | | | | | | | | | | | | | | | | | | | | | | <.7 6     ",
"F ^ ' | | | | | * O = | | | | | | | | | | * O P | | | | | [.E :     ",
"k Z : | | | | | ( }.;.| | | | | | | | | | |.  < | | | | | 1.G 2.*   ",
"|.3.^ | | | | | ( M R u | | | | | | | | | 4.5.< | | | | | < ] | *   ",
"6.$ E | | | | | 7.'.3.8.| | | | | | | | 3.%.9.S | | | | | = 0.| -   ",
"g %.E | | | | | & s @ N F | | | | | | | e ~ :.S | | | | | _ a.& &.  ",
"e b.t | | | | | ~.# . s F | | | | | | & R c t 2.| | | | | _ c.d.p   ",
"l b | | | | | | 1.e.| x S * | | | | | f.d.( 7 ^ | | | | | c g.@.f.  ",
"y R | | | | | | ,.d.7 7 c.1 | | | | l =.6 | [ h.Q | | | | 1 p %.# c ",
"i =.| | | | | | i.y y *.9 c | | | * Y } O R j j.l | | | | | Q f.- 7.",
"r W | | | | | | >.= P |.:.k.| | | u l.p m.e.n.o.l | | | | | 0 p.F u ",
").j | | | | | | %.- 1 _ & A l | 1 X x | c r p q l | | | | | . '.a q.",
"2 # | | | | | 9.s | 1 c [ Z +.| - i.i k ( t ; $.i | | | | | . r.S 5 ",
"h.G | | | | | ` =.x     _ V / | s.=.P u   k n p.i | | | | | 0 #.{.'.",
"9 | | | | | | %.5 6.    1 D T S e V Q     *.( @.8 | | | | | | :.$ | ",
"l.| | | | | | f D I       d 9.t.% s.y     = | > V | | | | | | (.^ F ",
"s b b b b b b /.V K       d.< p.Q (       i X j f.b b b b b b 2 ' K ",
"A <.<.<.<.<.h A K *.      7.7.d 7.1         e.;.s <.<.<.<.<.<.z { u ",
"                          - - P P                                   ",
"                                                                    ",
"                                                                    ",
"                                                                    ",
"                                                                    ",
"                                                                    ",
"                                                                    ",
"                                                                    "};
