/* XPM */
static const char * N[] = {
"25 49 138 2",
"  	c #000000",
". 	c #A9A9A9",
"+ 	c #A0A0A0",
"@ 	c #9F9F9F",
"# 	c #B2B2B2",
"$ 	c #F2F2F2",
"% 	c #F6F6F6",
"& 	c #E2E2E2",
"* 	c #C7C7C7",
"= 	c #FFFFFF",
"- 	c #FDFDFD",
"; 	c #989898",
"> 	c #C9C9C9",
", 	c #A1A1A1",
"' 	c #FCFCFC",
") 	c #D0D0D0",
"! 	c #B0B0B0",
"~ 	c #B8B8B8",
"{ 	c #C4C4C4",
"] 	c #D4D4D4",
"^ 	c #6F6F6F",
"/ 	c #D7D7D7",
"( 	c #ACACAC",
"_ 	c #757575",
": 	c #DCDCDC",
"< 	c #EDEDED",
"[ 	c #B6B6B6",
"} 	c #FBFBFB",
"| 	c #707070",
"1 	c #FEFEFE",
"2 	c #7F7F7F",
"3 	c #EEEEEE",
"4 	c #767676",
"5 	c #DBDBDB",
"6 	c #ECECEC",
"7 	c #828282",
"8 	c #B4B4B4",
"9 	c #F9F9F9",
"0 	c #B9B9B9",
"a 	c #717171",
"b 	c #F5F5F5",
"c 	c #9B9B9B",
"d 	c #F1F1F1",
"e 	c #A8A8A8",
"f 	c #BABABA",
"g 	c #F3F3F3",
"h 	c #686868",
"i 	c #C0C0C0",
"j 	c #A6A6A6",
"k 	c #DADADA",
"l 	c #BBBBBB",
"m 	c #CBCBCB",
"n 	c #C6C6C6",
"o 	c #BCBCBC",
"p 	c #959595",
"q 	c #9D9D9D",
"r 	c #BDBDBD",
"s 	c #E8E8E8",
"t 	c #E3E3E3",
"u 	c #FAFAFA",
"v 	c #9C9C9C",
"w 	c #BEBEBE",
"x 	c #727272",
"y 	c #CDCDCD",
"z 	c #BFBFBF",
"A 	c #D3D3D3",
"B 	c #8D8D8D",
"C 	c #999999",
"D 	c #878787",
"E 	c #B7B7B7",
"F 	c #818181",
"G 	c #7D7D7D",
"H 	c #DDDDDD",
"I 	c #D2D2D2",
"J 	c #838383",
"K 	c #898989",
"L 	c #737373",
"M 	c #646464",
"N 	c #858585",
"O 	c #8B8B8B",
"P 	c #EFEFEF",
"Q 	c #676767",
"R 	c #CECECE",
"S 	c #888888",
"T 	c #1D1D1D",
"U 	c #8A8A8A",
"V 	c #8F8F8F",
"W 	c #E0E0E0",
"X 	c #8C8C8C",
"Y 	c #919191",
"Z 	c #747474",
"` 	c #ADADAD",
" .	c #8E8E8E",
"..	c #939393",
"+.	c #626262",
"@.	c #909090",
"#.	c #F0F0F0",
"$.	c #979797",
"%.	c #7B7B7B",
"&.	c #E4E4E4",
"*.	c #949494",
"=.	c #CFCFCF",
"-.	c #868686",
";.	c #E1E1E1",
">.	c #CCCCCC",
",.	c #ABABAB",
"'.	c #9E9E9E",
").	c #CACACA",
"!.	c #565656",
"~.	c #A3A3A3",
"{.	c #C8C8C8",
"].	c #A4A4A4",
"^.	c #636363",
"/.	c #A2A2A2",
"(.	c #A5A5A5",
"_.	c #777777",
":.	c #EAEAEA",
"<.	c #7E7E7E",
"[.	c #A7A7A7",
"}.	c #C2C2C2",
"|.	c #535353",
"1.	c #848484",
"2.	c #C1C1C1",
"3.	c #585858",
"4.	c #AAAAAA",
"5.	c #787878",
"6.	c #C5C5C5",
"7.	c #EBEBEB",
"8.	c #595959",
"9.	c #666666",
"0.	c #E7E7E7",
"a.	c #555555",
"b.	c #B3B3B3",
"c.	c #B1B1B1",
"d.	c #D1D1D1",
"e.	c #E9E9E9",
"f.	c #F4F4F4",
"g.	c #F8F8F8",
"                                                  ",
"                                                  ",
"                                                  ",
"                                                  ",
". + + + + + @ # $ %       & * + + + + + + . & = - ",
"; > > > > > > , & % '     ) ! ~ > > > > > { ] = ' ",
"^ = = = = = = / ( - -     . _ : = = = = = < [ = } ",
"| = = = = = = 1 2 3 <     . 4 5 = = = = = 6 ~ = } ",
"| = = = = = = 1 7 8 = 9   . 4 5 = = = = = 6 0 = } ",
"a = = = = = = = b c b d   e _ 5 = = = = = < f = ' ",
"a = = = = = = = g h i ]   j a k = = = = = < l = ' ",
"a = = = = = = = - m l '   + n 9 = = = = = < o = - ",
"a = = = = = = = = 5 p : 1 q ] = = = = = = < r = - ",
"a = = = = = = = = s 7 t u v ] = = = = = = < w = - ",
"x = = = = = = = = = f r y c ] = = = = = = < z = 1 ",
"x = = = = = = = = = ~ _ g c A = = = = = = 3 i = 1 ",
"x = = = = = = = = = - B / C A = = = = = = 3 D = 1 ",
"x = = = = = = = = = = E + ) A = = = = = = 3 F D   ",
"x = = = = = = = = = = = G H I = = = = = = 3 J K   ",
"L = = = = = = = = = = = M . A = = = = = = 3 N O   ",
"L = = = = = = = = = = = P Q R = = = = = = P S B   ",
"L = = = = = = = = = = = b T i = = = = = = P U V   ",
"L = = = = = = = = = = = u r W = = = = = = P X Y   ",
"Z = = = = = = ` v = = = = = = = = = = = = P  ...  ",
"Z = = = = = = J +.9 = = = = = = = = = = = P @.p   ",
"Z = = = = = = D G ..= = = = = = = = = = = #...$.  ",
"Z = = = = = = D 0 %.&.= = = = = = = = = = #.*.C   ",
"Z = = = = = = D =.@.r = = = = = = = = = = #.$.c   ",
"_ = = = = = = D ] R l 1 = = = = = = = = = #.C q   ",
"_ = = = = = = -.R ( _ ;.= = = = = = = = = d c @   ",
"_ = = = = = = -.>.P ! ,.} = = = = = = = = d '.,   ",
"4 = = = = = = -.).= i !.b = = = = = = = = d @ ~.  ",
"4 = = = = = = N {.t 3 B #.= = = = = = = = d + ].  ",
"4 = = = = = = N n 3 = o ^.= = = = = = = = $ /.(.  ",
"_.= = = = = = N { {.d :.<.= = = = = = = - i [.[.  ",
"_.= = = = = = N }.> = 1 j 0 = = = = = = 9 |.,..   ",
"_.= = = = = = 1.2.* - / : Y 1 = = = = = u 3.( 4.  ",
"5.= = = = = = 1.w 6.  7.,.U 0 = = = = = u 8.` ,.  ",
"^.* n n n n * 9.z 6.    0.R ..* n n n n 2.a.b.c.  ",
"=.{.{.{.{.{.{.>.7.<     9 :.d.{.{.{.{.{.{.d.e.s   ",
"f.d d d d d d $ } }     g.9 b d d d d d d g } }   ",
"                                                  ",
"                                                  ",
"                                                  ",
"                                                  ",
"                                                  ",
"                                                  ",
"                                                  ",
"                                                  "};
