/* XPM */
static const char * nine[] = {
"24 45 124 2",
"  	c #000000",
". 	c #FDFDFD",
"+ 	c #E4E4E4",
"@ 	c #A8A8A8",
"# 	c #A2A2A2",
"$ 	c #B6B6B6",
"% 	c #F4F4F4",
"& 	c #FFFFFF",
"* 	c #E6E6E6",
"= 	c #A6A6A6",
"- 	c #9E9E9E",
"; 	c #B5B5B5",
"> 	c #F6F6F6",
", 	c #FEFEFE",
"' 	c #E9E9E9",
") 	c #D4D4D4",
"! 	c #F7F7F7",
"~ 	c #F8F8F8",
"{ 	c #C0C0C0",
"] 	c #C4C4C4",
"^ 	c #E7E7E7",
"/ 	c #EEEEEE",
"( 	c #FAFAFA",
"_ 	c #BDBDBD",
": 	c #878787",
"< 	c #D8D8D8",
"[ 	c #D5D5D5",
"} 	c #CFCFCF",
"| 	c #CBCBCB",
"1 	c #757575",
"2 	c #EDEDED",
"3 	c #DCDCDC",
"4 	c #7E7E7E",
"5 	c #DADADA",
"6 	c #747474",
"7 	c #E2E2E2",
"8 	c #EFEFEF",
"9 	c #9D9D9D",
"0 	c #9A9A9A",
"a 	c #F1F1F1",
"b 	c #7C7C7C",
"c 	c #D1D1D1",
"d 	c #BBBBBB",
"e 	c #858585",
"f 	c #828282",
"g 	c #FCFCFC",
"h 	c #F0F0F0",
"i 	c #F9F9F9",
"j 	c #939393",
"k 	c #F5F5F5",
"l 	c #7B7B7B",
"m 	c #525252",
"n 	c #787878",
"o 	c #777777",
"p 	c #797979",
"q 	c #494949",
"r 	c #808080",
"s 	c #F2F2F2",
"t 	c #EBEBEB",
"u 	c #6F6F6F",
"v 	c #B7B7B7",
"w 	c #BCBCBC",
"x 	c #737373",
"y 	c #818181",
"z 	c #7D7D7D",
"A 	c #EAEAEA",
"B 	c #646464",
"C 	c #6C6C6C",
"D 	c #F3F3F3",
"E 	c #AEAEAE",
"F 	c #5B5B5B",
"G 	c #E8E8E8",
"H 	c #9F9F9F",
"I 	c #8D8D8D",
"J 	c #5E5E5E",
"K 	c #838383",
"L 	c #7F7F7F",
"M 	c #929292",
"N 	c #B0B0B0",
"O 	c #B1B1B1",
"P 	c #B2B2B2",
"Q 	c #969696",
"R 	c #848484",
"S 	c #6A6A6A",
"T 	c #C1C1C1",
"U 	c #D6D6D6",
"V 	c #696969",
"W 	c #C8C8C8",
"X 	c #868686",
"Y 	c #CDCDCD",
"Z 	c #636363",
"` 	c #E0E0E0",
" .	c #D2D2D2",
"..	c #8E8E8E",
"+.	c #888888",
"@.	c #C6C6C6",
"#.	c #D9D9D9",
"$.	c #B8B8B8",
"%.	c #A1A1A1",
"&.	c #989898",
"*.	c #999999",
"=.	c #898989",
"-.	c #E3E3E3",
";.	c #6B6B6B",
">.	c #ECECEC",
",.	c #6D6D6D",
"'.	c #8A8A8A",
").	c #626262",
"!.	c #8B8B8B",
"~.	c #8C8C8C",
"{.	c #ADADAD",
"].	c #FBFBFB",
"^.	c #ACACAC",
"/.	c #909090",
"(.	c #A7A7A7",
"_.	c #A5A5A5",
":.	c #919191",
"<.	c #A4A4A4",
"[.	c #D0D0D0",
"}.	c #C5C5C5",
"|.	c #C7C7C7",
"1.	c #AAAAAA",
"2.	c #ABABAB",
"3.	c #DBDBDB",
"                                                ",
"                                                ",
"                                                ",
"      . + @ # # # # # # # # # # $ % .           ",
"      & * = - - - - - - - - - - ; > ,           ",
"    ' ) # + ! ! ! ! ! ! ! ! ! ~ { ] ^ /         ",
"  . ( _ _ & & & & & & & & & & & & : < & &       ",
"[ } | 1 2 & & & & & & & & & & & & 3 4 5 5       ",
"( ) 6 > & & & & & & & & & & & & & & 7 # + >     ",
"8 9 0 , & & & & & & & & & & & & & & a b | ! c   ",
"d = ( & & & & & & & & & & & & & & & & a e } [ > ",
"f & & & & & g 8 8 8 8 8 8 8 h & & & & & i j i k ",
"l & & & & & ' m n o o o o p q . & & & & . r s / ",
"b & & & & & t u v ; ; ; ; w x . & & & & . y s / ",
"z & & & & & A w .         B C . & & & & . f D 8 ",
"z & & & & & ' E 2         F B . & & & & . f D 8 ",
"4 & & & & & G H [ I I I I [ J . & & & & . K D 8 ",
"L & & & & & / M N O O O O P Q . & & & & . R % h ",
"y & & & & & & & & & & & & & & & & & & & . e % h ",
"S T , & & & & & & & & & & & & & & & & & . e % h ",
"U V W & & & & & & & & & & & & & & & & & . X k a ",
"2 Y Z v & & & & & & & & & & & & & & & & . X k a ",
"` '  ...g & & & & & & & & & & & & & & & . +.> s ",
"  3 j @.N i & & & & & & & & & & & & & & . +.> s ",
"    U #.$.%.&.&.&.&.&.&.*.&.&.. & & & & . =.> s ",
"      |   % D D D D D D D -.;.. & & & & . =.! D ",
"h >.>.>.>.D D D D D D D 8  .,.. & & & & . '.! D ",
"8 t t t t t t t t t t t >.U ).. & & & & . !.! D ",
",.z z z z z z z z z z z z l n . & & & & . ~.~ % ",
"!.& & & & & & & & & & & & & & & & & & & & ~.~ % ",
"~.& & & & & & & & & & & & & & & & & & & H {.& g ",
"I & & & & & & & & & & & & & & & & & ].^.%.k % . ",
"/.& & & & & & & & & & & & & & & & & (._./ % ~   ",
":.& & & & & & & & & & & & & & & , Q # h ].~     ",
"M & & & & & & & & & & & & & & ( _.<.k ! !       ",
"$ [.[.[.[.[.[.[.[.[.[.[.[.[.[.}.v 2 % !         ",
"|.1.2.2.2.2.2.2.2.2.2.2.2.2.2.{.3.>             ",
"                                                ",
"                                                ",
"                                                ",
"                                                ",
"                                                ",
"                                                ",
"                                                ",
"                                                "};
