/* XPM */
static const char * O[] = {
"26 49 136 2",
"  	c #000000",
". 	c #FAFAFA",
"+ 	c #F0F0F0",
"@ 	c #888888",
"# 	c #A0A0A0",
"$ 	c #9F9F9F",
"% 	c #B4B4B4",
"& 	c #EEEEEE",
"* 	c #EDEDED",
"= 	c #EBEBEB",
"- 	c #E5E5E5",
"; 	c #FFFFFF",
"> 	c #DEDEDE",
", 	c #CACACA",
"' 	c #C9C9C9",
") 	c #C8C8C8",
"! 	c #989898",
"~ 	c #D1D1D1",
"{ 	c #F3F3F3",
"] 	c #999999",
"^ 	c #F1F1F1",
"/ 	c #949494",
"( 	c #DBDBDB",
"_ 	c #C4C4C4",
": 	c #696969",
"< 	c #CECECE",
"[ 	c #F5F5F5",
"} 	c #F9F9F9",
"| 	c #FCFCFC",
"1 	c #ADADAD",
"2 	c #6C6C6C",
"3 	c #FDFDFD",
"4 	c #CBCBCB",
"5 	c #6A6A6A",
"6 	c #D5D5D5",
"7 	c #ECECEC",
"8 	c #E6E6E6",
"9 	c #B2B2B2",
"0 	c #7F7F7F",
"a 	c #F4F4F4",
"b 	c #C3C3C3",
"c 	c #D8D8D8",
"d 	c #EFEFEF",
"e 	c #FBFBFB",
"f 	c #DADADA",
"g 	c #7E7E7E",
"h 	c #BFBFBF",
"i 	c #D4D4D4",
"j 	c #F7F7F7",
"k 	c #CFCFCF",
"l 	c #ABABAB",
"m 	c #9A9A9A",
"n 	c #BDBDBD",
"o 	c #9B9B9B",
"p 	c #FEFEFE",
"q 	c #D2D2D2",
"r 	c #B1B1B1",
"s 	c #F8F8F8",
"t 	c #595959",
"u 	c #AFAFAF",
"v 	c #E7E7E7",
"w 	c #ACACAC",
"x 	c #F6F6F6",
"y 	c #F2F2F2",
"z 	c #6F6F6F",
"A 	c #BBBBBB",
"B 	c #222222",
"C 	c #666666",
"D 	c #686868",
"E 	c #646464",
"F 	c #282828",
"G 	c #757575",
"H 	c #B0B0B0",
"I 	c #B6B6B6",
"J 	c #C7C7C7",
"K 	c #8D8D8D",
"L 	c #707070",
"M 	c #818181",
"N 	c #979797",
"O 	c #A3A3A3",
"P 	c #AAAAAA",
"Q 	c #848484",
"R 	c #939393",
"S 	c #A6A6A6",
"T 	c #8C8C8C",
"U 	c #A9A9A9",
"V 	c #B3B3B3",
"W 	c #868686",
"X 	c #717171",
"Y 	c #808080",
"Z 	c #AEAEAE",
"` 	c #A8A8A8",
" .	c #7A7A7A",
"..	c #E8E8E8",
"+.	c #A7A7A7",
"@.	c #B5B5B5",
"#.	c #727272",
"$.	c #B7B7B7",
"%.	c #E9E9E9",
"&.	c #A4A4A4",
"*.	c #A2A2A2",
"=.	c #EAEAEA",
"-.	c #A5A5A5",
";.	c #737373",
">.	c #787878",
",.	c #767676",
"'.	c #9D9D9D",
").	c #7D7D7D",
"!.	c #747474",
"~.	c #E4E4E4",
"{.	c #8B8B8B",
"].	c #E2E2E2",
"^.	c #909090",
"/.	c #8A8A8A",
"(.	c #DFDFDF",
"_.	c #C2C2C2",
":.	c #1C1C1C",
"<.	c #A1A1A1",
"[.	c #DDDDDD",
"}.	c #DCDCDC",
"|.	c #CCCCCC",
"1.	c #E3E3E3",
"2.	c #D7D7D7",
"3.	c #838383",
"4.	c #D6D6D6",
"5.	c #8F8F8F",
"6.	c #D9D9D9",
"7.	c #BABABA",
"8.	c #B9B9B9",
"9.	c #7C7C7C",
"0.	c #969696",
"a.	c #C6C6C6",
"b.	c #BCBCBC",
"c.	c #676767",
"d.	c #E0E0E0",
"e.	c #9C9C9C",
"                                                    ",
"                                                    ",
"                                                    ",
"                                                    ",
"      . + @ # # # # # # # # # # $ % & * =           ",
"    - ; > @ , ' ' ' ' ' ' ' ' ' ) ! ~ { & ]         ",
"  . ^ - / ( ; ; ; ; ; ; ; ; ; ; ; _ : < [ &         ",
"  } | 1 2 ; ; ; ; ; ; ; ; ; ; ; ; 3 4 5 6 7 *       ",
"8 + 9 0 a ; ; ; ; ; ; ; ; ; ; ; ; ; ; b 2 c d ^ +   ",
"e f g 8 ; ; ; ; ; ; ; ; ; ; ; ; ; ; ; ; h 2 i j j . ",
"k l m [ ; ; ; ; ; ; ; ; ; ; ; ; ; ; ; ; ; ' 2 i ; . ",
"n o j ; ; ; ; ; ; ; ; ; ; ; ; ; ; ; ; ; ; p q r s a ",
"t u ; ; ; ; s ^ ^ ^ ^ ^ ^ ^ ^ ^ | ; ; ; ; ; v w x y ",
"z ; ; ; ; ; A B C D D D D D E F - ; ; ; ; ; v l [ ^ ",
"z ; ; ; ; ; A G H I I I I I J K 8 ; ; ; ; ; v l [ ^ ",
"L ; ; ; ; ; A M N 9 9 9 9 _ + O 8 ; ; ; ; ; v P [ + ",
"L ; ; ; ; ; _ Q R         * y S 8 ; ; ; ; ; v P a + ",
"L ; ; ; ; ; ; I T         d a U v ; ; ; ; ; v U { d ",
"L ; ; ; ; ; ; V W         ^ [ l v ; ; ; ; ; v U { d ",
"X ; ; ; ; ; ; H Y         a s Z v ; ; ; ; ; v ` { & ",
"X ; ; ; ; ; ; 1  .        [ } r ..; ; ; ; ; v +.y & ",
"X ; ; ; ; ; ; U > 3       j | @...; ; ; ; ; 8 +.y & ",
"#.; ; ; ; ; ; +.^ |       } 3 $.%.; ; ; ; ; 8 S ^ * ",
"#.; ; ; ; ; ; &.d }       | ; A %.; ; ; ; ; 8 S ^ * ",
"#.; ; ; ; ; ; *.7 j       3 ; A =.; ; ; ; ; 8 -.^ 7 ",
";.; ; ; ; ; ; $ =.[         >.,.= ; ; ; ; ; 8 -.+ 7 ",
";.; ; ; ; ; ; '.v y         Q ).= ; ; ; ; ; 8 &.+ 7 ",
"!.; ; ; ; ; ; o ~.+         {.Q 7 ; ; ; ; ; 8 O d = ",
"!.; ; ; ; ; ; ] ].*         ^./.* ; ; ; ; ; 8 *.d =.",
"!.; ; ; ; ; ; N (.e . . . . ; U 6 3 ; ; ; ; 8 *.& =.",
"G ; ; ; ; ; ; ^.U b _._._._._ '.:.j ; ; ; ; 8 <.& %.",
",.; ; ; ; ; ; 8 [.> > > > > > [.}.3 ; ; ; ; v &.d = ",
",.; ; ; ; ; ; ; ; ; ; ; ; ; ; ; ; ; ; ; ; s #.|.; | ",
"Q + ; ; ; ; ; ; ; ; ; ; ; ; ; ; ; ; ; ; ; 1.*.x * p ",
"O / = ; ; ; ; ; ; ; ; ; ; ; ; ; ; ; ; ; 2.3.4.v {   ",
"d ~ 5.d ; ; ; ; ; ; ; ; ; ; ; ; ; ; ; i : 6.; 4.    ",
"; } k 0 { ; ; ; ; ; ; ; ; ; ; ; ; ; p 7.8...j       ",
"3 3 ; |.9.& ; ; ; ; ; ; ; ; ; ; ; 3 ' 0.4 v         ",
"  p p 3 < T J a.a.a.a.a.a.a.a.a.a.b.c.4.; 3         ",
"    | . } d.) ) ) ) ) ) ) ) ) ) ) ' 4.* { e.        ",
"      | p e ^ ^ ^ ^ ^ ^ ^ ^ ^ ^ ^ ^ j a v           ",
"                                                    ",
"                                                    ",
"                                                    ",
"                                                    ",
"                                                    ",
"                                                    ",
"                                                    ",
"                                                    "};
