/* XPM */
static const char * P[] = {
"26 49 117 2",
"  	c #000000",
". 	c #B4B4B4",
"+ 	c #A0A0A0",
"@ 	c #C7C7C7",
"# 	c #FCFCFC",
"$ 	c #FBFBFB",
"% 	c #A2A2A2",
"& 	c #C9C9C9",
"* 	c #C8C8C8",
"= 	c #A8A8A8",
"- 	c #E6E6E6",
"; 	c #FFFFFF",
"> 	c #A1A1A1",
", 	c #757575",
"' 	c #C6C6C6",
") 	c #8A8A8A",
"! 	c #E1E1E1",
"~ 	c #FAFAFA",
"{ 	c #767676",
"] 	c #FDFDFD",
"^ 	c #CCCCCC",
"/ 	c #858585",
"( 	c #E5E5E5",
"_ 	c #F8F8F8",
": 	c #C3C3C3",
"< 	c #F7F7F7",
"[ 	c #F6F6F6",
"} 	c #BFBFBF",
"| 	c #7F7F7F",
"1 	c #DDDDDD",
"2 	c #F9F9F9",
"3 	c #7D7D7D",
"4 	c #D2D2D2",
"5 	c #CFCFCF",
"6 	c #FEFEFE",
"7 	c #D8D8D8",
"8 	c #909090",
"9 	c #949494",
"0 	c #F5F5F5",
"a 	c #EDEDED",
"b 	c #919191",
"c 	c #969696",
"d 	c #A4A4A4",
"e 	c #ADADAD",
"f 	c #ACACAC",
"g 	c #989898",
"h 	c #D4D4D4",
"i 	c #CECECE",
"j 	c #9C9C9C",
"k 	c #9F9F9F",
"l 	c #747474",
"m 	c #939393",
"n 	c #D0D0D0",
"o 	c #9A9A9A",
"p 	c #505050",
"q 	c #A6A6A6",
"r 	c #DBDBDB",
"s 	c #999999",
"t 	c #DCDCDC",
"u 	c #5B5B5B",
"v 	c #AFAFAF",
"w 	c #737373",
"x 	c #D1D1D1",
"y 	c #5F5F5F",
"z 	c #B6B6B6",
"A 	c #B3B3B3",
"B 	c #AAAAAA",
"C 	c #676767",
"D 	c #BCBCBC",
"E 	c #B2B2B2",
"F 	c #5A5A5A",
"G 	c #A9A9A9",
"H 	c #A7A7A7",
"I 	c #BBBBBB",
"J 	c #797979",
"K 	c #D5D5D5",
"L 	c #6B6B6B",
"M 	c #CBCBCB",
"N 	c #666666",
"O 	c #656565",
"P 	c #646464",
"Q 	c #565656",
"R 	c #727272",
"S 	c #9B9B9B",
"T 	c #EFEFEF",
"U 	c #EBEBEB",
"V 	c #868686",
"W 	c #DFDFDF",
"X 	c #CACACA",
"Y 	c #C0C0C0",
"Z 	c #CDCDCD",
"` 	c #F1F1F1",
" .	c #717171",
"..	c #E3E3E3",
"+.	c #D3D3D3",
"@.	c #B9B9B9",
"#.	c #B8B8B8",
"$.	c #B7B7B7",
"%.	c #A3A3A3",
"&.	c #D7D7D7",
"*.	c #929292",
"=.	c #979797",
"-.	c #E8E8E8",
";.	c #707070",
">.	c #EAEAEA",
",.	c #E0E0E0",
"'.	c #ECECEC",
").	c #E2E2E2",
"!.	c #EEEEEE",
"~.	c #E4E4E4",
"{.	c #6F6F6F",
"].	c #F2F2F2",
"^.	c #F3F3F3",
"/.	c #545454",
"(.	c #7E7E7E",
"_.	c #E9E9E9",
":.	c #F4F4F4",
"                                                    ",
"                                                    ",
"                                                    ",
"                                                    ",
". + + + + + + + + + + + + + + + + @ # # $           ",
"% & & & & & & & & & & & & & & & * = - ; # >         ",
", ; ; ; ; ; ; ; ; ; ; ; ; ; ; ; ; ' ) ! ; ~         ",
"{ ; ; ; ; ; ; ; ; ; ; ; ; ; ; ; ; ] ^ / ( _ _       ",
"{ ; ; ; ; ; ; ; ; ; ; ; ; ; ; ; ; ; ; : / ( < < [   ",
"{ ; ; ; ; ; ; ; ; ; ; ; ; ; ; ; ; ; ; ; } | 1 # 2   ",
"{ ; ; ; ; ; ; ; ; ; ; ; ; ; ; ; ; ; ; ; ; & 3 4 5   ",
", ; ; ; ; ; ; ; ; ; ; ; ; ; ; ; ; ; ; ; ; 6 7 8 9   ",
", ; ; ; ; ; ; 0 0 < < < < < [ ~ ; ; ; ; ; ; a b c   ",
", ; ; ; ; ; ; 8 d e f f f f g h ; ; ; ; ; ] i j k   ",
"l ; ; ; ; ; ; m n   e e e f o 1 ; ; ; ; ; < p = q   ",
"l ; ; ; ; ; ; m n r       k s t ; ; ; ; ; _ u v e   ",
"w ; ; ; ; ; ; 9 x t       k s t ; ; ; ; ; _ y z A   ",
"w ; ; ; ; ; ; 9 4 1       k s t ; ; ; ; ; _ u f B   ",
"w ; ; ; ; ; ; 9 h C D D D E j 1 ; ; ; ; ; _ F G H   ",
"w ; ; ; ; ; ; 9 f D I I I . J K ; ; ; ; ; _ L M *   ",
"w ; ; ; ; ; ; 2 3 N O O O P Q 5 ; ; ; ; ; _ R K 4   ",
"R ; ; ; ; ; ; ; ; ; ; ; ; ; ; ; ; ; ; ; ; 1 S T U   ",
"R ; ; ; ; ; ; ; ; ; ; ; ; ; ; ; ; ; ; ; x V M W U   ",
"R ; ; ; ; ; ; ; ; ; ; ; ; ; ; ; ; ; ; n J ! ; X     ",
"R ; ; ; ; ; ; ; ; ; ; ; ; ; ; ; ; ; 6 Y Z ` $       ",
" .; ; ; ; ; ; ; ; ; ; ; ; ; ; ; ; ] & f ..+.        ",
" .; ; ; ; ; ; ; ; ; ; ; ; ; ; ; ; D / i K +         ",
" .; ; ; ; ; ; @.v @.#.#.#.#.#.#.$.%.- W '           ",
" .; ; ; ; ; ; c &.k *.*.*.*.*.*.b $._ _             ",
" .; ; ; ; ; ; =.1 -.                                ",
";.; ; ; ; ; ; =.W >.                                ",
";.; ; ; ; ; ; =.,.'.                                ",
";.; ; ; ; ; ; g ).a                                 ",
";.; ; ; ; ; ; g ..!.                                ",
";.; ; ; ; ; ; s ~.T                                 ",
"{.; ; ; ; ; ; s ( `                                 ",
"{.; ; ; ; ; ; s - ].                                ",
"{.; ; ; ; ; ; o -.^.                                ",
"/.@ ' ' ' ' @ (._.0                                 ",
"^ * * * * * @ n < $                                 ",
"].` ` ` ` ` ` :.] 6                                 ",
"                                                    ",
"                                                    ",
"                                                    ",
"                                                    ",
"                                                    ",
"                                                    ",
"                                                    ",
"                                                    "};
