/* XPM */
static const char * R[] = {
"26 49 133 2",
"  	c #000000",
". 	c #B4B4B4",
"+ 	c #A0A0A0",
"@ 	c #C7C7C7",
"# 	c #FCFCFC",
"$ 	c #FBFBFB",
"% 	c #A2A2A2",
"& 	c #C9C9C9",
"* 	c #C8C8C8",
"= 	c #A8A8A8",
"- 	c #E6E6E6",
"; 	c #FFFFFF",
"> 	c #A1A1A1",
", 	c #757575",
"' 	c #C6C6C6",
") 	c #8A8A8A",
"! 	c #E1E1E1",
"~ 	c #FAFAFA",
"{ 	c #767676",
"] 	c #FDFDFD",
"^ 	c #CCCCCC",
"/ 	c #858585",
"( 	c #E5E5E5",
"_ 	c #F8F8F8",
": 	c #C3C3C3",
"< 	c #F7F7F7",
"[ 	c #F6F6F6",
"} 	c #BFBFBF",
"| 	c #7F7F7F",
"1 	c #DDDDDD",
"2 	c #F9F9F9",
"3 	c #7D7D7D",
"4 	c #D2D2D2",
"5 	c #CFCFCF",
"6 	c #FEFEFE",
"7 	c #D8D8D8",
"8 	c #909090",
"9 	c #949494",
"0 	c #F5F5F5",
"a 	c #EDEDED",
"b 	c #919191",
"c 	c #969696",
"d 	c #A4A4A4",
"e 	c #ADADAD",
"f 	c #ACACAC",
"g 	c #989898",
"h 	c #D4D4D4",
"i 	c #CECECE",
"j 	c #9C9C9C",
"k 	c #9F9F9F",
"l 	c #747474",
"m 	c #939393",
"n 	c #D0D0D0",
"o 	c #9A9A9A",
"p 	c #505050",
"q 	c #A5A5A5",
"r 	c #DBDBDB",
"s 	c #999999",
"t 	c #DCDCDC",
"u 	c #5B5B5B",
"v 	c #AFAFAF",
"w 	c #737373",
"x 	c #D1D1D1",
"y 	c #5F5F5F",
"z 	c #B6B6B6",
"A 	c #B3B3B3",
"B 	c #5A5A5A",
"C 	c #ABABAB",
"D 	c #A9A9A9",
"E 	c #676767",
"F 	c #BCBCBC",
"G 	c #B2B2B2",
"H 	c #A6A6A6",
"I 	c #BBBBBB",
"J 	c #797979",
"K 	c #D5D5D5",
"L 	c #6B6B6B",
"M 	c #CBCBCB",
"N 	c #666666",
"O 	c #656565",
"P 	c #646464",
"Q 	c #565656",
"R 	c #707070",
"S 	c #D3D3D3",
"T 	c #727272",
"U 	c #8F8F8F",
"V 	c #E9E9E9",
"W 	c #DFDFDF",
"X 	c #E2E2E2",
"Y 	c #6A6A6A",
"Z 	c #D9D9D9",
"` 	c #717171",
" .	c #BEBEBE",
"..	c #F3F3F3",
"+.	c #CDCDCD",
"@.	c #959595",
"#.	c #B7B7B7",
"$.	c #8C8C8C",
"%.	c #E0E0E0",
"&.	c #696969",
"*.	c #BDBDBD",
"=.	c #464646",
"-.	c #C1C1C1",
";.	c #979797",
">.	c #DEDEDE",
",.	c #ECECEC",
"'.	c #EEEEEE",
").	c #AAAAAA",
"!.	c #F1F1F1",
"~.	c #EAEAEA",
"{.	c #C2C2C2",
"].	c #F0F0F0",
"^.	c #848484",
"/.	c #C0C0C0",
"(.	c #AEAEAE",
"_.	c #B1B1B1",
":.	c #F4F4F4",
"<.	c #E4E4E4",
"[.	c #EFEFEF",
"}.	c #838383",
"|.	c #E7E7E7",
"1.	c #6F6F6F",
"2.	c #8E8E8E",
"3.	c #F2F2F2",
"4.	c #777777",
"5.	c #E8E8E8",
"6.	c #828282",
"7.	c #6E6E6E",
"8.	c #545454",
"9.	c #7E7E7E",
"0.	c #9D9D9D",
"a.	c #8D8D8D",
"b.	c #B5B5B5",
"                                                    ",
"                                                    ",
"                                                    ",
"                                                    ",
". + + + + + + + + + + + + + + + + @ # # $           ",
"% & & & & & & & & & & & & & & & * = - ; # >         ",
", ; ; ; ; ; ; ; ; ; ; ; ; ; ; ; ; ' ) ! ; ~         ",
"{ ; ; ; ; ; ; ; ; ; ; ; ; ; ; ; ; ] ^ / ( _ _       ",
"{ ; ; ; ; ; ; ; ; ; ; ; ; ; ; ; ; ; ; : / ( < < [   ",
"{ ; ; ; ; ; ; ; ; ; ; ; ; ; ; ; ; ; ; ; } | 1 # 2   ",
"{ ; ; ; ; ; ; ; ; ; ; ; ; ; ; ; ; ; ; ; ; & 3 4 5   ",
", ; ; ; ; ; ; ; ; ; ; ; ; ; ; ; ; ; ; ; ; 6 7 8 9   ",
", ; ; ; ; ; ; 0 0 < < < < < [ ~ ; ; ; ; ; ; a b c   ",
", ; ; ; ; ; ; 8 d e f f f f g h ; ; ; ; ; ] i j k   ",
"l ; ; ; ; ; ; m n   e e e f o 1 ; ; ; ; ; < p = q   ",
"l ; ; ; ; ; ; m n r       k s t ; ; ; ; ; _ u v f   ",
"w ; ; ; ; ; ; 9 x t       k s t ; ; ; ; ; _ y z A   ",
"w ; ; ; ; ; ; 9 4 1       k s t ; ; ; ; ; _ B C D   ",
"w ; ; ; ; ; ; 9 h E F F F G j 1 ; ; ; ; ; _ B = H   ",
"w ; ; ; ; ; ; 9 f F I I I . J K ; ; ; ; ; _ L M *   ",
"w ; ; ; ; ; ; 2 3 N O O O P Q 5 ; ; ; ; ; _ R S n   ",
"T ; ; ; ; ; ; ; ; ; ; ; ; ; ; ; ; ; ; ; ; t U V (   ",
"T ; ; ; ; ; ; ; ; ; ; ; ; ; ; ; ; ; ; ; x 3 W X (   ",
"T ; ; ; ; ; ; ; ; ; ; ; ; ; ; ; ; ; ; n Y Z ] 6     ",
"T ; ; ; ; ; ; ; ; ; ; ; ; ; ; ; ; ; 6 F : V 0       ",
"` ; ; ; ; ; ; ; ; ; ; ; ; ; ; ; ; # @ j S  .        ",
"` ; ; ; ; ; ; ; ; ; ; ; ; ; ; ; ; ..R 5 +.@.        ",
"` ; ; ; ; ; ; #.U 8 $.%.; ; ; ; ; ..&.*.} =.        ",
"` ; ; ; ; ; ; 9 *.K c S ; ; ; ; ; 6 Z -.6 ~         ",
"` ; ; ; ; ; ; ;.1 6 ' -.$ ; ; ; ; ; 1 + W r         ",
"R ; ; ; ; ; ; ;.>.; #.&.,.; ; ; ; ; '.).o -         ",
"R ; ; ; ; ; ; ;.W !.~.@.'.; ; ; ; ; ; {.* ].        ",
"R ; ; ; ; ; ; g ! ,.; ^.~.; ; ; ; ; ; /.(.@         ",
"R ; ; ; ; ; ; g X a -.: N $ ; ; ; ; ; ; _.h :.      ",
"R ; ; ; ; ; ; g <.[.!...}.] ; ; ; ; ; ; c t |.      ",
"1.; ; ; ; ; ; s ( !.$ ; s e ; ; ; ; ; ; 2.d   <     ",
"1.; ; ; ; ; ; s - 3.~ i * 4.; ; ; ; ; ; [ ) :.0     ",
"1.; ; ; ; ; ; o 5...  3.a 6.!.; ; ; ; ; ; 7.4 r ]   ",
"8.@ ' ' ' ' @ 9.V 0   ..  ` 0.; ; ; ; ; ; I > ; ]   ",
"^ * * * * * @ n < $     x ' a.b.. . . . . A f 6 $   ",
"3.!.!.!.!.!.!.:.] 6     '.X 6.{ { { { { { 4.b.# ~   ",
"                                                    ",
"                                                    ",
"                                                    ",
"                                                    ",
"                                                    ",
"                                                    ",
"                                                    ",
"                                                    "};
