/* XPM */
static const char * S[] = {
"23 49 119 2",
"  	c #000000",
". 	c #FAFAFA",
"+ 	c #E8E8E8",
"@ 	c #8A8A8A",
"# 	c #A0A0A0",
"$ 	c #A4A4A4",
"% 	c #D8D8D8",
"& 	c #FCFCFC",
"* 	c #E5E5E5",
"= 	c #D5D5D5",
"- 	c #979797",
"; 	c #C9C9C9",
"> 	c #C4C4C4",
", 	c #C8C8C8",
"' 	c #FBFBFB",
") 	c #F8F8F8",
"! 	c #F3F3F3",
"~ 	c #E1E1E1",
"{ 	c #969696",
"] 	c #FFFFFF",
"^ 	c #F2F2F2",
"/ 	c #A5A5A5",
"( 	c #F9F9F9",
"_ 	c #F5F5F5",
": 	c #A3A3A3",
"< 	c #838383",
"[ 	c #F1F1F1",
"} 	c #ABABAB",
"| 	c #E6E6E6",
"1 	c #B2B2B2",
"2 	c #818181",
"3 	c #B0B0B0",
"4 	c #D9D9D9",
"5 	c #767676",
"6 	c #F0F0F0",
"7 	c #A8A8A8",
"8 	c #FDFDFD",
"9 	c #D1D1D1",
"0 	c #7A7A7A",
"a 	c #B4B4B4",
"b 	c #BEBEBE",
"c 	c #A1A1A1",
"d 	c #878787",
"e 	c #8B8B8B",
"f 	c #5A5A5A",
"g 	c #B6B6B6",
"h 	c #F6F6F6",
"i 	c #E7E7E7",
"j 	c #909090",
"k 	c #939393",
"l 	c #737373",
"m 	c #393939",
"n 	c #696969",
"o 	c #686868",
"p 	c #787878",
"q 	c #B9B9B9",
"r 	c #B8B8B8",
"s 	c #727272",
"t 	c #B7B7B7",
"u 	c #B5B5B5",
"v 	c #E4E4E4",
"w 	c #EEEEEE",
"x 	c #B3B3B3",
"y 	c #BBBBBB",
"z 	c #E3E3E3",
"A 	c #E2E2E2",
"B 	c #858585",
"C 	c #A6A6A6",
"D 	c #383838",
"E 	c #D4D4D4",
"F 	c #CECECE",
"G 	c #D0D0D0",
"H 	c #EDEDED",
"I 	c #EBEBEB",
"J 	c #DCDCDC",
"K 	c #C1C1C1",
"L 	c #DDDDDD",
"M 	c #F4F4F4",
"N 	c #707070",
"O 	c #FEFEFE",
"P 	c #DBDBDB",
"Q 	c #626262",
"R 	c #D2D2D2",
"S 	c #A2A2A2",
"T 	c #DEDEDE",
"U 	c #EFEFEF",
"V 	c #CACACA",
"W 	c #C3C3C3",
"X 	c #E9E9E9",
"Y 	c #ECECEC",
"Z 	c #C6C6C6",
"` 	c #F7F7F7",
" .	c #EAEAEA",
"..	c #ADADAD",
"+.	c #6D6D6D",
"@.	c #808080",
"#.	c #A7A7A7",
"$.	c #C2C2C2",
"%.	c #656565",
"&.	c #9B9B9B",
"*.	c #AFAFAF",
"=.	c #CBCBCB",
"-.	c #BFBFBF",
";.	c #B1B1B1",
">.	c #9E9E9E",
",.	c #BDBDBD",
"'.	c #A9A9A9",
").	c #777777",
"!.	c #9A9A9A",
"~.	c #CFCFCF",
"{.	c #797979",
"].	c #DADADA",
"^.	c #9C9C9C",
"/.	c #C0C0C0",
"(.	c #C7C7C7",
"_.	c #DFDFDF",
":.	c #848484",
"<.	c #666666",
"[.	c #8F8F8F",
"                                              ",
"                                              ",
"                                              ",
"                                              ",
"      . + @ # # # # # # # # # # # # # $ % & . ",
"    * + = - ; ; ; ; ; ; ; ; ; ; ; ; ; > , ' ) ",
"  ' ! ~ { * ] ] ] ] ] ] ] ] ] ] ] ] ] ^ / ( _ ",
"  . ' : < ] ] ] ] ] ] ] ] ] ] ] ] ] ] [ } & ) ",
"| [ 1 2 ( ] ] ] ] ] ] ] ] ] ] ] ] ] ] ^ 3 ] ' ",
"& 4 5 6 ] ] ] ] ] ] ] ] ] ] ] ] ] ] ] ^ 7 ] 8 ",
"9 7 : ( ] ] ] ] ] ] ] ] ] ] ] ] ] ] ] ! 0 a 8 ",
"b c ( ] ] ] ] ] ] ] ] ] ] ] ] ] ] ] ] ! d e   ",
"f g ] ] ] ] h [ [ [ [ [ [ [ [ [ [ [ [ i j k   ",
"l ] ] ] ] ] { m n o o o o o o o o o o p q r   ",
"s ] ] ] ] ] k 2 t u g g g g g g g g g b * v   ",
"s ] ] ] ] ] w k e   x 1 1 1 1 1 1 1 1 y z A   ",
"s ] ] ] ] ] ] B C z 6 8 D                     ",
"s ] ] ] ] ] ] ' - c E i F & .                 ",
"s ] ] ] ] ] ] ] ] | p : G ] H                 ",
"s ] ] ] ] ] ] ] ] ] I J p K L 6 M             ",
"N . ] ] ] ] ] ] ] ] ] O P Q - | F R 6         ",
"{ S T & ] ] ] ] ] ] ] ] ] ] 1 : 1 E & . &     ",
"U g d 1 V ] ] ] ] ] ] ] ] ] ] ' C - W 8 [ X   ",
"I h Y Z l V ] ] ] ] ] ] ] ] ] ] ` A j u  .+   ",
"  O ] X I ..N Y ) ] ] ] ] ] ] ] ] ] h +.x . h ",
"      ' ( . F j d ~ ) ] ] ] ] ] ] ] ] 6 S h ^ ",
"        ) . = Y S @.#.> ] ] ] ] ] ] ] [ : ` ^ ",
"            H + I * $.%.t ] ] ] ] ] ] [ $ ` ! ",
"                & ] L i &.Z ] ] ] ] ] [ / ) M ",
"*.$ $ $ $ $ $ $ $ $ $ 6 =.-.] ] ] ] ] [ / ( M ",
";.>.>.>.>.>.>.>.>.>.>.C #.,.] ] ] ] ] [ #.( _ ",
"@  .+ + + + + + + + + + A U ] ] ] ] ] [ 7 . h ",
"5 ] ] ] ] ] ] ] ] ] ] ] ] ] ] ] ] ] ] [ '.' h ",
"5 ] ] ] ] ] ] ] ] ] ] ] ] ] ] ] ] ] ] L u O ( ",
").] ] ] ] ] ] ] ] ] ] ] ] ] ] ] ] ] R !.E * ( ",
"p ] ] ] ] ] ] ] ] ] ] ] ] ] ] ] ] ~./ V G G   ",
"{.] ] ] ] ] ] ] ] ] ] ] ] ] ] O ].^./.(.t     ",
"0 ] ] ] ] ] ] ] ] ] ] ] ] ] ] _.:.W u         ",
"<.(.Z Z Z Z Z Z Z Z Z Z Z Z Z [._.= K         ",
"~., , , , , , , , , , , , , V  .] ]           ",
"M [ [ [ [ [ [ [ [ [ [ [ [ [ ! O O O           ",
"                                              ",
"                                              ",
"                                              ",
"                                              ",
"                                              ",
"                                              ",
"                                              ",
"                                              "};
