/* XPM */
static const char * seven[] = {
"21 45 118 2",
"  	c #000000",
". 	c #F0F0F0",
"+ 	c #ACACAC",
"@ 	c #A2A2A2",
"# 	c #B6B6B6",
"$ 	c #E7E7E7",
"% 	c #E5E5E5",
"& 	c #F1F1F1",
"* 	c #ABABAB",
"= 	c #9E9E9E",
"- 	c #B8B8B8",
"; 	c #E8E8E8",
"> 	c #E6E6E6",
", 	c #E4E4E4",
"' 	c #BBBBBB",
") 	c #F8F8F8",
"! 	c #F7F7F7",
"~ 	c #F5F5F5",
"{ 	c #6C6C6C",
"] 	c #BEBEBE",
"^ 	c #FFFFFF",
"/ 	c #FDFDFD",
"( 	c #5D5D5D",
"_ 	c #B5B5B5",
": 	c #B2B2B2",
"< 	c #C0C0C0",
"[ 	c #5B5B5B",
"} 	c #B0B0B0",
"| 	c #ADADAD",
"1 	c #EAEAEA",
"2 	c #C3C3C3",
"3 	c #585858",
"4 	c #A8A8A8",
"5 	c #E1E1E1",
"6 	c #C6C6C6",
"7 	c #565656",
"8 	c #A7A7A7",
"9 	c #A3A3A3",
"0 	c #686868",
"a 	c #CACACA",
"b 	c #545454",
"c 	c #9F9F9F",
"d 	c #939393",
"e 	c #CDCDCD",
"f 	c #F6F6F6",
"g 	c #F3F3F3",
"h 	c #FCFCFC",
"i 	c #525252",
"j 	c #9C9C9C",
"k 	c #9A9A9A",
"l 	c #DFDFDF",
"m 	c #A9A9A9",
"n 	c #959595",
"o 	c #E9E9E9",
"p 	c #555555",
"q 	c #A0A0A0",
"r 	c #DCDCDC",
"s 	c #7F7F7F",
"t 	c #7C7C7C",
"u 	c #DDDDDD",
"v 	c #CECECE",
"w 	c #828282",
"x 	c #FEFEFE",
"y 	c #F9F9F9",
"z 	c #989898",
"A 	c #E2E2E2",
"B 	c #7D7D7D",
"C 	c #EFEFEF",
"D 	c #909090",
"E 	c #A6A6A6",
"F 	c #D2D2D2",
"G 	c #535353",
"H 	c #EBEBEB",
"I 	c #BDBDBD",
"J 	c #CBCBCB",
"K 	c #8A8A8A",
"L 	c #8D8D8D",
"M 	c #727272",
"N 	c #CFCFCF",
"O 	c #DBDBDB",
"P 	c #EDEDED",
"Q 	c #929292",
"R 	c #C2C2C2",
"S 	c #8B8B8B",
"T 	c #FBFBFB",
"U 	c #787878",
"V 	c #C1C1C1",
"W 	c #D7D7D7",
"X 	c #E0E0E0",
"Y 	c #E3E3E3",
"Z 	c #6E6E6E",
"` 	c #BFBFBF",
" .	c #EEEEEE",
"..	c #8E8E8E",
"+.	c #FAFAFA",
"@.	c #A4A4A4",
"#.	c #F4F4F4",
"$.	c #C8C8C8",
"%.	c #898989",
"&.	c #ECECEC",
"*.	c #DEDEDE",
"=.	c #888888",
"-.	c #AFAFAF",
";.	c #808080",
">.	c #717171",
",.	c #D6D6D6",
"'.	c #676767",
").	c #F2F2F2",
"!.	c #BABABA",
"~.	c #B7B7B7",
"{.	c #505050",
"].	c #C9C9C9",
"^.	c #B4B4B4",
"/.	c #7A7A7A",
"(.	c #818181",
"_.	c #767676",
":.	c #A5A5A5",
"<.	c #696969",
"                                          ",
"                                          ",
"                                          ",
". + @ @ @ @ @ @ @ @ @ @ @ @ @ @ @ @ # $ % ",
"& * = = = = = = = = = = = = = = = = - ; > ",
", ' ) ! ! ! ! ! ! ! ! ! ! ! ! ! ! ~ { ] ' ",
"> ] ^ ^ ^ ^ ^ ^ ^ ^ ^ ^ ^ ^ ^ ^ ^ / ( _ : ",
"; < ^ ^ ^ ^ ^ ^ ^ ^ ^ ^ ^ ^ ^ ^ ^ / [ } | ",
"1 2 ^ ^ ^ ^ ^ ^ ^ ^ ^ ^ ^ ^ ^ ^ ^ / 3 * 4 ",
"5 6 ^ ^ ^ ^ ^ ^ ^ ^ ^ ^ ^ ^ ^ ^ ^ / 7 8 9 ",
"0 a ^ ^ ^ ^ ^ ^ ^ ^ ^ ^ ^ ^ ^ ^ ^ / b @ c ",
"d e f f f f f f f f g h ^ ^ ^ ^ ^ / i j k ",
"l 6 m m m m m m m _ n o ^ ^ ^ ^ ^ / p 9 q ",
"r 6 | | | | | | * # s ; ^ ^ ^ ^ ^ h t % 5 ",
"              ! u v ' ^ ^ ^ ^ ^ ^ w - ^ x ",
"              y ~ z A ^ ^ ^ ^ ^ 5 B C f x ",
"            y   a w ^ ^ ^ ^ ^ ^ - - y ^   ",
"            ~ ~ D E ^ ^ ^ ^ ^ ; 3 , y     ",
"            ^ F G ^ ^ ^ ^ ^ ^ H + > y     ",
"            % m u ^ ^ ^ ^ ^ / B I ^       ",
"          & J K C ^ ^ ^ ^ ^ 5 L ~ C       ",
"        g M - ' ^ ^ ^ ^ ^ ^ s N O C       ",
"        C P Q h ^ ^ ^ ^ ^ R S y T         ",
"      / ^ : U ^ ^ ^ ^ ^ ^ V W J /         ",
"      > , t X ^ ^ ^ ^ ^ C E Y x           ",
"    x h J Z / ^ ^ ^ ^ ^ X ` y             ",
"    ^  ...1 ^ ^ ^ ^ ^ ^ M O >             ",
"    . r | +.^ ^ ^ ^ ^ 8 @.^ #.            ",
"  ! C c $.^ ^ ^ ^ ^ ! %.o &.              ",
"+.o *.=.^ ^ ^ ^ ^ ^ ' -.   .              ",
"y / = ;.^ ^ ^ ^ ^ P >.$ )                 ",
"^ ,.'.h ^ ^ ^ ^ ^ F 8 Y /                 ",
").!.~.x ^ ^ ^ ^ / {.].^                   ",
"^./.o ^ ^ ^ ^ ^ y D ! g                   ",
"].] ^ ^ ^ ^ ^ ^ (.$.v y                   ",
">._.:.:.:.:.:.E d P &                     ",
"; % % % % % % % ).#.<.                    ",
").. . . . . . . y T                       ",
"                                          ",
"                                          ",
"                                          ",
"                                          ",
"                                          ",
"                                          ",
"                                          "};
