/* XPM */
static const char * six[] = {
"24 45 118 2",
"  	c #000000",
". 	c #F1F1F1",
"+ 	c #F3F3F3",
"@ 	c #C0C0C0",
"# 	c #A2A2A2",
"$ 	c #D0D0D0",
"% 	c #D1D1D1",
"& 	c #F6F6F6",
"* 	c #C2C2C2",
"= 	c #9E9E9E",
"- 	c #E7E7E7",
"; 	c #FEFEFE",
"> 	c #F4F4F4",
", 	c #F0F0F0",
"' 	c #C3C3C3",
") 	c #6D6D6D",
"! 	c #F5F5F5",
"~ 	c #F7F7F7",
"{ 	c #AAAAAA",
"] 	c #FFFFFF",
"^ 	c #F8F8F8",
"/ 	c #CACACA",
"( 	c #7A7A7A",
"_ 	c #FDFDFD",
": 	c #A4A4A4",
"< 	c #FBFBFB",
"[ 	c #C1C1C1",
"} 	c #757575",
"| 	c #EEEEEE",
"1 	c #A1A1A1",
"2 	c #FCFCFC",
"3 	c #C7C7C7",
"4 	c #6F6F6F",
"5 	c #A0A0A0",
"6 	c #858585",
"7 	c #7F7F7F",
"8 	c #9C9C9C",
"9 	c #FAFAFA",
"0 	c #818181",
"a 	c #EFEFEF",
"b 	c #9B9B9B",
"c 	c #808080",
"d 	c #E8E8E8",
"e 	c #515151",
"f 	c #A8A8A8",
"g 	c #A9A9A9",
"h 	c #969696",
"i 	c #E5E5E5",
"j 	c #DBDBDB",
"k 	c #B7B7B7",
"l 	c #BABABA",
"m 	c #E1E1E1",
"n 	c #898989",
"o 	c #BEBEBE",
"p 	c #B8B8B8",
"q 	c #E4E4E4",
"r 	c #7E7E7E",
"s 	c #B4B4B4",
"t 	c #5A5A5A",
"u 	c #5D5D5D",
"v 	c #636363",
"w 	c #E0E0E0",
"x 	c #888888",
"y 	c #EAEAEA",
"z 	c #CECECE",
"A 	c #909090",
"B 	c #ECECEC",
"C 	c #D3D3D3",
"D 	c #8E8E8E",
"E 	c #DEDEDE",
"F 	c #7D7D7D",
"G 	c #DFDFDF",
"H 	c #929292",
"I 	c #BFBFBF",
"J 	c #D4D4D4",
"K 	c #A6A6A6",
"L 	c #7C7C7C",
"M 	c #8C8C8C",
"N 	c #656565",
"O 	c #828282",
"P 	c #383838",
"Q 	c #8A8A8A",
"R 	c #878787",
"S 	c #E9E9E9",
"T 	c #DADADA",
"U 	c #6E6E6E",
"V 	c #F2F2F2",
"W 	c #7B7B7B",
"X 	c #EBEBEB",
"Y 	c #595959",
"Z 	c #676767",
"` 	c #E6E6E6",
" .	c #868686",
"..	c #5F5F5F",
"+.	c #D9D9D9",
"@.	c #8B8B8B",
"#.	c #848484",
"$.	c #B2B2B2",
"%.	c #8F8F8F",
"&.	c #737373",
"*.	c #CCCCCC",
"=.	c #919191",
"-.	c #696969",
";.	c #EDEDED",
">.	c #707070",
",.	c #ADADAD",
"'.	c #D5D5D5",
").	c #CDCDCD",
"!.	c #B6B6B6",
"~.	c #E2E2E2",
"{.	c #949494",
"].	c #F9F9F9",
"^.	c #D2D2D2",
"/.	c #ABABAB",
"(.	c #D7D7D7",
"_.	c #DCDCDC",
":.	c #A7A7A7",
"<.	c #959595",
"                                                ",
"                                                ",
"                                                ",
"      . + @ # # # # # # # # # # # # # # # $ %   ",
"      + & * = = = = = = = = = = = = = = = % - ; ",
"    > , ' ) ! ~ ~ ~ ~ ~ ~ ~ ~ ~ ~ ~ ~ ~ & { ] ; ",
"& ^ ~ / ( . ] ] ] ] ] ] ] ] ] ] ] ] ] ] _ : ] _ ",
"~ < [ } | ] ] ] ] ] ] ] ] ] ] ] ] ] ] ] _ 1 ] 2 ",
"+ 3 4 ~ ] ] ] ] ] ] ] ] ] ] ] ] ] ] ] ] _ 5 ] 2 ",
"/ 6 + ] ] ] ] ] ] ] ] ] ] ] ] ] ] ] ] ] _ = ] < ",
"7 . ] ] ] ] ] ] ] ] ] ] ] ] ] ] ] ] ] ] _ 8 ; 9 ",
"0 ] ] ] ] ] 2 a a a a a a a a a a a a a | b ; 9 ",
"c ] ] ] ] ] d e : f f f f f f f f f f f g / ; 9 ",
"c ] ] ] ] ] d h i ! > > > > > > > > > > ! 9 9 9 ",
"7 ] ] ] ] ] d = j k k k k k k l m ^             ",
"7 ] ] ] ] ] d n o l l l l l l p q < <           ",
"r ] ] ] ] ] 2 s t u u u u u v w x y < 2         ",
"r ] ] ] ] ] ] ] ; ; ; ; ; ; ; ] z A B ] ]       ",
"r ] ] ] ] ] ] ] ] ] ] ] ] ] ] ] ] C D E $       ",
"F ] ] ] ] ] ] ] ] ] ] ] ] ] ] ] ] ] G H I 3     ",
"F ] ] ] ] ] ] ] ] ] ] ] ] ] ] ] ] ] ] J K $ - ~ ",
"F ] ] ] ] ] ] ] ] ] ] ] ] ] ] ] ] ] ] ] j { 2 ~ ",
"L ] ] ] ] ] _ ! & & & & & & & ] ] ] ] ] _ M ~ + ",
"L ] ] ] ] ] d N A A A A A O P _ ] ] ] ] _ Q ~ + ",
"L ] ] ] ] ] y R y d d d S T U _ ] ] ] ] _ x & V ",
"W ] ] ] ] ] X Y Z       ` y F _ ] ] ] ] _  .! . ",
"W ] ] ] ] ] B ..+.B B B a 2 @._ ] ] ] ] _ #.> , ",
"W ] ] ] ] ] B $.B X X X X . %._ ] ] ] ] _ O + a ",
"W ] ] ] ] ] B &.F F F F F F ( _ ] ] ] ] _ O + a ",
"6 q ] ] ] ] ] ] ] ] ] ] ] ] ] ] ] ] ] ] *.=.^ . ",
"T -.;.] ] ] ] ] ] ] ] ] ] ] ] ] ] ] ] / >.d X . ",
"- ,.'.] ] ] ] ] ] ] ] ] ] ] ] ] ] ] < s ).S ~   ",
"` X D ' ] ] ] ] ] ] ] ] ] ] ] ] ] ; f !.y ~.    ",
"; ] i {.] ] ] ] ] ] ] ] ] ] ] ] ] ].D | ]       ",
"  . ^.* /.9 ] ] ] ] ] ] ] ] ] ] . @.(._.V       ",
"    (.i !.:.$.$.$.$.$.$.$.$.$.$.<.'.; +.        ",
"      < & , a a a a a a a a a a V ~ <           ",
"      _ _ 9 ].].].].].].].].].].< _             ",
"                                                ",
"                                                ",
"                                                ",
"                                                ",
"                                                ",
"                                                ",
"                                                "};
