/* XPM */
static const char * T[] = {
"22 49 113 2",
"  	c #000000",
". 	c #DBDBDB",
"+ 	c #A5A5A5",
"@ 	c #A0A0A0",
"# 	c #A2A2A2",
"$ 	c #CACACA",
"% 	c #F8F8F8",
"& 	c #F5F5F5",
"* 	c #C8C8C8",
"= 	c #A7A7A7",
"- 	c #C9C9C9",
"; 	c #C3C3C3",
"> 	c #B7B7B7",
", 	c #F4F4F4",
"' 	c #F0F0F0",
") 	c #979797",
"! 	c #ABABAB",
"~ 	c #FFFFFF",
"{ 	c #8D8D8D",
"] 	c #EEEEEE",
"^ 	c #EAEAEA",
"/ 	c #8F8F8F",
"( 	c #F3F3F3",
"_ 	c #929292",
": 	c #F2F2F2",
"< 	c #8A8A8A",
"[ 	c #B9B9B9",
"} 	c #959595",
"| 	c #EFEFEF",
"1 	c #A3A3A3",
"2 	c #999999",
"3 	c #F6F6F6",
"4 	c #F1F1F1",
"5 	c #9A9A9A",
"6 	c #9C9C9C",
"7 	c #A1A1A1",
"8 	c #FAFAFA",
"9 	c #8C8C8C",
"0 	c #FEFEFE",
"a 	c #E7E7E7",
"b 	c #A6A6A6",
"c 	c #FCFCFC",
"d 	c #F7F7F7",
"e 	c #BFBFBF",
"f 	c #AAAAAA",
"g 	c #9B9B9B",
"h 	c #424242",
"i 	c #1A1A1A",
"j 	c #646464",
"k 	c #686868",
"l 	c #6E6E6E",
"m 	c #C1C1C1",
"n 	c #FBFBFB",
"o 	c #E1E1E1",
"p 	c #747474",
"q 	c #AFAFAF",
"r 	c #B6B6B6",
"s 	c #E5E5E5",
"t 	c #D2D2D2",
"u 	c #707070",
"v 	c #818181",
"w 	c #B2B2B2",
"x 	c #E3E3E3",
"y 	c #D0D0D0",
"z 	c #D4D4D4",
"A 	c #7B7B7B",
"B 	c #989898",
"C 	c #D1D1D1",
"D 	c #D5D5D5",
"E 	c #717171",
"F 	c #777777",
"G 	c #939393",
"H 	c #737373",
"I 	c #8E8E8E",
"J 	c #D3D3D3",
"K 	c #D7D7D7",
"L 	c #727272",
"M 	c #6D6D6D",
"N 	c #888888",
"O 	c #D8D8D8",
"P 	c #696969",
"Q 	c #838383",
"R 	c #636363",
"S 	c #7E7E7E",
"T 	c #D6D6D6",
"U 	c #D9D9D9",
"V 	c #E8E8E8",
"W 	c #797979",
"X 	c #B1B1B1",
"Y 	c #757575",
"Z 	c #ADADAD",
"` 	c #DCDCDC",
" .	c #A9A9A9",
"..	c #5E5E5E",
"+.	c #DDDDDD",
"@.	c #767676",
"#.	c #A8A8A8",
"$.	c #595959",
"%.	c #FDFDFD",
"&.	c #A4A4A4",
"*.	c #DADADA",
"=.	c #DEDEDE",
"-.	c #EDEDED",
";.	c #F9F9F9",
">.	c #E4E4E4",
",.	c #DFDFDF",
"'.	c #787878",
").	c #9F9F9F",
"!.	c #C0C0C0",
"~.	c #C6C6C6",
"{.	c #C7C7C7",
"].	c #7D7D7D",
"^.	c #CDCDCD",
"                                            ",
"                                            ",
"                                            ",
"                                            ",
". + @ @ @ @ @ @ @ @ @ @ @ @ @ @ @ @ # $ % & ",
"* = - - - - - - - - - - - - - - - - ; > , ' ",
") ! ~ ~ ~ ~ ~ ~ ~ ~ ~ ~ ~ ~ ~ ~ ~ ~ , { ] ^ ",
"/ ! ~ ~ ~ ~ ~ ~ ~ ~ ~ ~ ~ ~ ~ ~ ~ ~ ( _ : ] ",
"< [ ~ ~ ~ ~ ~ ~ ~ ~ ~ ~ ~ ~ ~ ~ ~ ~ ( } , | ",
"1 ~ ~ ~ ~ ~ ~ ~ ~ ~ ~ ~ ~ ~ ~ ~ ~ ~ ( 2 3 4 ",
"5 ~ ~ ~ ~ ~ ~ ~ ~ ~ ~ ~ ~ ~ ~ ~ ~ ~ ( 6 % ( ",
"_ ~ ~ ~ ~ ~ ~ ~ ~ ~ ~ ~ ~ ~ ~ ~ ~ ~ , 7 8 3 ",
"9 & ( ( ( ( : 0 ~ ~ ~ ~ 8 4 4 4 4 4 a b c d ",
"e f f f ! g h % ~ ~ ~ ~ - i j k k k l m 0 n ",
"~ ~ ~ ~ ~ o l % ~ ~ ~ ~ - p q r r r [ s ~ 0 ",
"c n n n s t u % ~ ~ ~ ~ - v 6 w w w r x ~ 0 ",
"        y z u % ~ ~ ~ ~ - A B               ",
"        C D E % ~ ~ ~ ~ - F G               ",
"        t D E % ~ ~ ~ ~ - H I               ",
"        J K L % ~ ~ ~ ~ - M N               ",
"        z O H % ~ ~ ~ ~ - P Q               ",
"        z O H % ~ ~ ~ ~ - R S               ",
"        T U p % ~ ~ ~ ~ V _ W               ",
"        K . p % ~ ~ ~ ~ ~ X L               ",
"        K . p % ~ ~ ~ ~ ~ q l               ",
"        K . Y % ~ ~ ~ ~ ~ Z k               ",
"        O ` Y % ~ ~ ~ ~ ~ ! R               ",
"        O ` Y % ~ ~ ~ ~ ~  ...              ",
"        U +.@.% ~ ~ ~ ~ ~ #.$.              ",
"        U +.@.% ~ ~ ~ ~ ~ b D %.            ",
"        U +.@.% ~ ~ ~ ~ ~ &.' c             ",
"        *.=.@.% ~ ~ ~ ~ ~ 1 -.;.            ",
"        *.=.F % ~ ~ ~ ~ ~ # ^ 3             ",
"        *.=.F % ~ ~ ~ ~ ~ 7 a (             ",
"        *.=.F % ~ ~ ~ ~ ~ 7 >.'             ",
"        . ,.'.% ~ ~ ~ ~ ~ @ o -.            ",
"        . ,.'.% ~ ~ ~ ~ ~ ).=.^             ",
"        . ,.'.;.~ ~ ~ ~ ~ ).` a             ",
"        +.o '.!.~.~.~.~.{.].*.s             ",
"        , 3 K * * * * * * ^.: 3             ",
"        %.0 & 4 4 4 4 4 4 ( c %.            ",
"                                            ",
"                                            ",
"                                            ",
"                                            ",
"                                            ",
"                                            ",
"                                            ",
"                                            "};
