/* XPM */
static const char * three[] = {
"24 45 113 2",
"  	c #000000",
". 	c #D9D9D9",
"+ 	c #A4A4A4",
"@ 	c #A2A2A2",
"# 	c #A5A5A5",
"$ 	c #DADADA",
"% 	c #F8F8F8",
"& 	c #A3A3A3",
"* 	c #9E9E9E",
"= 	c #DCDCDC",
"- 	c #FAFAFA",
"; 	c #B8B8B8",
"> 	c #F7F7F7",
", 	c #E4E4E4",
"' 	c #787878",
") 	c #E3E3E3",
"! 	c #9B9B9B",
"~ 	c #BBBBBB",
"{ 	c #FFFFFF",
"] 	c #D5D5D5",
"^ 	c #7F7F7F",
"/ 	c #FDFDFD",
"( 	c #989898",
"_ 	c #7A7A7A",
": 	c #E0E0E0",
"< 	c #FEFEFE",
"[ 	c #959595",
"} 	c #838383",
"| 	c #E9E9E9",
"1 	c #515151",
"2 	c #929292",
"3 	c #8C8C8C",
"4 	c #BABABA",
"5 	c #BDBDBD",
"6 	c #909090",
"7 	c #969696",
"8 	c #939393",
"9 	c #8F8F8F",
"0 	c #AFAFAF",
"a 	c #F0F0F0",
"b 	c #EFEFEF",
"c 	c #888888",
"d 	c #CDCDCD",
"e 	c #A9A9A9",
"f 	c #A8A8A8",
"g 	c #999999",
"h 	c #3E3E3E",
"i 	c #F4F4F4",
"j 	c #F6F6F6",
"k 	c #D7D7D7",
"l 	c #686868",
"m 	c #9C9C9C",
"n 	c #D1D1D1",
"o 	c #6A6A6A",
"p 	c #7C7C7C",
"q 	c #A6A6A6",
"r 	c #F3F3F3",
"s 	c #DDDDDD",
"t 	c #AEAEAE",
"u 	c #B0B0B0",
"v 	c #F1F1F1",
"w 	c #EDEDED",
"x 	c #C9C9C9",
"y 	c #5D5D5D",
"z 	c #7D7D7D",
"A 	c #AAAAAA",
"B 	c #878787",
"C 	c #8A8A8A",
"D 	c #808080",
"E 	c #CBCBCB",
"F 	c #B6B6B6",
"G 	c #DFDFDF",
"H 	c #E2E2E2",
"I 	c #B1B1B1",
"J 	c #EBEBEB",
"K 	c #E7E7E7",
"L 	c #E1E1E1",
"M 	c #8E8E8E",
"N 	c #ACACAC",
"O 	c #E8E8E8",
"P 	c #EEEEEE",
"Q 	c #949494",
"R 	c #ECECEC",
"S 	c #FCFCFC",
"T 	c #D8D8D8",
"U 	c #D4D4D4",
"V 	c #818181",
"W 	c #505050",
"X 	c #545454",
"Y 	c #555555",
"Z 	c #484848",
"` 	c #EAEAEA",
" .	c #828282",
"..	c #E6E6E6",
"+.	c #848484",
"@.	c #868686",
"#.	c #898989",
"$.	c #F5F5F5",
"%.	c #F9F9F9",
"&.	c #B7B7B7",
"*.	c #8B8B8B",
"=.	c #BCBCBC",
"-.	c #FBFBFB",
";.	c #9A9A9A",
">.	c #D2D2D2",
",.	c #BEBEBE",
"'.	c #C8C8C8",
").	c #6C6C6C",
"!.	c #DBDBDB",
"~.	c #CCCCCC",
"{.	c #CECECE",
"].	c #E5E5E5",
"^.	c #F2F2F2",
"                                                ",
"                                                ",
"                                                ",
". + @ @ @ @ @ @ @ @ @ @ @ @ @ # $ %             ",
"$ & * * * * * * * * * * * * * @ = - %           ",
"+ ; % > > > > > > > > > > > > , ' ) % -         ",
"! ~ { { { { { { { { { { { { { { ] ^ ) { /       ",
"( ~ { { { { { { { { { { { { { { { = _ : < /     ",
"[ ~ { { { { { { { { { { { { { { { { , } | > 1   ",
"2 ~ { { { { { { { { { { { { { { { { { $ 3 4 5   ",
"6 ~ { { { { { { { { { { { { { { { { { { ) 7 8   ",
"9 0 a b b b b b b b b b b b a { { { { { / 3 c   ",
"d e f f f f f f f f f f e g h / { { { { { 7 2   ",
"- i i i i i i i i i i i j k l / { { { { + m m   ",
"                        d n o / { { { { p + q   ",
"    r b s s s s s s s s $ n o / { { { { p t u   ",
"    v w . $ $ $ $ $ $ $ $ x y / { { { { z ; 4   ",
"    A + B c c c c c c c c B C / { { { { D x E   ",
"    m F { { { { { { { { { { { { { { { s ( G H   ",
"    [ I { { { { { { { { { { { { { { J ' K > L   ",
"    M N { { { { { { { { { { { { { { O c k j P   ",
"  <   f { { { { { { { { { { { { { { % ( Q R b   ",
"  < S q { { { { { { { { { { { { { { { S z ] k   ",
"  < S @ T k k k k k k k k U > { { { { { V $ =   ",
"  < S & W X X X X X X X Y Z ` { { { { {  ., ..  ",
"                        o y J { { { { { +.w b   ",
"                        o y J { { { { { @.r j   ",
"< < < < < < < < < < < <   y J { { { { { #.$.%   ",
"H J J J J J J J J J J J K h J { { { { { M > %.  ",
"&.*.=.=.=.=.=.=.=.=.=.=.=.4 i { { { { { [ %.-.  ",
"& ~ { { { { { { { { { { { { { { { { { x u j S   ",
";.~ { { { { { { { { { { { { { { { { >.M ,.'.    ",
"6 ~ { { { { { { { { { { { { { { { { ).!.{       ",
"c ,.{ { { { { { { { { { { { { { < * ~.% v       ",
"A { { { { { { { { { { { { { { - q ,.{.T         ",
"M q # # # # # # # # # # # # # g # v {           ",
"w , ].].].].].].].].].].].].].K a j             ",
"$.b a a a a a a a a a a a a a ^.%.%.            ",
"                                                ",
"                                                ",
"                                                ",
"                                                ",
"                                                ",
"                                                ",
"                                                "};
