/* XPM */
static const char * two[] = {
"21 45 111 2",
"  	c #000000",
". 	c #A8A8A8",
"+ 	c #A2A2A2",
"@ 	c #A9A9A9",
"# 	c #E8E8E8",
"$ 	c #FFFFFF",
"% 	c #9E9E9E",
"& 	c #A6A6A6",
"* 	c #EAEAEA",
"= 	c #868686",
"- 	c #F9F9F9",
"; 	c #F7F7F7",
"> 	c #E6E6E6",
", 	c #AAAAAA",
"' 	c #DDDDDD",
") 	c #F2F2F2",
"! 	c #838383",
"~ 	c #BBBBBB",
"{ 	c #CECECE",
"] 	c #D2D2D2",
"^ 	c #CBCBCB",
"/ 	c #858585",
"( 	c #ECECEC",
"_ 	c #7A7A7A",
": 	c #CDCDCD",
"< 	c #D7D7D7",
"[ 	c #898989",
"} 	c #F4F4F4",
"| 	c #959595",
"1 	c #EDEDED",
"2 	c #FDFDFD",
"3 	c #8C8C8C",
"4 	c #FCFCFC",
"5 	c #949494",
"6 	c #EBEBEB",
"7 	c #E7E7E7",
"8 	c #919191",
"9 	c #F8F8F8",
"0 	c #A1A1A1",
"a 	c #E0E0E0",
"b 	c #F1F1F1",
"c 	c #EFEFEF",
"d 	c #FBFBFB",
"e 	c #AFAFAF",
"f 	c #989898",
"g 	c #FAFAFA",
"h 	c #A0A0A0",
"i 	c #767676",
"j 	c #777777",
"k 	c #787878",
"l 	c #595959",
"m 	c #E1E1E1",
"n 	c #828282",
"o 	c #D0D0D0",
"p 	c #B4B4B4",
"q 	c #B5B5B5",
"r 	c #C9C9C9",
"s 	c #CACACA",
"t 	c #E5E5E5",
"u 	c #EEEEEE",
"v 	c #BFBFBF",
"w 	c #E3E3E3",
"x 	c #E2E2E2",
"y 	c #AEAEAE",
"z 	c #878787",
"A 	c #FEFEFE",
"B 	c #D5D5D5",
"C 	c #7D7D7D",
"D 	c #F3F3F3",
"E 	c #E9E9E9",
"F 	c #8E8E8E",
"G 	c #DADADA",
"H 	c #B9B9B9",
"I 	c #DCDCDC",
"J 	c #848484",
"K 	c #ACACAC",
"L 	c #F6F6F6",
"M 	c #D8D8D8",
"N 	c #979797",
"O 	c #555555",
"P 	c #B0B0B0",
"Q 	c #585858",
"R 	c #E4E4E4",
"S 	c #A3A3A3",
"T 	c #D9D9D9",
"U 	c #747474",
"V 	c #C8C8C8",
"W 	c #969696",
"X 	c #808080",
"Y 	c #4E4E4E",
"Z 	c #DBDBDB",
"` 	c #9B9B9B",
" .	c #D6D6D6",
"..	c #F5F5F5",
"+.	c #373737",
"@.	c #7F7F7F",
"#.	c #7B7B7B",
"$.	c #CCCCCC",
"%.	c #D3D3D3",
"&.	c #A5A5A5",
"*.	c #C3C3C3",
"=.	c #DFDFDF",
"-.	c #C1C1C1",
";.	c #C6C6C6",
">.	c #BDBDBD",
",.	c #BCBCBC",
"'.	c #8F8F8F",
").	c #8B8B8B",
"!.	c #818181",
"~.	c #575757",
"{.	c #F0F0F0",
"                                          ",
"                                          ",
"                                          ",
". + + + + + + + + + + + + @ # $           ",
"@ % % % % % % % % % % % % & * $           ",
"= - ; ; ; ; ; ; ; ; ; ; ; > , ' )         ",
"! $ $ $ $ $ $ $ $ $ $ $ $ $ ~ { ] ^       ",
"/ $ $ $ $ $ $ $ $ $ $ $ $ $ ( _ : <       ",
"[ $ $ $ $ $ $ $ $ $ $ $ $ $ $ } | 1 2     ",
"3 $ $ $ $ $ $ $ $ $ $ $ $ $ $ 4 5 ^ 6 7   ",
"8 $ $ $ $ $ $ $ $ $ $ $ $ $ $ $ 9 0 a * 4 ",
"8 b c c c c c c c c c c d $ $ $ $ e f 2 g ",
"h i j j j j j j j j k l m $ $ $ $ $ n } b ",
"o p q q q q q q q q r s t $ $ $ $ $ n } b ",
"                $ t u v w $ $ $ $ $ n } b ",
"              # $ x y z b $ $ $ $ $ n } b ",
"          4 A < B C t D $ $ $ $ $ $ n } b ",
"      - - } E q F G $ $ $ $ $ $ $ $ n } b ",
"      ) 2 H C ~ $ $ $ $ $ $ $ $ $ $ n } b ",
"  9 } I , J D 2 $ $ $ $ $ $ $ $ g K F - L ",
"$ b M N | 4 $ $ $ $ $ $ $ $ $ I O 8 # c ; ",
"c P Q R $ $ $ $ $ $ $ $ $ D S S T 7 # (   ",
"U V L $ $ $ $ $ $ $ A ; W C s ' - -       ",
"X $ $ $ $ $ $ $ $ $ { Y P R Z b           ",
"X $ $ $ $ $ $ $ 6 W `  ...+.w             ",
"X $ $ $ $ $ g @.#.$.%.L }                 ",
"X $ $ $ $ $ v &.x $ E                     ",
"X $ $ $ $ $ *.=.$.A A A A A A A A A A A   ",
"X $ $ $ $ $ -.s ;.6 6 6 6 6 6 6 6 6 c g 9 ",
"X $ $ $ $ $ x ~ >.,.,.,.,.,.,.,.,.,.'.g ; ",
"X $ $ $ $ $ $ $ $ $ $ $ $ $ $ $ $ $ ).g ; ",
"X $ $ $ $ $ $ $ $ $ $ $ $ $ $ $ $ $ F g ; ",
"!.$ $ $ $ $ $ $ $ $ $ $ $ $ $ $ $ $ '.4 - ",
"!.$ $ $ $ $ $ $ $ $ $ $ $ $ $ $ $ $ 8 2 g ",
"!.$ $ $ $ $ $ $ $ $ $ $ $ $ $ $ $ $ 5 2 g ",
"~.& &.&.&.&.&.&.&.&.&.&.&.&.&.&.&.&.5 $ 4 ",
"> t t t t t t t t t t t t t t t t R 1 $ 4 ",
"b {.{.{.{.{.{.{.{.{.{.{.{.{.{.{.{.c L L   ",
"                                          ",
"                                          ",
"                                          ",
"                                          ",
"                                          ",
"                                          ",
"                                          "};
