/* XPM */
static const char * W[] = {
"39 49 156 2",
"  	c #000000",
". 	c #B5B5B5",
"+ 	c #9F9F9F",
"@ 	c #A0A0A0",
"# 	c #ADADAD",
"$ 	c #EAEAEA",
"% 	c #EBEBEB",
"& 	c #F8F8F8",
"* 	c #F9F9F9",
"= 	c #C1C1C1",
"- 	c #B1B1B1",
"; 	c #F3F3F3",
"> 	c #F7F7F7",
", 	c #E4E4E4",
"' 	c #E6E6E6",
") 	c #B7B7B7",
"! 	c #D3D3D3",
"~ 	c #A7A7A7",
"{ 	c #CBCBCB",
"] 	c #C9C9C9",
"^ 	c #979797",
"/ 	c #D8D8D8",
"( 	c #FEFEFE",
"_ 	c #F1F1F1",
": 	c #AAAAAA",
"< 	c #C8C8C8",
"[ 	c #A4A4A4",
"} 	c #E9E9E9",
"| 	c #EFEFEF",
"1 	c #D0D0D0",
"2 	c #D2D2D2",
"3 	c #9E9E9E",
"4 	c #C6C6C6",
"5 	c #CACACA",
"6 	c #C3C3C3",
"7 	c #BEBEBE",
"8 	c #838383",
"9 	c #FFFFFF",
"0 	c #CFCFCF",
"a 	c #ACACAC",
"b 	c #D9D9D9",
"c 	c #6C6C6C",
"d 	c #888888",
"e 	c #DDDDDD",
"f 	c #BBBBBB",
"g 	c #949494",
"h 	c #444444",
"i 	c #FBFBFB",
"j 	c #E7E7E7",
"k 	c #A5A5A5",
"l 	c #A6A6A6",
"m 	c #969696",
"n 	c #FDFDFD",
"o 	c #FAFAFA",
"p 	c #C2C2C2",
"q 	c #646464",
"r 	c #8C8C8C",
"s 	c #8E8E8E",
"t 	c #FCFCFC",
"u 	c #D7D7D7",
"v 	c #D6D6D6",
"w 	c #A9A9A9",
"x 	c #7C7C7C",
"y 	c #808080",
"z 	c #898989",
"A 	c #F0F0F0",
"B 	c #F4F4F4",
"C 	c #E8E8E8",
"D 	c #D1D1D1",
"E 	c #DEDEDE",
"F 	c #9D9D9D",
"G 	c #F2F2F2",
"H 	c #5D5D5D",
"I 	c #BCBCBC",
"J 	c #CECECE",
"K 	c #AFAFAF",
"L 	c #737373",
"M 	c #E2E2E2",
"N 	c #E1E1E1",
"O 	c #E3E3E3",
"P 	c #A1A1A1",
"Q 	c #848484",
"R 	c #BDBDBD",
"S 	c #F5F5F5",
"T 	c #BFBFBF",
"U 	c #B2B2B2",
"V 	c #DADADA",
"W 	c #F6F6F6",
"X 	c #EDEDED",
"Y 	c #B3B3B3",
"Z 	c #B0B0B0",
"` 	c #727272",
" .	c #8B8B8B",
"..	c #AEAEAE",
"+.	c #C4C4C4",
"@.	c #939393",
"#.	c #DBDBDB",
"$.	c #D4D4D4",
"%.	c #797979",
"&.	c #9C9C9C",
"*.	c #868686",
"=.	c #6D6D6D",
"-.	c #EEEEEE",
";.	c #B6B6B6",
">.	c #909090",
",.	c #515151",
"'.	c #4E4E4E",
").	c #7F7F7F",
"!.	c #606060",
"~.	c #858585",
"{.	c #CCCCCC",
"].	c #D5D5D5",
"^.	c #7E7E7E",
"/.	c #C5C5C5",
"(.	c #626262",
"_.	c #CDCDCD",
":.	c #C7C7C7",
"<.	c #999999",
"[.	c #ECECEC",
"}.	c #B8B8B8",
"|.	c #5B5B5B",
"1.	c #E5E5E5",
"2.	c #DFDFDF",
"3.	c #9A9A9A",
"4.	c #545454",
"5.	c #A3A3A3",
"6.	c #E0E0E0",
"7.	c #818181",
"8.	c #A8A8A8",
"9.	c #757575",
"0.	c #525252",
"a.	c #707070",
"b.	c #989898",
"c.	c #BABABA",
"d.	c #666666",
"e.	c #7D7D7D",
"f.	c #B4B4B4",
"g.	c #8A8A8A",
"h.	c #8D8D8D",
"i.	c #717171",
"j.	c #777777",
"k.	c #ABABAB",
"l.	c #686868",
"m.	c #7B7B7B",
"n.	c #464646",
"o.	c #5F5F5F",
"p.	c #9B9B9B",
"q.	c #575757",
"r.	c #4A4A4A",
"s.	c #A2A2A2",
"t.	c #DCDCDC",
"u.	c #959595",
"v.	c #8F8F8F",
"w.	c #555555",
"x.	c #616161",
"y.	c #919191",
"                                                                              ",
"                                                                              ",
"                                                                              ",
"                                                                              ",
". + @ @ @ @ @ # $ %       & * = @ @ @ @ @ + - ; >       , ' ) @ @ @ @ @ + = ! ",
"~ { ] ] ] ] ] ^ / ' (     _ _ : < ] ] ] ] ] [ } |       1 2 3 4 ] ] ] ] 5 6 7 ",
"8 ! 9 9 9 9 9 0 a 9 (     / b c 9 9 9 9 9 9 d = <     e f g h i 9 9 9 9 j ~ k ",
"~ l 9 9 9 9 9 i m n o     p 6 q 9 9 9 9 9 9 r s 9 n   t 9 ) u ( 9 9 9 9 1 3 5 ",
"v w 9 9 9 9 9 o x % j   ( 9 w y 9 9 9 9 9 9 i z i o   A B # C 9 9 9 9 9 D - E ",
"j F G 9 9 9 9 * H I J 5 n 9 K > 9 9 9 9 9 9 9 L M N   O j F j 9 9 9 9 9 ! 6 _ ",
"P Q 0 9 9 9 9 n R ) 9 n o ( 3 S 9 9 9 9 9 9 9 H T v ( 0 ! r j 9 9 9 9 9 b U n ",
"V # D 9 9 9 9 9 } K W G X G s B 9 9 9 9 9 9 9 M Y 9 ( a Z ` j 9 9 9 9 G y  ...",
"S +.] n 9 9 9 9 j @.#.u 1 $.%.B 9 9 9 9 9 9 9 S 3 ( * &.*.=.$ 9 9 9 9 -.=.. - ",
";.>.,.-.9 9 9 9 ' '.)., { - !.B 9 9 9 9 9 9 9 B ~.' N i Z {.9 9 9 9 9 -.*.V ].",
"5 J ^.-.9 9 9 9 S k 1 9 9 /.. o 9 9 9 9 9 9 9 B (.) $.A _.:.9 9 9 9 9 -.<._ [.",
"-.G F | 9 9 9 9 9 < _._ t :.N 9 9 9 9 9 9 9 9 n _.] 9 u . /.9 9 9 9 9 A ~ * S ",
"i 9 Y j 9 9 9 9 9 /.# J _ }.e 9 9 9 9 9 9 9 9 9 e I S 7 3 /.9 9 9 9 9 j . 9 n ",
"t R Y |.t 9 9 9 9 b F ' 1.: #.9 9 9 9 9 9 9 9 9 #.k 2.' 3.b 9 9 9 9 t 4.5.Z n ",
"  6.M L t 9 9 9 9 9 # A _.g #.9 9 9 9 9 9 9 9 9 #.7.;.G U 9 9 9 9 9 t (.= T   ",
"  i n s t 9 9 9 9 9 &.N 8.9.#.9 9 9 9 9 9 9 9 9 #.0.~.% 5.9 9 9 9 9 t a.e #.  ",
"  ( 9 &.z 9 9 9 9 9 b.c.y d.2.9 9 9 9 9 9 9 9 9 ( U u O 3.9 9 9 9 9 n y > B   ",
"    1 {.e.9 9 9 9 9 I g f.I 9 9 9 9 9 9 9 9 9 9 9 Y f ] b.9 9 9 9 9 ( g.9 (   ",
"    | $ r 9 9 9 9 9 9 g.< ) 9 9 9 9 9 9 9 9 9 9 9 2.Z ~ ^ 9 9 9 9 9 < h.{.(   ",
"    * % 8 4 9 9 9 9 9 i.3 . 9 9 9 9 9 9 9 9 9 9 9 9 [ 7.^ 9 9 9 9 9 j.K Y     ",
"      f : k.9 9 9 9 9 q l.. 9 9 9 9 9 9 9 9 9 9 9 9  .m.* 9 9 9 9 9 x {.1     ",
"      } ].# 9 9 9 9 9 3.n.{.9 9 9 9 9 9 9 9 9 9 9 9 7.o.9 9 9 9 9 9 8 E M     ",
"      o C f 9 9 9 9 9 ( _.9 9 9 9 9 9 +.D 9 9 9 9 9 {.6 9 9 9 9 9 9 s | ;     ",
"      ( e p.N 9 9 9 9 9 9 9 9 9 9 9 9 4.@.9 9 9 9 9 9 9 9 9 9 9 9 9 &.[.i     ",
"        u ~ $.9 9 9 9 9 9 9 9 9 9 9 9 =.%./.9 9 9 9 9 9 9 9 9 9 9 . s b.q.    ",
"        & R T t 9 9 9 9 9 9 9 9 9 9 9 g.k.I 9 9 9 9 9 9 9 9 9 9 9 k.k.I       ",
"        /.r r.A 9 9 9 9 9 9 9 9 9 9 $.s.D T 9 9 9 9 9 9 9 9 9 9 9 k.{ 2.      ",
"        :.{ %.A 9 9 9 9 9 9 9 9 9 9  .f.R {.9 9 9 9 9 9 9 9 9 9 9 ..t._       ",
"        C [.u._ 9 9 9 9 9 9 9 9 9 9 v.5 Y g.1.9 9 9 9 9 9 9 9 9 9 ;.' *       ",
"        o 9 w t.9 9 9 9 9 9 9 9 9 9 g e O 5.N 9 9 9 9 9 9 9 9 9 > f.$ (       ",
"        o 5 K w.n 9 9 9 9 9 9 9 9 9 + | 9 l ' 9 9 9 9 9 9 9 9 9 ! 7.5.(       ",
"          N M a.n 9 9 9 9 9 9 9 9 ].7.' R &.3.* 9 9 9 9 9 9 9 9 $.p.5         ",
"          & * r n 9 9 9 9 9 9 9 9 R z @ 1 $.L > 9 9 9 9 9 9 9 9 ].Y 1.        ",
"          ( 9 # % 9 9 9 9 9 9 9 9 R k.:.| G v.& 9 9 9 9 9 9 9 9 u 7 i         ",
"          ( j 4 x.:.4 4 4 4 4 4 4 y.< 1.( 9 s.p 4 4 4 4 4 4 4 4 K d.R         ",
"            S ; 0 < < < < < < < < { | * n % O { < < < < < < < < 1 E e         ",
"            ( ( B _ _ _ _ _ _ _ _ G t (   i i G _ _ _ _ _ _ _ _ B * *         ",
"                                                                              ",
"                                                                              ",
"                                                                              ",
"                                                                              ",
"                                                                              ",
"                                                                              ",
"                                                                              ",
"                                                                              "};
