/* XPM */
static const char * Y[] = {
"24 49 117 2",
"  	c #000000",
". 	c #B7B7B7",
"+ 	c #9F9F9F",
"@ 	c #A0A0A0",
"# 	c #A3A3A3",
"$ 	c #D9D9D9",
"% 	c #E9E9E9",
"& 	c #FEFEFE",
"* 	c #F1F1F1",
"= 	c #F2F2F2",
"- 	c #BCBCBC",
"; 	c #BABABA",
"> 	c #F7F7F7",
", 	c #ABABAB",
"' 	c #CACACA",
") 	c #C9C9C9",
"! 	c #C4C4C4",
"~ 	c #FFFFFF",
"{ 	c #E8E8E8",
"] 	c #E1E1E1",
"^ 	c #A1A1A1",
"/ 	c #C7C7C7",
"( 	c #B2B2B2",
"_ 	c #F0F0F0",
": 	c #9E9E9E",
"< 	c #D2D2D2",
"[ 	c #FDFDFD",
"} 	c #868686",
"| 	c #F5F5F5",
"1 	c #C5C5C5",
"2 	c #CFCFCF",
"3 	c #8A8A8A",
"4 	c #A7A7A7",
"5 	c #D3D3D3",
"6 	c #A8A8A8",
"7 	c #FCFCFC",
"8 	c #696969",
"9 	c #C3C3C3",
"0 	c #6D6D6D",
"a 	c #F6F6F6",
"b 	c #A6A6A6",
"c 	c #EEEEEE",
"d 	c #D0D0D0",
"e 	c #B9B9B9",
"f 	c #E6E6E6",
"g 	c #FBFBFB",
"h 	c #EBEBEB",
"i 	c #B5B5B5",
"j 	c #FAFAFA",
"k 	c #CCCCCC",
"l 	c #7F7F7F",
"m 	c #ECECEC",
"n 	c #CDCDCD",
"o 	c #838383",
"p 	c #D7D7D7",
"q 	c #8E8E8E",
"r 	c #DDDDDD",
"s 	c #B6B6B6",
"t 	c #F3F3F3",
"u 	c #7C7C7C",
"v 	c #C6C6C6",
"w 	c #979797",
"x 	c #939393",
"y 	c #D1D1D1",
"z 	c #EFEFEF",
"A 	c #797979",
"B 	c #B8B8B8",
"C 	c #BBBBBB",
"D 	c #8F8F8F",
"E 	c #898989",
"F 	c #AAAAAA",
"G 	c #F4F4F4",
"H 	c #E2E2E2",
"I 	c #D5D5D5",
"J 	c #CBCBCB",
"K 	c #EAEAEA",
"L 	c #AFAFAF",
"M 	c #707070",
"N 	c #DBDBDB",
"O 	c #D8D8D8",
"P 	c #555555",
"Q 	c #A4A4A4",
"R 	c #F9F9F9",
"S 	c #E7E7E7",
"T 	c #7B7B7B",
"U 	c #6F6F6F",
"V 	c #D6D6D6",
"W 	c #F8F8F8",
"X 	c #878787",
"Y 	c #828282",
"Z 	c #E5E5E5",
"` 	c #D4D4D4",
" .	c #8B8B8B",
"..	c #9B9B9B",
"+.	c #8C8C8C",
"@.	c #5B5B5B",
"#.	c #B0B0B0",
"$.	c #DFDFDF",
"%.	c #ADADAD",
"&.	c #DCDCDC",
"*.	c #909090",
"=.	c #C1C1C1",
"-.	c #C8C8C8",
";.	c #6C6C6C",
">.	c #B4B4B4",
",.	c #EDEDED",
"'.	c #999999",
").	c #666666",
"!.	c #C0C0C0",
"~.	c #626262",
"{.	c #A9A9A9",
"].	c #5E5E5E",
"^.	c #E3E3E3",
"/.	c #808080",
"(.	c #DADADA",
"_.	c #8D8D8D",
":.	c #818181",
"                                                ",
"                                                ",
"                                                ",
"                                                ",
". + @ @ @ @ @ # $ % &     * = - @ @ @ @ @ @ ; > ",
", ' ) ) ) ) ) ) ! ~ ~   & { ] ^ / ) ) ) ) ( # _ ",
": < ~ ~ ~ ~ ~ [ } | =   & ~ - 1 ~ ~ ~ ~ ~ 2 3 4 ",
"5 6 ~ ~ ~ ~ ~ 7 8 9 0 7 * a b c ~ ~ ~ ~ ~ d e f ",
"# e g ~ ~ ~ ~ ~ h i & j k k l m ~ ~ ~ ~ [ n o ~ ",
"p , 2 ~ ~ ~ ~ ~ m q ] r [ s q t ~ ~ ~ ~ m u ' v ",
"t ( w | ~ ~ ~ ~ > s x v { - y ~ ~ ~ ~ ~ z 4 a = ",
"k ! A m ~ ~ ~ ~ ~ < B h C D 2 ~ ~ ~ ~ 7 E F ~ j ",
"z G ^ H ~ ~ ~ ~ ~ I ^ J K L & ~ ~ ~ ~ 7 M N O   ",
"* s 6 P g ~ ~ ~ ~ ~ . d ) Q ~ ~ ~ ~ ~ r 3 [ R   ",
"  S % T [ ~ ~ ~ ~ ~ b J 4 r ~ ~ ~ ~ ~ U L V R   ",
"  W ~ x + ~ ~ ~ ~ ~ b l X ~ ~ ~ ~ ~ ~ Y ] Z     ",
"    ` d T ~ ~ ~ ~ ~ 7  .3 ~ ~ ~ ~ ~ R ..J m     ",
"    | _ +.h ~ ~ ~ ~ ~ ~ ~ ~ ~ ~ ~ ~ Q . /       ",
"    | @.#.^ ~ ~ ~ ~ ~ ~ ~ ~ ~ ~ ~ ~ L ] =       ",
"      _ $.%.~ ~ ~ ~ ~ ~ ~ ~ ~ ~ ~ &.*.V j       ",
"      a =.E < ~ ~ ~ ~ ~ ~ ~ ~ ~ ~ 2 L N         ",
"        { C y ~ ~ ~ ~ ~ ~ ~ ~ ~ j ; -.[         ",
"        ~ ) 6 a ~ ~ ~ ~ ~ ~ ~ ~ m ;.>.N         ",
"        H p X m ~ ~ ~ ~ ~ ~ ~ ~ ,.'.K f         ",
"        R & #.f ~ ~ ~ ~ ~ ~ ~ 7 ).E ~ ,.        ",
"          - !.~.g ~ ~ ~ ~ ~ ~ g ).' -.          ",
"          * G E & ~ ~ ~ ~ ~ ~ & E G =           ",
"          7 ~ , {.~ ~ ~ ~ ~ ~ 6 # ~ g           ",
"          ].f ^./.~ ~ ~ ~ ~ ~ u V (.].          ",
"            7 W 3 ~ ~ ~ ~ ~ ~ 3 > g             ",
"            7 W  .~ ~ ~ ~ ~ ~ q R [             ",
"            7 W +.~ ~ ~ ~ ~ ~ q R [             ",
"            7 W _.~ ~ ~ ~ ~ ~ q R [             ",
"            7 W _.~ ~ ~ ~ ~ ~ q R [             ",
"            [ R _.~ ~ ~ ~ ~ ~ q R [             ",
"            [ R q ~ ~ ~ ~ ~ ~ q R [             ",
"            [ R D ~ ~ ~ ~ ~ ~ q R [             ",
"            [ R D ~ ~ ~ ~ ~ ~ q R [             ",
"            [ R :./ v v v v / l R [             ",
"            [ R ` / -.-.-.-./ ` R [             ",
"            [ t | _ * * * * _ | t [             ",
"                                                ",
"                                                ",
"                                                ",
"                                                ",
"                                                ",
"                                                ",
"                                                ",
"                                                "};
