/* XPM */
static const char * Z[] = {
"22 49 110 2",
"  	c #000000",
". 	c #CBCBCB",
"+ 	c #9F9F9F",
"@ 	c #A0A0A0",
"# 	c #A2A2A2",
"$ 	c #CFCFCF",
"% 	c #FCFCFC",
"& 	c #F9F9F9",
"* 	c #BFBFBF",
"= 	c #CACACA",
"- 	c #C9C9C9",
"; 	c #C4C4C4",
"> 	c #BCBCBC",
", 	c #F8F8F8",
"' 	c #F5F5F5",
") 	c #929292",
"! 	c #D5D5D5",
"~ 	c #FFFFFF",
"{ 	c #F4F4F4",
"] 	c #909090",
"^ 	c #F1F1F1",
"/ 	c #EDEDED",
"( 	c #8B8B8B",
"_ 	c #AAAAAA",
": 	c #F3F3F3",
"< 	c #ECECEC",
"[ 	c #959595",
"} 	c #8F8F8F",
"| 	c #EFEFEF",
"1 	c #EBEBEB",
"2 	c #9D9D9D",
"3 	c #ABABAB",
"4 	c #8D8D8D",
"5 	c #E7E7E7",
"6 	c #A7A7A7",
"7 	c #8A8A8A",
"8 	c #E3E3E3",
"9 	c #B0B0B0",
"0 	c #868686",
"a 	c #E2E2E2",
"b 	c #DEDEDE",
"c 	c #BEBEBE",
"d 	c #ACACAC",
"e 	c #F7F7F7",
"f 	c #F6F6F6",
"g 	c #848484",
"h 	c #DADADA",
"i 	c #E8E8E8",
"j 	c #B3B3B3",
"k 	c #8E8E8E",
"l 	c #707070",
"m 	c #888888",
"n 	c #DFDFDF",
"o 	c #ADADAD",
"p 	c #C3C3C3",
"q 	c #CDCDCD",
"r 	c #6C6C6C",
"s 	c #CECECE",
"t 	c #B6B6B6",
"u 	c #BBBBBB",
"v 	c #FBFBFB",
"w 	c #D8D8D8",
"x 	c #7C7C7C",
"y 	c #E0E0E0",
"z 	c #7B7B7B",
"A 	c #D1D1D1",
"B 	c #EEEEEE",
"C 	c #A6A6A6",
"D 	c #A3A3A3",
"E 	c #FDFDFD",
"F 	c #F0F0F0",
"G 	c #E9E9E9",
"H 	c #F2F2F2",
"I 	c #A4A4A4",
"J 	c #D3D3D3",
"K 	c #E1E1E1",
"L 	c #FAFAFA",
"M 	c #7F7F7F",
"N 	c #B8B8B8",
"O 	c #D4D4D4",
"P 	c #6A6A6A",
"Q 	c #FEFEFE",
"R 	c #A9A9A9",
"S 	c #B2B2B2",
"T 	c #D9D9D9",
"U 	c #767676",
"V 	c #8C8C8C",
"W 	c #C2C2C2",
"X 	c #C5C5C5",
"Y 	c #898989",
"Z 	c #878787",
"` 	c #BDBDBD",
" .	c #EAEAEA",
"..	c #C1C1C1",
"+.	c #9A9A9A",
"@.	c #676767",
"#.	c #9B9B9B",
"$.	c #CCCCCC",
"%.	c #1B1B1B",
"&.	c #939393",
"*.	c #DBDBDB",
"=.	c #D6D6D6",
"-.	c #979797",
";.	c #949494",
">.	c #919191",
",.	c #818181",
"'.	c #C7C7C7",
").	c #C6C6C6",
"!.	c #C8C8C8",
"~.	c #DCDCDC",
"                                            ",
"                                            ",
"                                            ",
"                                            ",
". + @ @ @ @ @ @ @ @ @ @ @ @ @ @ @ @ # $ % & ",
"* = - - - - - - - - - - - - - - - - ; > , ' ",
") ! ~ ~ ~ ~ ~ ~ ~ ~ ~ ~ ~ ~ ~ ~ ~ ~ { ] ^ / ",
"( _ ~ ~ ~ ~ ~ ~ ~ ~ ~ ~ ~ ~ ~ ~ ~ ~ : ] ^ < ",
"[ _ ~ ~ ~ ~ ~ ~ ~ ~ ~ ~ ~ ~ ~ ~ ~ ~ : } | 1 ",
"2 3 ~ ~ ~ ~ ~ ~ ~ ~ ~ ~ ~ ~ ~ ~ ~ ~ : 4 < 5 ",
"6 3 ~ ~ ~ ~ ~ ~ ~ ~ ~ ~ ~ ~ ~ ~ ~ ~ : 7 5 8 ",
"9 3 ~ ~ ~ ~ ~ ~ ~ ~ ~ ~ ~ ~ ~ ~ ~ ~ : 0 a b ",
"c d & e e e e e e e f { ~ ~ ~ ~ ~ ~ : g b h ",
"i j 3 d d d d d d d k l ~ ~ ~ ~ ~ ~ { m 8 n ",
"5 j o o o o o o p q r s ~ ~ ~ ~ ~ ~ t u v e ",
"              ^ f 9 w ~ ~ ~ ~ ~ ~ 3 x | ~ ~ ",
"              y 9 z / ~ ~ ~ ~ ~ v ( A ~ ,   ",
"            % B C = ~ ~ ~ ~ ~ ~ > D , E     ",
"          F e ! z G ~ ~ ~ ~ ~ H I J K E     ",
"        E / | ] / ~ ~ ~ ~ ~ L M > H |       ",
"        L E N M ~ ~ ~ ~ ~ ~ | g a ~         ",
"        ~ O P , ~ ~ ~ ~ ~ ~ l q ~ Q         ",
"      / K R R % ~ ~ ~ ~ ~ ! C ' L Q         ",
"      / A S & ~ ~ ~ ~ ~ T U i ' :           ",
"    & : V W ~ ~ ~ ~ ~ Q X u < E             ",
"  L E c Y ~ ~ ~ ~ ~ ~ / Z = `               ",
" .K b r q ~ ~ ~ ~ ~ ~ > ..~ &               ",
"/ | 2 w ~ ~ ~ ~ ~ ~ R +.f { 2               ",
"% w @.{ ~ ~ ~ ~ ~ % Y a ~ Q                 ",
"K _ K ~ ~ ~ ~ ~ e #.` f v L L L L L v Q E % ",
"$.S ~ ~ ~ ~ ~ ~ ! %.j W W W W W W W ; y ~ % ",
"&._ ~ ~ ~ ~ ~ ~ { *.b b b b b b b b =.9 E & ",
"V _ ~ ~ ~ ~ ~ ~ ~ ~ ~ ~ ~ ~ ~ ~ ~ ~ { I v e ",
"4 _ ~ ~ ~ ~ ~ ~ ~ ~ ~ ~ ~ ~ ~ ~ ~ ~ { + & ' ",
"4 _ ~ ~ ~ ~ ~ ~ ~ ~ ~ ~ ~ ~ ~ ~ ~ ~ : #.e : ",
"k _ ~ ~ ~ ~ ~ ~ ~ ~ ~ ~ ~ ~ ~ ~ ~ ~ : -.' ^ ",
"k _ ~ ~ ~ ~ ~ ~ ~ ~ ~ ~ ~ ~ ~ ~ ~ ~ : ;.: B ",
"k 3 ~ ~ ~ ~ ~ ~ ~ ~ ~ ~ ~ ~ ~ ~ ~ ~ : >.^ < ",
"&.,.'.).).).).).).).).).).).).).).).> k / G ",
"y - !.!.!.!.!.!.!.!.!.!.!.!.!.!.!.!.- ~., f ",
", ^ ^ ^ ^ ^ ^ ^ ^ ^ ^ ^ ^ ^ ^ ^ ^ ^ ^ f Q E ",
"                                            ",
"                                            ",
"                                            ",
"                                            ",
"                                            ",
"                                            ",
"                                            ",
"                                            "};
