/* XPM */
static const char * zero[] = {
"24 45 121 2",
"  	c #000000",
". 	c #FEFEFE",
"+ 	c #D9D9D9",
"@ 	c #A3A3A3",
"# 	c #A2A2A2",
"$ 	c #A1A1A1",
"% 	c #C3C3C3",
"& 	c #F5F5F5",
"* 	c #C0C0C0",
"= 	c #FFFFFF",
"- 	c #DBDBDB",
"; 	c #A0A0A0",
"> 	c #9E9E9E",
", 	c #C5C5C5",
"' 	c #F8F8F8",
") 	c #F3F3F3",
"! 	c #EAEAEA",
"~ 	c #D1D1D1",
"{ 	c #8F8F8F",
"] 	c #F2F2F2",
"^ 	c #F7F7F7",
"/ 	c #F6F6F6",
"( 	c #6E6E6E",
"_ 	c #CACACA",
": 	c #F0F0F0",
"< 	c #F4F4F4",
"[ 	c #B1B1B1",
"} 	c #EFEFEF",
"| 	c #767676",
"1 	c #CFCFCF",
"2 	c #F9F9F9",
"3 	c #E0E0E0",
"4 	c #D7D7D7",
"5 	c #878787",
"6 	c #EBEBEB",
"7 	c #6A6A6A",
"8 	c #C6C6C6",
"9 	c #DDDDDD",
"0 	c #787878",
"a 	c #FAFAFA",
"b 	c #676767",
"c 	c #D0D0D0",
"d 	c #404040",
"e 	c #E1E1E1",
"f 	c #A5A5A5",
"g 	c #E9E9E9",
"h 	c #747474",
"i 	c #D3D3D3",
"j 	c #FCFCFC",
"k 	c #BABABA",
"l 	c #B2B2B2",
"m 	c #FBFBFB",
"n 	c #585858",
"o 	c #898989",
"p 	c #808080",
"q 	c #989898",
"r 	c #777777",
"s 	c #2F2F2F",
"t 	c #E6E6E6",
"u 	c #888888",
"v 	c #F1F1F1",
"w 	c #4D4D4D",
"x 	c #9C9C9C",
"y 	c #B5B5B5",
"z 	c #BEBEBE",
"A 	c #A4A4A4",
"B 	c #868686",
"C 	c #6C6C6C",
"D 	c #A8A8A8",
"E 	c #858585",
"F 	c #646464",
"G 	c #DEDEDE",
"H 	c #ABABAB",
"I 	c #818181",
"J 	c #CDCDCD",
"K 	c #4F4F4F",
"L 	c #FDFDFD",
"M 	c #E2E2E2",
"N 	c #AFAFAF",
"O 	c #848484",
"P 	c #CBCBCB",
"Q 	c #DADADA",
"R 	c #B3B3B3",
"S 	c #E7E7E7",
"T 	c #838383",
"U 	c #E4E4E4",
"V 	c #B7B7B7",
"W 	c #828282",
"X 	c #C9C9C9",
"Y 	c #EEEEEE",
"Z 	c #C8C8C8",
"` 	c #DCDCDC",
" .	c #D8D8D8",
"..	c #C2C2C2",
"+.	c #E8E8E8",
"@.	c #C7C7C7",
"#.	c #D4D4D4",
"$.	c #7F7F7F",
"%.	c #7E7E7E",
"&.	c #696969",
"*.	c #7D7D7D",
"=.	c #505050",
"-.	c #C1C1C1",
";.	c #7C7C7C",
">.	c #929292",
",.	c #D5D5D5",
"'.	c #8E8E8E",
").	c #A9A9A9",
"!.	c #E5E5E5",
"~.	c #ECECEC",
"{.	c #9D9D9D",
"].	c #B8B8B8",
"^.	c #BCBCBC",
"/.	c #B6B6B6",
"(.	c #DFDFDF",
"_.	c #ADADAD",
":.	c #9F9F9F",
"<.	c #CECECE",
"[.	c #A6A6A6",
"}.	c #969696",
"|.	c #4E4E4E",
"                                                ",
"                                                ",
"                                                ",
"      . + @ # # # # # # # # # $ % & *           ",
"      = - ; > > > > > > > > > > , ' )           ",
"    ! ~ { ] ^ ^ ^ ^ ^ ^ ^ ^ ^ / ( _ : <         ",
"  . ^ [ + = = = = = = = = = = = } | 1 2 &       ",
"3 4 1 5 < = = = = = = = = = = = = 6 7 8 ^ )     ",
"= 9 0 a = = = = = = = = = = = = = = ] b c : < d ",
"e # f = = = = = = = = = = = = = = = = g h i = j ",
"k l j = = = = = = = = = = = = = = = = = ! { m ' ",
"n 1 = = = = ' } } } } } } } } j = = = = = o ' & ",
"p = = = = 2 q ( 0 r r r r r s t = = = = = u ' & ",
"p = = = = v w x y y y y y z q t = = = = = 5 ' < ",
"p = = = = = c |           4 A t = = = = = B ^ < ",
"p = = = = = c C           - D t = = = = = E ^ ) ",
"p = = = = = 1 F           G H t = = = = = E / ) ",
"I = = = = = J K L         M N t = = = = = O / ) ",
"I = = = = = P Q L         t R S = = = = = T / ] ",
"I = = = = = _ U m         ! V S = = = = = W & ] ",
"I = = = = = X 3 ^         Y k S = = = = = I & ] ",
"W = = = = = Z ` )         ] z S = = = = = I < v ",
"W = = = = = Z  .}         / ..+.= = = = = p < v ",
"T = = = = = @.#.6         2 8 +.= = = = = $.< v ",
"T = = = = = 8 ~ +.        L X +.= = = = = %.) : ",
"T = = = = = 8 J U         = &.g = = = = = *.) : ",
"O = = = = = , X = ^ ^ ^ ^ ) =.g = = = = = *.] } ",
"O = = = = = , ..' / / / / ^ -.g = = = = = ;.] } ",
"E = = = = = ~ O >.>.>.>.>.>.O 6 = = = = = ;.] } ",
"E = = = = = = = = = = = = = = = = = = = ,.'.^ v ",
"u = = = = = = = = = = = = = = = = = = = ).!.~.v ",
"{.].L = = = = = = = = = = = = = = = . @.^.M ^   ",
"+./.R = = = = = = = = = = = = = = = k q t (.    ",
"= ' l _.= = = = = = = = = = = = = . W M =       ",
". = J R * . = = = = = = = = = = a :.<.` !       ",
"    = < [ [.f f f f f f f f f f }.).& =         ",
"      = ' g U !.!.!.!.!.!.!.!.!.t } v |.        ",
"      . . ) } : : : : : : : : : v ' 4           ",
"                                                ",
"                                                ",
"                                                ",
"                                                ",
"                                                ",
"                                                ",
"                                                "};
