/* XPM */
static const char * A[] = {
"24 49 136 2",
"  	c #000000",
". 	c #F9F9F9",
"+ 	c #F1F1F1",
"@ 	c #B1B1B1",
"# 	c #9F9F9F",
"$ 	c #A0A0A0",
"% 	c #ADADAD",
"& 	c #EDEDED",
"* 	c #F5F5F5",
"= 	c #F4F4F4",
"- 	c #E9E9E9",
"; 	c #AEAEAE",
"> 	c #C9C9C9",
", 	c #AAAAAA",
"' 	c #E0E0E0",
") 	c #EBEBEB",
"! 	c #E5E5E5",
"~ 	c #D3D3D3",
"{ 	c #A5A5A5",
"] 	c #FFFFFF",
"^ 	c #A2A2A2",
"/ 	c #B3B3B3",
"( 	c #C3C3C3",
"_ 	c #CACACA",
": 	c #BABABA",
"< 	c #A4A4A4",
"[ 	c #F2F2F2",
"} 	c #BCBCBC",
"| 	c #FBFBFB",
"1 	c #979797",
"2 	c #8A8A8A",
"3 	c #F8F8F8",
"4 	c #F6F6F6",
"5 	c #858585",
"6 	c #777777",
"7 	c #D4D4D4",
"8 	c #D8D8D8",
"9 	c #F0F0F0",
"0 	c #8F8F8F",
"a 	c #D1D1D1",
"b 	c #A8A8A8",
"c 	c #CFCFCF",
"d 	c #EAEAEA",
"e 	c #E6E6E6",
"f 	c #848484",
"g 	c #FDFDFD",
"h 	c #949494",
"i 	c #D7D7D7",
"j 	c #7B7B7B",
"k 	c #FCFCFC",
"l 	c #ECECEC",
"m 	c #C1C1C1",
"n 	c #BEBEBE",
"o 	c #767676",
"p 	c #5F5F5F",
"q 	c #C5C5C5",
"r 	c #FEFEFE",
"s 	c #D0D0D0",
"t 	c #9C9C9C",
"u 	c #6E6E6E",
"v 	c #EFEFEF",
"w 	c #EEEEEE",
"x 	c #9B9B9B",
"y 	c #DADADA",
"z 	c #D6D6D6",
"A 	c #7A7A7A",
"B 	c #9A9A9A",
"C 	c #A9A9A9",
"D 	c #6A6A6A",
"E 	c #D5D5D5",
"F 	c #F7F7F7",
"G 	c #BFBFBF",
"H 	c #B2B2B2",
"I 	c #B4B4B4",
"J 	c #5E5E5E",
"K 	c #DCDCDC",
"L 	c #515151",
"M 	c #838383",
"N 	c #999999",
"O 	c #4B4B4B",
"P 	c #6C6C6C",
"Q 	c #8D8D8D",
"R 	c #FAFAFA",
"S 	c #919191",
"T 	c #676767",
"U 	c #DEDEDE",
"V 	c #A3A3A3",
"W 	c #E2E2E2",
"X 	c #F3F3F3",
"Y 	c #969696",
"Z 	c #C8C8C8",
"` 	c #D9D9D9",
" .	c #CBCBCB",
"..	c #818181",
"+.	c #C6C6C6",
"@.	c #A6A6A6",
"#.	c #646464",
"$.	c #636363",
"%.	c #A1A1A1",
"&.	c #E8E8E8",
"*.	c #828282",
"=.	c #929292",
"-.	c #7E7E7E",
";.	c #989898",
">.	c #E1E1E1",
",.	c #252525",
"'.	c #757575",
").	c #C0C0C0",
"!.	c #B5B5B5",
"~.	c #CECECE",
"{.	c #888888",
"].	c #878787",
"^.	c #C4C4C4",
"/.	c #6D6D6D",
"(.	c #545454",
"_.	c #E4E4E4",
":.	c #AFAFAF",
"<.	c #A7A7A7",
"[.	c #BDBDBD",
"}.	c #7C7C7C",
"|.	c #B0B0B0",
"1.	c #9D9D9D",
"2.	c #373737",
"3.	c #4E4E4E",
"4.	c #434343",
"5.	c #939393",
"6.	c #868686",
"7.	c #BBBBBB",
"8.	c #8C8C8C",
"9.	c #797979",
"0.	c #B8B8B8",
"a.	c #8E8E8E",
"b.	c #E7E7E7",
"c.	c #CCCCCC",
"d.	c #747474",
"e.	c #DDDDDD",
"                                                ",
"                                                ",
"                                                ",
"                                                ",
"      . + @ # $ $ $ $ $ $ # % & *               ",
"      = - ; > > > > > > > > , ' )               ",
"      ! ~ { ] ] ] ] ] ] ] ] ^ / (               ",
"      _ : < ] ] ] ] ] ] ] ] [ ^ } |             ",
"      { 1 < ] ] ] ] ] ] ] ] ] 2 = 3             ",
"    4   5 > ] ] ] ] ] ] ] ] ] 6 7 8             ",
"    4 9 0 ] ] ] ] ] ] ] ] ] ] a b c 3           ",
"    d e f ] ] ] ] ] ] ] ] ] ] g h | 3           ",
"    i 7 j ] ] ] ] ] ] ] ] ] ] k j l d           ",
"    m n o ] ] ] ] ] ] ] ] ] ] | p q (           ",
"  r s t u ] ] ] ] ] ] ] ] ] ] g n 5 @ v         ",
"  r ] 1 e ] ] ] ] ] ] ] ] ] ] ] w x = v         ",
"  | r 2 k ] ] ] ] ] ] ] ] ] ] ] l 2 y z         ",
"  l w A k ] ] ] ] ] ] ] ] ] ] ] [ B C c         ",
"  c a D | ] ] ] ] ] E F ] ] ] ] ] i G ]         ",
"  H I J | ] ] ] ] K L M k ] ] ] ] c n l         ",
"k ] N d ] ] ] ] ] c p O | ] ] ] ] c P Q         ",
"R r I v ] ] ] ] ] c S T k ] ] ] ] U 2 E R       ",
"+ 4 V & ] ] ] ] ] s : 2 r ] ] ] ] ] ; W X       ",
"e ) Y l ] ] ] ] ] ~ 1 B { ] ] ] ] ] { Z `       ",
" .c ..l ] ] ] ] r a P +.6 ] ] ] ] ] ; B <       ",
"@., #.l ] ] ] ] l $.%.&.*.] ] ] ] ] ] =.! +     ",
"_ 6 @.4 ] ] ] ] l -._ w ;.] ] ] ] ] ] ..>.!     ",
"k q 7 ] ] ] ] ] l h - ,.# ( ] ] ] ] ] '.n m     ",
"l ).s ] ] ] ] ] & N [ ~ !.{ ] ] ] ] ] X =.] |   ",
"y ; ~.] ] ] ] ] + {.=.S Q ).] ] ] ] ] k ].. 4   ",
"^.x ~.] ] ] ] ] ] ] ] ] ] ] ] ] ] ] ] | /.8 E   ",
"V -.~.] ] ] ] ] ] ] ] ] ] ] ] ] ] ] ] | (.@.H . ",
"{ / k ] ] ] ] ] ] ] ] ] ] ] ] ] ] ] ] ] _.:.g 3 ",
"- % ] ] ] ] ] ] ] ] ] ] ] ] ] ] ] ] ] ] & N l &.",
"` <.] ] ] ] ] ] ] ] ] ] ] ] ] ] ] ] ] ] l '.^.).",
"} { ] ] ] ] ] g %.V V V V ^ ;.[ ] ] ] ] R [.}.|.",
"1.< ] ] ] ] ] Q Y 2.3.3.4.E 5.& ] ] ] ] ] a m [ ",
"6.} ] ] ] ] ] '.7.G     * R { v ] ] ] ] ] ~.C E ",
"8.] ] ] ] ] ] 9.s 7     * 0.a.m ] ] ] ] ] b.b Y ",
"8.I I I I I I 0 &.)       c.~.*.H I I I I !.C w ",
"=.o o o o o d.;.9 [       K e.Y 6 o o o o d.B = ",
"                                                ",
"                                                ",
"                                                ",
"                                                ",
"                                                ",
"                                                ",
"                                                ",
"                                                "};
