/* XPM */
static const char * C[] = {
"22 49 97 2",
"  	c #000000",
". 	c #FDFDFD",
"+ 	c #F8F8F8",
"@ 	c #BCBCBC",
"# 	c #9E9E9E",
"$ 	c #A0A0A0",
"% 	c #A1A1A1",
"& 	c #CFCFCF",
"* 	c #F5F5F5",
"= 	c #F2F2F2",
"- 	c #EBEBEB",
"; 	c #E4E4E4",
"> 	c #E6E6E6",
", 	c #ACACAC",
"' 	c #C9C9C9",
") 	c #BEBEBE",
"! 	c #EFEFEF",
"~ 	c #ECECEC",
"{ 	c #9C9C9C",
"] 	c #DADADA",
"^ 	c #FFFFFF",
"/ 	c #E5E5E5",
"( 	c #9A9A9A",
"_ 	c #E8E8E8",
": 	c #E3E3E3",
"< 	c #FCFCFC",
"[ 	c #B5B5B5",
"} 	c #6B6B6B",
"| 	c #9F9F9F",
"1 	c #EAEAEA",
"2 	c #BBBBBB",
"3 	c #838383",
"4 	c #F3F3F3",
"5 	c #A2A2A2",
"6 	c #DEDEDE",
"7 	c #858585",
"8 	c #A5A5A5",
"9 	c #F1F1F1",
"0 	c #EDEDED",
"a 	c #D2D2D2",
"b 	c #AFAFAF",
"c 	c #F4F4F4",
"d 	c #A9A9A9",
"e 	c #C1C1C1",
"f 	c #F7F7F7",
"g 	c #F6F6F6",
"h 	c #5C5C5C",
"i 	c #AEAEAE",
"j 	c #B1B1B1",
"k 	c #F9F9F9",
"l 	c #6F6F6F",
"m 	c #818181",
"n 	c #646464",
"o 	c #686868",
"p 	c #727272",
"q 	c #CACACA",
"r 	c #595959",
"s 	c #B6B6B6",
"t 	c #787878",
"u 	c #B2B2B2",
"v 	c #B9B9B9",
"w 	c #757575",
"x 	c #707070",
"y 	c #6E6E6E",
"z 	c #676767",
"A 	c #A7A7A7",
"B 	c #717171",
"C 	c #A4A4A4",
"D 	c #EEEEEE",
"E 	c #9D9D9D",
"F 	c #E1E1E1",
"G 	c #737373",
"H 	c #DDDDDD",
"I 	c #9B9B9B",
"J 	c #E7E7E7",
"K 	c #D6D6D6",
"L 	c #747474",
"M 	c #989898",
"N 	c #DFDFDF",
"O 	c #939393",
"P 	c #E9E9E9",
"Q 	c #D4D4D4",
"R 	c #AAAAAA",
"S 	c #767676",
"T 	c #979797",
"U 	c #E2E2E2",
"V 	c #898989",
"W 	c #D7D7D7",
"X 	c #969696",
"Y 	c #FBFBFB",
"Z 	c #D5D5D5",
"` 	c #FEFEFE",
" .	c #919191",
"..	c #C8C8C8",
"+.	c #C6C6C6",
"@.	c #B0B0B0",
"#.	c #FAFAFA",
"                                            ",
"                                            ",
"                                            ",
"                                            ",
"      . + @ # $ $ $ $ $ $ $ $ $ $ $ % & * = ",
"    - ; > , ' ' ' ' ' ' ' ' ' ' ' ' @ ) ! ~ ",
"  . * ~ { ] ^ ^ ^ ^ ^ ^ ^ ^ ^ ^ ^ ^ / ( _ : ",
"  < ^ [ } ^ ^ ^ ^ ^ ^ ^ ^ ^ ^ ^ ^ ^ ; | ~ _ ",
"1 * 2 3 4 ^ ^ ^ ^ ^ ^ ^ ^ ^ ^ ^ ^ ^ ; 5 ! 1 ",
"< 6 7 / ^ ^ ^ ^ ^ ^ ^ ^ ^ ^ ^ ^ ^ ^ / 8 9 0 ",
"a b ( c ^ ^ ^ ^ ^ ^ ^ ^ ^ ^ ^ ^ ^ ^ / d c ! ",
"e { f ^ ^ ^ ^ ^ ^ ^ ^ ^ ^ ^ ^ ^ ^ ^ > , g = ",
"h i ^ ^ ^ ^ ^ g 9 9 9 9 9 9 9 9 9 9 ] j k c ",
"l ^ ^ ^ ^ ^ ! m n o o o o o o o o o p q < k ",
"l ^ ^ ^ ^ ^ 2 r , s s s s s s s s s @ _ ^ . ",
"l ^ ^ ^ ^ ^ c 8 t u u u u u u u u u v > ^ . ",
"l ^ ^ ^ ^ ^ ^ b w                           ",
"x ^ ^ ^ ^ ^ ^ , y                           ",
"x ^ ^ ^ ^ ^ ^ d z                           ",
"x ^ ^ ^ ^ ^ ^ A } .                         ",
"B ^ ^ ^ ^ ^ ^ C D .                         ",
"B ^ ^ ^ ^ ^ ^ 5 ~ k                         ",
"B ^ ^ ^ ^ ^ ^ $ _ *                         ",
"p ^ ^ ^ ^ ^ ^ | / =                         ",
"p ^ ^ ^ ^ ^ ^ E F D                         ",
"G ^ ^ ^ ^ ^ ^ { H 1                         ",
"G ^ ^ ^ ^ ^ ^ I ] J                         ",
"G ^ ^ ^ ^ ^ ^ ( K :                         ",
"L ^ ^ ^ ^ ^ ^ M a N                         ",
"L ^ ^ ^ ^ ^ ^ M & k C C C C C C C C 8 & * = ",
"w ^ ^ ^ ^ ^ ^ O , % # # # # # # # # 5 a * 4 ",
"w ^ ^ ^ ^ ^ ^ J : P _ _ _ _ _ _ _ _ Q R J : ",
"S ^ ^ ^ ^ ^ ^ ^ ^ ^ ^ ^ ^ ^ ^ ^ ^ ^ ; T U 6 ",
"V ! ^ ^ ^ ^ ^ ^ ^ ^ ^ ^ ^ ^ ^ ^ ^ ^ ; ( > F ",
"u I 1 ^ ^ ^ ^ ^ ^ ^ ^ ^ ^ ^ ^ ^ ^ ^ ; { _ ; ",
"4 W X D ^ ^ ^ ^ ^ ^ ^ ^ ^ ^ ^ ^ ^ ^ ; E 1 > ",
"^ Y Z 3 4 ^ ^ ^ ^ ^ ^ ^ ^ ^ ^ ^ ^ ^ ; E - > ",
"` ^ y q m 0 ^ ^ ^ ^ ^ ^ ^ ^ ^ ^ ^ ^ / # ~ J ",
"    ^ ^ K  ...+.+.+.+.+.+.+.+.+.+.+.@.5 0 _ ",
"    ` . Y : ' ......................' U #.+ ",
"        ^ < = 9 9 9 9 9 9 9 9 9 9 9 = + ^ ` ",
"                                            ",
"                                            ",
"                                            ",
"                                            ",
"                                            ",
"                                            ",
"                                            ",
"                                            "};
