/* XPM */
static const char * D[] = {
"26 49 111 2",
"  	c #000000",
". 	c #B4B4B4",
"+ 	c #A0A0A0",
"@ 	c #C7C7C7",
"# 	c #FCFCFC",
"$ 	c #A2A2A2",
"% 	c #C9C9C9",
"& 	c #C8C8C8",
"* 	c #A8A8A8",
"= 	c #E6E6E6",
"- 	c #FFFFFF",
"; 	c #FDFDFD",
"> 	c #A1A1A1",
", 	c #757575",
"' 	c #C6C6C6",
") 	c #8B8B8B",
"! 	c #E3E3E3",
"~ 	c #FAFAFA",
"{ 	c #767676",
"] 	c #CCCCCC",
"^ 	c #878787",
"/ 	c #E5E5E5",
"( 	c #F8F8F8",
"_ 	c #F9F9F9",
": 	c #C3C3C3",
"< 	c #888888",
"[ 	c #F7F7F7",
"} 	c #BFBFBF",
"| 	c #828282",
"1 	c #DFDFDF",
"2 	c #808080",
"3 	c #D3D3D3",
"4 	c #D1D1D1",
"5 	c #FEFEFE",
"6 	c #D7D7D7",
"7 	c #898989",
"8 	c #8D8D8D",
"9 	c #F5F5F5",
"0 	c #F6F6F6",
"a 	c #EBEBEB",
"b 	c #7E7E7E",
"c 	c #858585",
"d 	c #909090",
"e 	c #A4A4A4",
"f 	c #ADADAD",
"g 	c #ACACAC",
"h 	c #999999",
"i 	c #D5D5D5",
"j 	c #7A7A7A",
"k 	c #747474",
"l 	c #939393",
"m 	c #D0D0D0",
"n 	c #A6A6A6",
"o 	c #E0E0E0",
"p 	c #B0B0B0",
"q 	c #DBDBDB",
"r 	c #B1B1B1",
"s 	c #E1E1E1",
"t 	c #C2C2C2",
"u 	c #737373",
"v 	c #949494",
"w 	c #DCDCDC",
"x 	c #B5B5B5",
"y 	c #B8B8B8",
"z 	c #818181",
"A 	c #E7E7E7",
"B 	c #BABABA",
"C 	c #BEBEBE",
"D 	c #7B7B7B",
"E 	c #EAEAEA",
"F 	c #C1C1C1",
"G 	c #DEDEDE",
"H 	c #C0C0C0",
"I 	c #D4D4D4",
"J 	c #CBCBCB",
"K 	c #727272",
"L 	c #959595",
"M 	c #D6D6D6",
"N 	c #E2E2E2",
"O 	c #8C8C8C",
"P 	c #BDBDBD",
"Q 	c #D8D8D8",
"R 	c #D9D9D9",
"S 	c #E4E4E4",
"T 	c #DDDDDD",
"U 	c #BCBCBC",
"V 	c #FBFBFB",
"W 	c #717171",
"X 	c #979797",
"Y 	c #E9E9E9",
"Z 	c #BBBBBB",
"` 	c #969696",
" .	c #DADADA",
"..	c #9B9B9B",
"+.	c #9F9F9F",
"@.	c #E8E8E8",
"#.	c #EEEEEE",
"$.	c #A3A3A3",
"%.	c #B9B9B9",
"&.	c #707070",
"*.	c #777777",
"=.	c #F2F2F2",
"-.	c #6C6C6C",
";.	c #ECECEC",
">.	c #6F6F6F",
",.	c #868686",
"'.	c #5E5E5E",
").	c #A7A7A7",
"!.	c #545454",
"~.	c #8E8E8E",
"{.	c #F1F1F1",
"                                                    ",
"                                                    ",
"                                                    ",
"                                                    ",
". + + + + + + + + + + + + + + + + @ # # #           ",
"$ % % % % % % % % % % % % % % % & * = - ; >         ",
", - - - - - - - - - - - - - - - - ' ) ! - ~         ",
"{ - - - - - - - - - - - - - - - - ; ] ^ / ( _       ",
"{ - - - - - - - - - - - - - - - - - - : < = ( ( [   ",
"{ - - - - - - - - - - - - - - - - - - - } | 1 ; ~   ",
"{ - - - - - - - - - - - - - - - - - - - - % 2 3 4   ",
", - - - - - - - - - - - - - - - - - - - - 5 6 7 8   ",
", - - - - - - 9 9 [ [ [ [ [ 0 ~ - - - - - - a b c   ",
", - - - - - - d e f g g g g h i - - - - - - a j g 5 ",
"k - - - - - - l m   f f f f n o - - - - - - a p - 5 ",
"k - - - - - - l m q       r g s - - - - - - a t - 5 ",
"u - - - - - - v 4 w       x y z A - - - - - a t - 5 ",
"u - - - - - - v 4 w       B C D / - - - - - E F - 5 ",
"u - - - - - - v 3 G       } t b / - - - - - E H - ; ",
"u - - - - - - v I 1       : @ | / - - - - - E H - ; ",
"u - - - - - - v i o       @ J c / - - - - - E } - ; ",
"K - - - - - - v i o       ] m 7 / - - - - - E C - # ",
"K - - - - - - L M N       m I O / - - - - - E P - # ",
"K - - - - - - L Q !       I Q d = - - - - - E P - # ",
"K - - - - - - L R S       R T v = - - - - - E U - V ",
"W - - - - - - L R S       T s X = - - - - - Y Z - V ",
"W - - - - - - `  ./       s = ..= - - - - - Y Z - V ",
"W - - - - - - ` w A       = E +.= - - - - - Y B 5 ~ ",
"W - - - - - - ` T @.      E #.$.= - - - - - Y %.5 ~ ",
"W - - - - - - ` T V ~ ~ ~ V 9 n = - - - - - Y %.5 ~ ",
"&.- - - - - - d * : t t t t } *.= - - - - - Y y 5 ~ ",
"&.- - - - - - = T G G G G G G w ( - - - - - E %.5 ~ ",
"&.- - - - - - - - - - - - - - - - - - - - =.b C - ~ ",
"&.- - - - - - - - - - - - - - - - - - - - -.x ; ~   ",
"&.- - - - - - - - - - - - - - - - - - - Q > ;.9 V   ",
">.- - - - - - - - - - - - - - - - - - i ,.@.- a     ",
">.- - - - - - - - - - - - - - - - - s '.3 0 5       ",
">.- - - - - - - - - - - - - - - - ; ] ).! ~         ",
"!.@ ' ' ' ' ' ' ' ' ' ' ' ' ' ' ' C ~.1 T ..        ",
"] & & & & & & & & & & & & & & & & J ! - 5           ",
"=.{.{.{.{.{.{.{.{.{.{.{.{.{.{.{.{.=.V V #           ",
"                                                    ",
"                                                    ",
"                                                    ",
"                                                    ",
"                                                    ",
"                                                    ",
"                                                    ",
"                                                    "};
