/* XPM */
static const char * F[] = {
"22 49 95 2",
"  	c #000000",
". 	c #A9A9A9",
"+ 	c #A0A0A0",
"@ 	c #A1A1A1",
"# 	c #CFCFCF",
"$ 	c #F5F5F5",
"% 	c #F2F2F2",
"& 	c #979797",
"* 	c #C9C9C9",
"= 	c #BCBCBC",
"- 	c #BEBEBE",
"; 	c #EFEFEF",
"> 	c #ECECEC",
", 	c #6D6D6D",
"' 	c #FFFFFF",
") 	c #E5E5E5",
"! 	c #9A9A9A",
"~ 	c #E8E8E8",
"{ 	c #E3E3E3",
"] 	c #6F6F6F",
"^ 	c #E4E4E4",
"/ 	c #9F9F9F",
"( 	c #A2A2A2",
"_ 	c #EAEAEA",
": 	c #A5A5A5",
"< 	c #F1F1F1",
"[ 	c #EDEDED",
"} 	c #F4F4F4",
"| 	c #E6E6E6",
"1 	c #ACACAC",
"2 	c #F6F6F6",
"3 	c #DADADA",
"4 	c #B1B1B1",
"5 	c #F9F9F9",
"6 	c #707070",
"7 	c #828282",
"8 	c #646464",
"9 	c #686868",
"0 	c #727272",
"a 	c #CACACA",
"b 	c #FCFCFC",
"c 	c #BDBDBD",
"d 	c #5D5D5D",
"e 	c #B6B6B6",
"f 	c #FDFDFD",
"g 	c #BFBFBF",
"h 	c #6B6B6B",
"i 	c #7F7F7F",
"j 	c #B2B2B2",
"k 	c #B9B9B9",
"l 	c #999999",
"m 	c #B7B7B7",
"n 	c #D4D4D4",
"o 	c #DDDDDD",
"p 	c #C4C4C4",
"q 	c #9D9D9D",
"r 	c #C0C0C0",
"s 	c #717171",
"t 	c #ABABAB",
"u 	c #FAFAFA",
"v 	c #F7F7F7",
"w 	c #9B9B9B",
"x 	c #E9E9E9",
"y 	c #F3F3F3",
"z 	c #F0F0F0",
"A 	c #949494",
"B 	c #F8F8F8",
"C 	c #FBFBFB",
"D 	c #929292",
"E 	c #E1E1E1",
"F 	c #EBEBEB",
"G 	c #737373",
"H 	c #9C9C9C",
"I 	c #989898",
"J 	c #969696",
"K 	c #A3A3A3",
"L 	c #747474",
"M 	c #DFDFDF",
"N 	c #E7E7E7",
"O 	c #757575",
"P 	c #D8D8D8",
"Q 	c #D5D5D5",
"R 	c #E2E2E2",
"S 	c #D3D3D3",
"T 	c #E0E0E0",
"U 	c #767676",
"V 	c #D0D0D0",
"W 	c #CECECE",
"X 	c #616161",
"Y 	c #C7C7C7",
"Z 	c #C6C6C6",
"` 	c #CDCDCD",
" .	c #D9D9D9",
"..	c #C8C8C8",
"+.	c #CCCCCC",
"                                            ",
"                                            ",
"                                            ",
"                                            ",
". + + + + + + + + + + + + + + + + + @ # $ % ",
"& * * * * * * * * * * * * * * * * * = - ; > ",
", ' ' ' ' ' ' ' ' ' ' ' ' ' ' ' ' ' ) ! ~ { ",
"] ' ' ' ' ' ' ' ' ' ' ' ' ' ' ' ' ' ^ / > ~ ",
"] ' ' ' ' ' ' ' ' ' ' ' ' ' ' ' ' ' ^ ( ; _ ",
"] ' ' ' ' ' ' ' ' ' ' ' ' ' ' ' ' ' ) : < [ ",
"] ' ' ' ' ' ' ' ' ' ' ' ' ' ' ' ' ' ) . } ; ",
"] ' ' ' ' ' ' ' ' ' ' ' ' ' ' ' ' ' | 1 2 % ",
"] ' ' ' ' ' ' 2 < < < < < < < < < < 3 4 5 } ",
"6 ' ' ' ' ' ; 7 8 9 9 9 9 9 9 9 9 9 0 a b 5 ",
"6 ' ' ' ' ' c d 1 e e e e e e e e e = ~ ' f ",
"6 ' ' ' ' ' g h i j j j j j j j j j k | ' f ",
"6 ' ' ' ' ' f 1 l m m m m m m e n o         ",
"6 ' ' ' ' ' ' p q ! ! ! ! ! l k a r b       ",
"s ' ' ' ' ' ' ' * g g g g g - | t > b       ",
"s ' ' ' ' ' ' ' ' ' ' ' ' ' ' ' : < u       ",
"s ' ' ' ' ' ' ' ' ' ' ' ' ' ' ' + [ v       ",
"s ' ' ' ' ' ' ' ' ' ' ' ' ' ' ' w x y       ",
"0 ' ' ' ' ' ' ' ' ' ' ' ' ' ' ' & | z       ",
"0 ' ' ' ' ' ' ' ' ' ' ' ' ' ' ' A { [       ",
"0 ' ' ' ' ' ' 5 B B B B B B B C D E F       ",
"G ' ' ' ' ' ' H . I J J J J J J K ; 2       ",
"G ' ' ' ' ' ' @ F ' J J J J J J K ; 2       ",
"G ' ' ' ' ' ' + | }                         ",
"G ' ' ' ' ' ' / ^ <                         ",
"L ' ' ' ' ' ' q E ;                         ",
"L ' ' ' ' ' ' H M >                         ",
"L ' ' ' ' ' ' H o _                         ",
"L ' ' ' ' ' ' w 3 N                         ",
"O ' ' ' ' ' ' ! P )                         ",
"O ' ' ' ' ' ' l Q R                         ",
"O ' ' ' ' ' ' l S T                         ",
"U ' ' ' ' ' ' I V o                         ",
"U ' ' ' ' ' ' I W 3                         ",
"X Y Z Z Z Z Y O `  .                        ",
"# ............+.; y                         ",
"} < < < < < < % b f                         ",
"                                            ",
"                                            ",
"                                            ",
"                                            ",
"                                            ",
"                                            ",
"                                            ",
"                                            "};
