/* XPM */
static const char * four[] = {
"23 45 104 2",
"  	c #000000",
". 	c #A8A8A8",
"+ 	c #A2A2A2",
"@ 	c #E4E4E4",
"# 	c #FAFAFA",
"$ 	c #F2F2F2",
"% 	c #F3F3F3",
"& 	c #B6B6B6",
"* 	c #A4A4A4",
"= 	c #D5D5D5",
"- 	c #FBFBFB",
"; 	c #A9A9A9",
"> 	c #9E9E9E",
", 	c #A6A6A6",
"' 	c #E5E5E5",
") 	c #F4F4F4",
"! 	c #B8B8B8",
"~ 	c #A1A1A1",
"{ 	c #D6D6D6",
"] 	c #828282",
"^ 	c #F9F9F9",
"/ 	c #F7F7F7",
"( 	c #D9D9D9",
"_ 	c #C5C5C5",
": 	c #F1F1F1",
"< 	c #DEDEDE",
"[ 	c #E0E0E0",
"} 	c #797979",
"| 	c #E9E9E9",
"1 	c #ABABAB",
"2 	c #7D7D7D",
"3 	c #FFFFFF",
"4 	c #C0C0C0",
"5 	c #EFEFEF",
"6 	c #DBDBDB",
"7 	c #DDDDDD",
"8 	c #6F6F6F",
"9 	c #F0F0F0",
"0 	c #BEBEBE",
"a 	c #EDEDED",
"b 	c #BCBCBC",
"c 	c #EAEAEA",
"d 	c #DADADA",
"e 	c #DCDCDC",
"f 	c #A7A7A7",
"g 	c #BBBBBB",
"h 	c #F5F5F5",
"i 	c #B9B9B9",
"j 	c #E7E7E7",
"k 	c #6E6E6E",
"l 	c #7E7E7E",
"m 	c #B7B7B7",
"n 	c #D8D8D8",
"o 	c #B5B5B5",
"p 	c #E3E3E3",
"q 	c #F6F6F6",
"r 	c #B4B4B4",
"s 	c #E1E1E1",
"t 	c #D7D7D7",
"u 	c #B2B2B2",
"v 	c #DFDFDF",
"w 	c #AAAAAA",
"x 	c #7F7F7F",
"y 	c #B0B0B0",
"z 	c #6D6D6D",
"A 	c #AFAFAF",
"B 	c #ADADAD",
"C 	c #808080",
"D 	c #D4D4D4",
"E 	c #ACACAC",
"F 	c #F8F8F8",
"G 	c #D0D0D0",
"H 	c #AEAEAE",
"I 	c #878787",
"J 	c #8E8E8E",
"K 	c #A0A0A0",
"L 	c #646464",
"M 	c #818181",
"N 	c #FDFDFD",
"O 	c #A5A5A5",
"P 	c #A3A3A3",
"Q 	c #FEFEFE",
"R 	c #9C9C9C",
"S 	c #979797",
"T 	c #9A9A9A",
"U 	c #8D8D8D",
"V 	c #B1B1B1",
"W 	c #989898",
"X 	c #999999",
"Y 	c #8C8C8C",
"Z 	c #CBCBCB",
"` 	c #696969",
" .	c #BFBFBF",
"..	c #FCFCFC",
"+.	c #C8C8C8",
"@.	c #CACACA",
"#.	c #C7C7C7",
"$.	c #C9C9C9",
"%.	c #C6C6C6",
"&.	c #686868",
"*.	c #575757",
"=.	c #9F9F9F",
"-.	c #E8E8E8",
";.	c #E6E6E6",
"                                              ",
"                                              ",
"                                              ",
". + + + + + . @ # $ % & + + + + + * = -       ",
"; > > > > > , ' - % ) ! > > > > > ~ { -       ",
"] ^ / / / / ( _ : < [ } ^ / / / / | 1 )       ",
"2 3 3 3 3 3 < 4 5 6 7 8 3 3 3 3 3 9 , )       ",
"2 3 3 3 3 3 < 0 a 6 7 8 3 3 3 3 3 9 , )       ",
"2 3 3 3 3 3 < b c d e 8 3 3 3 3 3 9 f )       ",
"2 3 3 3 3 3 < g | d e 8 3 3 3 3 3 9 f h       ",
"2 3 3 3 3 3 < i j ( 6 k 3 3 3 3 3 9 . h       ",
"l 3 3 3 3 3 < m ' n d k 3 3 3 3 3 9 . h       ",
"l 3 3 3 3 3 < o p n d k 3 3 3 3 3 9 ; q       ",
"l 3 3 3 3 3 < r s t ( k 3 3 3 3 3 9 ; q       ",
"l 3 3 3 3 3 < u v { n k 3 3 3 3 3 9 w q       ",
"x 3 3 3 3 3 < y 7 { n z 3 3 3 3 3 9 1 /       ",
"x 3 3 3 3 3 < A 6 = t z 3 3 3 3 3 9 1 /       ",
"x 3 3 3 3 3 < B ( = t z 3 3 3 3 3 9 1 /       ",
"C 3 3 3 3 3 < 1 t D { z 3 3 3 3 3 9 E F       ",
"C 3 3 3 3 3 < w G m = z 3 3 3 3 3 9 H $ | c   ",
"C 3 3 3 3 3 | I > ~ J K 3 3 3 3 3 5 L + n d   ",
"M 3 3 3 3 3 3 ' G G G N 3 3 3 3 3 # G G O P   ",
"M 3 3 3 3 3 3 3 3 3 3 3 3 3 3 3 3 3 3 Q R S   ",
"M 3 3 3 3 3 3 3 3 3 3 3 3 3 3 3 3 3 3 Q T 3 Q ",
"] 3 3 3 3 3 3 3 3 3 3 3 3 3 3 3 3 3 3 Q K 3 N ",
"] 3 3 3 3 3 3 3 3 3 3 3 3 3 3 3 3 3 3 Q S Q # ",
"] 3 3 3 3 3 3 3 3 3 3 3 3 3 3 3 3 3 3 3 U # / ",
"T u V V V V V V V V . W 3 3 3 3 3 ) X V r - ^ ",
"~ Y U U U U U U U   Z ` 3 3 3 3 3 : o q  ...# ",
"                  +.@.` 3 3 3 3 3 : o -       ",
"                  +.@.` 3 3 3 3 3 : & ..      ",
"                  #.$.` 3 3 3 3 3 : m ..      ",
"                  %.+.&.3 3 3 3 3 : m ..      ",
"                  %.+.&.3 3 3 3 3 : ! N       ",
"                  _ %.&.3 3 3 3 3 % i N       ",
"                  $.Z *., O O O O =.4 Q       ",
"                  / / -.' ' ' ' ' ;.5 3       ",
"                  - - $ 9 9 9 9 9 : q q       ",
"                                              ",
"                                              ",
"                                              ",
"                                              ",
"                                              ",
"                                              ",
"                                              "};
