/* XPM */
static const char * I[] = {
"10 49 97 2",
"  	c #000000",
". 	c #B3B3B3",
"+ 	c #9F9F9F",
"@ 	c #A0A0A0",
"# 	c #B7B7B7",
"$ 	c #DFDFDF",
"% 	c #DDDDDD",
"& 	c #A3A3A3",
"* 	c #C9C9C9",
"= 	c #C5C5C5",
"- 	c #9D9D9D",
"; 	c #CCCCCC",
"> 	c #7D7D7D",
", 	c #FFFFFF",
"' 	c #F9F9F9",
") 	c #545454",
"! 	c #A1A1A1",
"~ 	c #9E9E9E",
"{ 	c #7E7E7E",
"] 	c #F8F8F8",
"^ 	c #585858",
"/ 	c #A5A5A5",
"( 	c #A2A2A2",
"_ 	c #5A5A5A",
": 	c #A7A7A7",
"< 	c #A4A4A4",
"[ 	c #5B5B5B",
"} 	c #A9A9A9",
"| 	c #A6A6A6",
"1 	c #5C5C5C",
"2 	c #ABABAB",
"3 	c #A8A8A8",
"4 	c #5D5D5D",
"5 	c #ADADAD",
"6 	c #AAAAAA",
"7 	c #5E5E5E",
"8 	c #AFAFAF",
"9 	c #7C7C7C",
"0 	c #5F5F5F",
"a 	c #B1B1B1",
"b 	c #616161",
"c 	c #626262",
"d 	c #B5B5B5",
"e 	c #B2B2B2",
"f 	c #7B7B7B",
"g 	c #636363",
"h 	c #646464",
"i 	c #B9B9B9",
"j 	c #656565",
"k 	c #BBBBBB",
"l 	c #676767",
"m 	c #BCBCBC",
"n 	c #7A7A7A",
"o 	c #686868",
"p 	c #BFBFBF",
"q 	c #606060",
"r 	c #6C6C6C",
"s 	c #C1C1C1",
"t 	c #797979",
"u 	c #6D6D6D",
"v 	c #C7C7C7",
"w 	c #C3C3C3",
"x 	c #6E6E6E",
"y 	c #C8C8C8",
"z 	c #6F6F6F",
"A 	c #CACACA",
"B 	c #C6C6C6",
"C 	c #707070",
"D 	c #727272",
"E 	c #CFCFCF",
"F 	c #CBCBCB",
"G 	c #787878",
"H 	c #737373",
"I 	c #D0D0D0",
"J 	c #747474",
"K 	c #D2D2D2",
"L 	c #CECECE",
"M 	c #757575",
"N 	c #D4D4D4",
"O 	c #767676",
"P 	c #D6D6D6",
"Q 	c #777777",
"R 	c #D8D8D8",
"S 	c #DADADA",
"T 	c #DEDEDE",
"U 	c #E0E0E0",
"V 	c #DCDCDC",
"W 	c #C0C0C0",
"X 	c #E4E4E4",
"Y 	c #D9D9D9",
"Z 	c #F7F7F7",
"` 	c #F5F5F5",
" .	c #F2F2F2",
"..	c #F1F1F1",
"+.	c #F6F6F6",
"@.	c #FEFEFE",
"#.	c #FDFDFD",
"                    ",
"                    ",
"                    ",
"                    ",
". + @ @ @ @ @ # $ % ",
"& * * * * * = - ; * ",
"> , , , , , ' ) ! ~ ",
"{ , , , , , ] ^ / ( ",
"{ , , , , , ] _ : < ",
"> , , , , , ] [ } | ",
"> , , , , , ] 1 2 3 ",
"> , , , , , ] 4 5 6 ",
"> , , , , , ] 7 8 2 ",
"9 , , , , , ] 0 a 5 ",
"9 , , , , , ] b . 8 ",
"9 , , , , , ] c d e ",
"f , , , , , ] g # . ",
"f , , , , , ] h i d ",
"f , , , , , ] j k # ",
"f , , , , , ] l m i ",
"n , , , , , ] o p k ",
"n , , , , , ] q a 5 ",
"n , , , , , ] [ | & ",
"n , , , , , ] r = s ",
"t , , , , , ] u v w ",
"t , , , , , ] x y = ",
"t , , , , , ] z A B ",
"t , , , , , ] C ; y ",
"t , , , , , ] D E F ",
"G , , , , , ] H I ; ",
"G , , , , , ] J K L ",
"G , , , , , ] M N I ",
"G , , , , , ] O P K ",
"G , , , , , ] Q R N ",
"G , , , , , ] t S P ",
"G , , , , , ] n % R ",
"Q , , , , , ] f T S ",
"Q , , , , , ' 9 U V ",
"_ v B B B B W { X U ",
"; y y y y y * Y Z ` ",
" .............+.@.#.",
"                    ",
"                    ",
"                    ",
"                    ",
"                    ",
"                    ",
"                    ",
"                    "};
