/* XPM */
static const char * J[] = {
"22 49 125 2",
"  	c #000000",
". 	c #D5D5D5",
"+ 	c #F7F7F7",
"@ 	c #CBCBCB",
"# 	c #848484",
"$ 	c #FFFFFF",
"% 	c #F6F6F6",
"& 	c #E6E6E6",
"* 	c #C6C6C6",
"= 	c #E0E0E0",
"- 	c #FBFBFB",
"; 	c #F9F9F9",
"> 	c #F5F5F5",
", 	c #CDCDCD",
"' 	c #7D7D7D",
") 	c #8D8D8D",
"! 	c #D4D4D4",
"~ 	c #BCBCBC",
"{ 	c #ADADAD",
"] 	c #A1A1A1",
"^ 	c #CECECE",
"/ 	c #F4F4F4",
"( 	c #EDEDED",
"_ 	c #F0F0F0",
": 	c #B1B1B1",
"< 	c #C7C7C7",
"[ 	c #D1D1D1",
"} 	c #CCCCCC",
"| 	c #CACACA",
"1 	c #C9C9C9",
"2 	c #B4B4B4",
"3 	c #A3A3A3",
"4 	c #EEEEEE",
"5 	c #EAEAEA",
"6 	c #E8E8E8",
"7 	c #ECECEC",
"8 	c #9C9C9C",
"9 	c #E5E5E5",
"0 	c #E9E9E9",
"a 	c #EBEBEB",
"b 	c #9F9F9F",
"c 	c #E4E4E4",
"d 	c #F2F2F2",
"e 	c #A2A2A2",
"f 	c #A0A0A0",
"g 	c #A4A4A4",
"h 	c #F3F3F3",
"i 	c #A7A7A7",
"j 	c #FAFAFA",
"k 	c #A9A9A9",
"l 	c #F8F8F8",
"m 	c #FCFCFC",
"n 	c #ACACAC",
"o 	c #E7E7E7",
"p 	c #AFAFAF",
"q 	c #9E9E9E",
"r 	c #FDFDFD",
"s 	c #656565",
"t 	c #666666",
"u 	c #5D5D5D",
"v 	c #9D9D9D",
"w 	c #696969",
"x 	c #606060",
"y 	c #6E6E6E",
"z 	c #747474",
"A 	c #6C6C6C",
"B 	c #787878",
"C 	c #717171",
"D 	c #7E7E7E",
"E 	c #7C7C7C",
"F 	c #B2B2B2",
"G 	c #838383",
"H 	c #858585",
"I 	c #434343",
"J 	c #9B9B9B",
"K 	c #E3E3E3",
"L 	c #888888",
"M 	c #8A8A8A",
"N 	c #4A4A4A",
"O 	c #9A9A9A",
"P 	c #E2E2E2",
"Q 	c #8F8F8F",
"R 	c #4C4C4C",
"S 	c #999999",
"T 	c #E1E1E1",
"U 	c #929292",
"V 	c #949494",
"W 	c #4E4E4E",
"X 	c #989898",
"Y 	c #DFDFDF",
"Z 	c #979797",
"` 	c #515151",
" .	c #535353",
"..	c #969696",
"+.	c #DDDDDD",
"@.	c #545454",
"#.	c #DCDCDC",
"$.	c #D6D6D6",
"%.	c #C1C1C1",
"&.	c #C2C2C2",
"*.	c #C4C4C4",
"=.	c #383838",
"-.	c #959595",
";.	c #DBDBDB",
">.	c #919191",
",.	c #DEDEDE",
"'.	c #898989",
").	c #686868",
"!.	c #C0C0C0",
"~.	c #797979",
"{.	c #7A7A7A",
"].	c #D0D0D0",
"^.	c #FEFEFE",
"/.	c #767676",
"(.	c #DADADA",
"_.	c #727272",
":.	c #C5C5C5",
"<.	c #8B8B8B",
"[.	c #BBBBBB",
"}.	c #565656",
"|.	c #BABABA",
"1.	c #5C5C5C",
"2.	c #C8C8C8",
"3.	c #5E5E5E",
"4.	c #F1F1F1",
"                                            ",
"                                            ",
"                                            ",
"                                            ",
"                  . + @ # $ $ % & . * = - ; ",
"                  > + , ' ) ! @ ~ { ] ^ + / ",
"                  ( _ : < [ } @ | 1 2 3 4 5 ",
"                  6 7 8 5 $ $ $ $ $ 9 ] 4 0 ",
"                  a _ b 5 $ $ $ $ $ c ] 4 0 ",
"                  4 d e 5 $ $ $ $ $ c f ( 0 ",
"                  _ > g 5 $ $ $ $ $ c f ( 6 ",
"                  h + i 5 $ $ $ $ $ c f ( 6 ",
"                  > j k 5 $ $ $ $ $ c b 7 6 ",
"                  l m n a $ $ $ $ $ c b 7 o ",
"                  j $ p a $ $ $ $ $ c q 7 o ",
"                  r $ : a $ $ $ $ $ c q 7 o ",
"                  r $ s a $ $ $ $ $ c q a o ",
"                    t u 7 $ $ $ $ $ c v a & ",
"                    w x 7 $ $ $ $ $ c v a & ",
"                    y t 7 $ $ $ $ $ c v a & ",
"                    z A ( $ $ $ $ $ c 8 5 9 ",
"                    B C 4 $ $ $ $ $ c 8 5 9 ",
"                    D E F m $ $ $ $ c 8 0 9 ",
"                    G H I ; $ $ $ $ c J 6 K ",
"                    L M N ; $ $ $ $ c O & P ",
"                    ) Q R ; $ $ $ $ c S 9 T ",
"                    U V W ; $ $ $ $ c X c Y ",
"                    Z S ` ; $ $ $ $ c X K Y ",
"                    8 q  .; $ $ $ $ c ..P +.",
"r j j j j j j j j j $ F @.; $ $ $ $ c ..= #.",
"$.%.&.&.&.&.&.&.&.&.*.8 =.; $ $ $ $ c -.= ;.",
">.Y ,.,.,.,.,.,.,.,.,.+.#.r $ $ $ $ 9 Z P ,.",
"'.$ $ $ $ $ $ $ $ $ $ $ $ $ $ $ $ l ).!.- + ",
"G $ $ $ $ $ $ $ $ $ $ $ $ $ $ $ $ T >.0 #.j ",
"D $ $ $ $ $ $ $ $ $ $ $ $ $ $ $ . ~.= K &   ",
"{.$ $ $ $ $ $ $ $ $ $ $ $ $ $ $ -.].^.$     ",
"/.$ $ $ $ $ $ $ $ $ $ $ $ $ ^.!.2 ,.(.r     ",
"_.$ $ $ $ $ $ $ $ $ $ $ $ r :.<.[.!         ",
"}.< * * * * * * * * * * * |.1., m +         ",
"} 2.2.2.2.2.2.2.2.2.2.2.2.2.+.% > 3.        ",
"d 4.4.4.4.4.4.4.4.4.4.4.4.4.l $ ^.          ",
"                                            ",
"                                            ",
"                                            ",
"                                            ",
"                                            ",
"                                            ",
"                                            ",
"                                            "};
