/* XPM */
static const char * K[] = {
"22 49 123 2",
"  	c #000000",
". 	c #A9A9A9",
"+ 	c #A0A0A0",
"@ 	c #9E9E9E",
"# 	c #B8B8B8",
"$ 	c #F7F7F7",
"% 	c #FDFDFD",
"& 	c #FCFCFC",
"* 	c #EBEBEB",
"= 	c #E0E0E0",
"- 	c #A7A7A7",
"; 	c #A2A2A2",
"> 	c #D3D3D3",
", 	c #979797",
"' 	c #C9C9C9",
") 	c #B1B1B1",
"! 	c #F3F3F3",
"~ 	c #FBFBFB",
"{ 	c #FFFFFF",
"] 	c #CACACA",
"^ 	c #A1A1A1",
"/ 	c #6D6D6D",
"( 	c #EAEAEA",
"_ 	c #ECECEC",
": 	c #EEEEEE",
"< 	c #898989",
"[ 	c #D7D7D7",
"} 	c #6F6F6F",
"| 	c #A5A5A5",
"1 	c #5D5D5D",
"2 	c #F9F9F9",
"3 	c #D2D2D2",
"4 	c #9A9A9A",
"5 	c #DADADA",
"6 	c #E9E9E9",
"7 	c #E4E4E4",
"8 	c #969696",
"9 	c #E5E5E5",
"0 	c #BFBFBF",
"a 	c #C3C3C3",
"b 	c #E8E8E8",
"c 	c #BEBEBE",
"d 	c #959595",
"e 	c #F1F1F1",
"f 	c #797979",
"g 	c #BABABA",
"h 	c #CFCFCF",
"i 	c #E7E7E7",
"j 	c #DCDCDC",
"k 	c #ADADAD",
"l 	c #CECECE",
"m 	c #FAFAFA",
"n 	c #B7B7B7",
"o 	c #F8F8F8",
"p 	c #F4F4F4",
"q 	c #9F9F9F",
"r 	c #AEAEAE",
"s 	c #686868",
"t 	c #D0D0D0",
"u 	c #BDBDBD",
"v 	c #9C9C9C",
"w 	c #707070",
"x 	c #D8D8D8",
"y 	c #7A7A7A",
"z 	c #C8C8C8",
"A 	c #D9D9D9",
"B 	c #8D8D8D",
"C 	c #F0F0F0",
"D 	c #F2F2F2",
"E 	c #8F8F8F",
"F 	c #B0B0B0",
"G 	c #6E6E6E",
"H 	c #808080",
"I 	c #BBBBBB",
"J 	c #C6C6C6",
"K 	c #FEFEFE",
"L 	c #717171",
"M 	c #A8A8A8",
"N 	c #747474",
"O 	c #B4B4B4",
"P 	c #727272",
"Q 	c #E2E2E2",
"R 	c #666666",
"S 	c #999999",
"T 	c #737373",
"U 	c #EDEDED",
"V 	c #F6F6F6",
"W 	c #B3B3B3",
"X 	c #CCCCCC",
"Y 	c #A4A4A4",
"Z 	c #6B6B6B",
"` 	c #F5F5F5",
" .	c #E6E6E6",
"..	c #8C8C8C",
"+.	c #B9B9B9",
"@.	c #3B3B3B",
"#.	c #A6A6A6",
"$.	c #7D7D7D",
"%.	c #CDCDCD",
"&.	c #757575",
"*.	c #919191",
"=.	c #656565",
"-.	c #989898",
";.	c #ABABAB",
">.	c #7C7C7C",
",.	c #8E8E8E",
"'.	c #C1C1C1",
").	c #D1D1D1",
"!.	c #5A5A5A",
"~.	c #DBDBDB",
"{.	c #767676",
"].	c #BCBCBC",
"^.	c #DEDEDE",
"/.	c #CBCBCB",
"(.	c #C4C4C4",
"_.	c #D5D5D5",
":.	c #838383",
"<.	c #C5C5C5",
"[.	c #616161",
"}.	c #C7C7C7",
"|.	c #EFEFEF",
"1.	c #E3E3E3",
"2.	c #E1E1E1",
"                                            ",
"                                            ",
"                                            ",
"                                            ",
". + + + + + @ # $ % & * = - + + + + + + ; > ",
", ' ' ' ' ' ' ) ! ~ % { ] ] ' ' ' ' ' ] ^ ' ",
"/ { { { { { { ^ ( $ _ : < ~ { { { { { { - [ ",
"} { { { { { { ^ ( $   | 1 2 { { { { { 3 4 5 ",
"} { { { { { { ^ 6 & 7 8 9 { { { { { & 0 a _ ",
"} { { { { { { + b ~ c d e { { { { { 9 f g h ",
"} { { { { { { + i j k l { { { { { m ; n o p ",
"} { { { { { { q b 9 r $ { { { { { $ s t { { ",
"} { { { { { { q 9 u - { { { { { { _ v & 2   ",
"w { { { { { { q x y z { { { { { { / l A ~   ",
"w { { { { { { + ; f { { { { { { ] B C D     ",
"w { { { { { { v 1 b { { { { { { E t F C     ",
"w { { { { { { | G % { { { { { u H ! &       ",
"w { { { { { { { { { { { { { { I J = K       ",
"L { { { { { { { { { { { { { _ M j {         ",
"L { { { { { { { { { { { { { 5 ) * m         ",
"L { { { { { { { { { { { { D N O {           ",
"L { { { { { { { { { { { { D B : 6           ",
"P { { { { { { { { { { { { p @ { &           ",
"P { { { { { { { { { { { { D B 9 Q           ",
"P { { { { { { { { { { { { D R S {           ",
"T { { { { { { { { { { { { { A + A e         ",
"T { { { { { { { { { { { { { U v h V         ",
"T { { { { { { { { { { { { { { # W X o       ",
"T { { { { { { Y Z % { { { { { ~ ^ * `       ",
"N { { { { { { S R  .{ { { { { { ..+.@.=     ",
"N { { { { { { 4 #.$.{ { { { { { %.&.= Q     ",
"N { { { { { { S %.*.J { { { { { { =.W 0 C   ",
"N { { { { { { -.> %.| K { { { { { U < C _   ",
"&.{ { { { { { -.t ;.>.%.{ { { { { 2 ,.n { $ ",
"&.{ { { { { { -.h _ '.3 { { { { { { i Y 6 ! ",
"&.{ { { { { { , l m ).+ C { { { { { 7 !.~.{ ",
"{.{ { { { { { , X ).` .  .{ { { { { % ].# ^.",
"{.{ { { { { { , /.x q (.Z m { { { { { _.:.<.",
"[.}.J J J J }.&.X x e ` *.a J J J J J ' $.}.",
"h z z z z z z X |.! |.b 1.] z z z z z z ' 2.",
"p e e e e e e D & %   ~ m D e e e e e e C $ ",
"                                            ",
"                                            ",
"                                            ",
"                                            ",
"                                            ",
"                                            ",
"                                            ",
"                                            "};
