/* XPM */
static const char * L[] = {
"22 49 92 2",
"  	c #000000",
". 	c #B4B4B4",
"+ 	c #A0A0A0",
"@ 	c #9F9F9F",
"# 	c #ABABAB",
"$ 	c #E9E9E9",
"% 	c #F0F0F0",
"& 	c #A1A1A1",
"* 	c #C9C9C9",
"= 	c #A4A4A4",
"- 	c #DFDFDF",
"; 	c #E8E8E8",
"> 	c #757575",
", 	c #FFFFFF",
"' 	c #979797",
") 	c #CBCBCB",
"! 	c #D8D8D8",
"~ 	c #767676",
"{ 	c #989898",
"] 	c #CFCFCF",
"^ 	c #DCDCDC",
"/ 	c #D1D1D1",
"( 	c #DEDEDE",
"_ 	c #999999",
": 	c #D4D4D4",
"< 	c #E1E1E1",
"[ 	c #9A9A9A",
"} 	c #D6D6D6",
"| 	c #E3E3E3",
"1 	c #E5E5E5",
"2 	c #747474",
"3 	c #9B9B9B",
"4 	c #DBDBDB",
"5 	c #9C9C9C",
"6 	c #DDDDDD",
"7 	c #EAEAEA",
"8 	c #9D9D9D",
"9 	c #E0E0E0",
"0 	c #EDEDED",
"a 	c #9E9E9E",
"b 	c #E2E2E2",
"c 	c #EFEFEF",
"d 	c #737373",
"e 	c #E4E4E4",
"f 	c #F1F1F1",
"g 	c #E6E6E6",
"h 	c #F4F4F4",
"i 	c #F6F6F6",
"j 	c #A2A2A2",
"k 	c #EBEBEB",
"l 	c #F9F9F9",
"m 	c #727272",
"n 	c #A3A3A3",
"o 	c #EEEEEE",
"p 	c #FBFBFB",
"q 	c #A5A5A5",
"r 	c #FDFDFD",
"s 	c #A7A7A7",
"t 	c #717171",
"u 	c #A9A9A9",
"v 	c #656565",
"w 	c #AAAAAA",
"x 	c #696969",
"y 	c #ACACAC",
"z 	c #6E6E6E",
"A 	c #AEAEAE",
"B 	c #707070",
"C 	c #B0B0B0",
"D 	c #787878",
"E 	c #C6C6C6",
"F 	c #7F7F7F",
"G 	c #BFBFBF",
"H 	c #6B6B6B",
"I 	c #FAFAFA",
"J 	c #BDBDBD",
"K 	c #444444",
"L 	c #BBBBBB",
"M 	c #C2C2C2",
"N 	c #FEFEFE",
"O 	c #BABABA",
"P 	c #F7F7F7",
"Q 	c #6F6F6F",
"R 	c #AFAFAF",
"S 	c #F3F3F3",
"T 	c #F5F5F5",
"U 	c #ECECEC",
"V 	c #545454",
"W 	c #C7C7C7",
"X 	c #E7E7E7",
"Y 	c #CCCCCC",
"Z 	c #C8C8C8",
"` 	c #F2F2F2",
"                                            ",
"                                            ",
"                                            ",
"                                            ",
". + + + + + @ # $ %                         ",
"& * * * * * * = - ;                         ",
"> , , , , , , ' ) !                         ",
"~ , , , , , , { ] ^                         ",
"> , , , , , , { / (                         ",
"> , , , , , , _ : <                         ",
"> , , , , , , [ } |                         ",
"> , , , , , , [ ! 1                         ",
"2 , , , , , , 3 4 ;                         ",
"2 , , , , , , 5 6 7                         ",
"2 , , , , , , 8 9 0                         ",
"2 , , , , , , a b c                         ",
"d , , , , , , @ e f                         ",
"d , , , , , , + g h                         ",
"d , , , , , , & $ i                         ",
"d , , , , , , j k l                         ",
"m , , , , , , n o p                         ",
"m , , , , , , q k r                         ",
"m , , , , , , s   r                         ",
"t , , , , , , u v                           ",
"t , , , , , , w x                           ",
"t , , , , , , y z                           ",
"t , , , , , , A d                           ",
"B , , , , , , C D                           ",
"B , , , , , E t F                           ",
"B , , , , , G H 4 p I I I I I I I I p r p I ",
"B , , , , , J K L M M M M M M M M M E < N I ",
"B , , , , , c 4 ( ( ( ( ( ( ( ( ( ( ) O p P ",
"Q , , , , , , , , , , , , , , , , , g R P S ",
"Q , , , , , , , , , , , , , , , , , 1 # T f ",
"Q , , , , , , , , , , , , , , , , , 1 s S o ",
"Q , , , , , , , , , , , , , , , , , 1 = % U ",
"Q , , , , , , , , , , , , , , , , , e & o $ ",
"Q , , , , , , , , , , , , , , , , , 1 a k g ",
"V W E E E E E E E E E E E E E E E E C 5 X | ",
"Y Z Z Z Z Z Z Z Z Z Z Z Z Z Z Z Z Z * 9 P T ",
"` f f f f f f f f f f f f f f f f f f P N r ",
"                                            ",
"                                            ",
"                                            ",
"                                            ",
"                                            ",
"                                            ",
"                                            ",
"                                            "};
