/* XPM */
static const char * one[] = {
"13 45 106 2",
"  	c #000000",
". 	c #A8A8A8",
"+ 	c #A2A2A2",
"@ 	c #ADADAD",
"# 	c #E3E3E3",
"$ 	c #E1E1E1",
"% 	c #A9A9A9",
"& 	c #9E9E9E",
"* 	c #AFAFAF",
"= 	c #E4E4E4",
"- 	c #E2E2E2",
"; 	c #868686",
"> 	c #F9F9F9",
", 	c #F7F7F7",
"' 	c #6A6A6A",
") 	c #B7B7B7",
"! 	c #B4B4B4",
"~ 	c #838383",
"{ 	c #FFFFFF",
"] 	c #5E5E5E",
"^ 	c #B2B2B2",
"/ 	c #5F5F5F",
"( 	c #B3B3B3",
"_ 	c #B1B1B1",
": 	c #898989",
"< 	c #8D8D8D",
"[ 	c #B5B5B5",
"} 	c #929292",
"| 	c #606060",
"1 	c #B6B6B6",
"2 	c #F1F1F1",
"3 	c #EFEFEF",
"4 	c #FEFEFE",
"5 	c #A1A1A1",
"6 	c #767676",
"7 	c #787878",
"8 	c #707070",
"9 	c #1B1B1B",
"0 	c #FBFBFB",
"a 	c #B8B8B8",
"b 	c #D1D1D1",
"c 	c #C3C3C3",
"d 	c #6F6F6F",
"e 	c #B9B9B9",
"f 	c #CDCDCD",
"g 	c #727272",
"h 	c #616161",
"i 	c #BABABA",
"j 	c #C8C8C8",
"k 	c #BBBBBB",
"l 	c #6C6C6C",
"m 	c #BCBCBC",
"n 	c #BEBEBE",
"o 	c #696969",
"p 	c #BDBDBD",
"q 	c #656565",
"r 	c #626262",
"s 	c #BFBFBF",
"t 	c #C0C0C0",
"u 	c #5C5C5C",
"v 	c #5A5A5A",
"w 	c #9A9A9A",
"x 	c #979797",
"y 	c #A3A3A3",
"z 	c #595959",
"A 	c #555555",
"B 	c #636363",
"C 	c #989898",
"D 	c #525252",
"E 	c #C4C4C4",
"F 	c #C1C1C1",
"G 	c #939393",
"H 	c #4E4E4E",
"I 	c #C5C5C5",
"J 	c #C2C2C2",
"K 	c #8E8E8E",
"L 	c #4B4B4B",
"M 	c #646464",
"N 	c #484848",
"O 	c #C7C7C7",
"P 	c #818181",
"Q 	c #757575",
"R 	c #FCFCFC",
"S 	c #E5E5E5",
"T 	c #C6C6C6",
"U 	c #686868",
"V 	c #C9C9C9",
"W 	c #CACACA",
"X 	c #5D5D5D",
"Y 	c #CBCBCB",
"Z 	c #575757",
"` 	c #666666",
" .	c #CCCCCC",
"..	c #FDFDFD",
"+.	c #DADADA",
"@.	c #959595",
"#.	c #A5A5A5",
"$.	c #A6A6A6",
"%.	c #D2D2D2",
"&.	c #CFCFCF",
"*.	c #E6E6E6",
"=.	c #E8E8E8",
"-.	c #F8F8F8",
";.	c #F5F5F5",
">.	c #F0F0F0",
",.	c #F2F2F2",
"                          ",
"                          ",
"                          ",
". + + + + + + + + + @ # $ ",
"% & & & & & & & & & * = - ",
"; > , , , , , , , > ' ) ! ",
"~ { { { { { { { { { ] ^ * ",
"; { { { { { { { { { / ( _ ",
": { { { { { { { { { / ! _ ",
"< { { { { { { { { { / [ ^ ",
"} { { { { { { { { { | 1 ! ",
"} 2 3 3 3 4 { { { { | ) ! ",
"5 6 7 8 9 0 { { { { | a [ ",
"b ! [ c d 0 { { { { | e ) ",
"      f g 0 { { { { h i ) ",
"      j d 0 { { { { h k a ",
"      c l 0 { { { { h m e ",
"      n o 0 { { { { h p i ",
"      a q 0 { { { { h p k ",
"      ( r 0 { { { { r s m ",
"      @ / 0 { { { { r t n ",
"      . u 0 { { { { v w x ",
"      y z 0 { { { { r p k ",
"      & A 0 { { { { B c t ",
"      C D 0 { { { { B E F ",
"      G H 0 { { { { B I J ",
"      K L 0 { { { { M I J ",
"      : N 0 { { { { M O E ",
"      P Q R { { { { M O E ",
"      d S { { { { { M j T ",
"      U # { { { { { M V T ",
"      B - { { { { { q W O ",
"      X $ { { { { { q Y V ",
"      Z $ { { { { { `  .V ",
"    4 . $ { { { { { ` f W ",
"    ..+.@.#.#.#.#.$.z %.&.",
"    ..3 *.S S S S S =.> -.",
"      ;.2 >.>.>.>.>.,.R R ",
"                          ",
"                          ",
"                          ",
"                          ",
"                          ",
"                          ",
"                          "};
