/* XPM */
static const char * Q[] = {
"26 49 133 2",
"  	c #000000",
". 	c #FDFDFD",
"+ 	c #F2F2F2",
"@ 	c #B3B3B3",
"# 	c #9F9F9F",
"$ 	c #A0A0A0",
"% 	c #AEAEAE",
"& 	c #EFEFEF",
"* 	c #F3F3F3",
"= 	c #EAEAEA",
"- 	c #EEEEEE",
"; 	c #DEDEDE",
"> 	c #C9C9C9",
", 	c #A3A3A3",
"' 	c #D0D0D0",
") 	c #F7F7F7",
"! 	c #F5F5F5",
"~ 	c #F4F4F4",
"{ 	c #FCFCFC",
"] 	c #E5E5E5",
"^ 	c #E7E7E7",
"/ 	c #FFFFFF",
"( 	c #DCDCDC",
"_ 	c #686868",
": 	c #C8C8C8",
"< 	c #FBFBFB",
"[ 	c #A7A7A7",
"} 	c #8B8B8B",
"| 	c #E4E4E4",
"1 	c #646464",
"2 	c #CDCDCD",
"3 	c #E8E8E8",
"4 	c #B7B7B7",
"5 	c #848484",
"6 	c #FAFAFA",
"7 	c #DFDFDF",
"8 	c #6D6D6D",
"9 	c #D4D4D4",
"0 	c #F0F0F0",
"a 	c #DADADA",
"b 	c #767676",
"c 	c #D5D5D5",
"d 	c #717171",
"e 	c #D3D3D3",
"f 	c #F9F9F9",
"g 	c #D1D1D1",
"h 	c #A6A6A6",
"i 	c #6B6B6B",
"j 	c #BEBEBE",
"k 	c #AAAAAA",
"l 	c #5A5A5A",
"m 	c #F1F1F1",
"n 	c #F8F8F8",
"o 	c #A4A4A4",
"p 	c #747474",
"q 	c #E3E3E3",
"r 	c #535353",
"s 	c #696969",
"t 	c #434343",
"u 	c #B0B0B0",
"v 	c #757575",
"w 	c #B8B8B8",
"x 	c #B5B5B5",
"y 	c #B6B6B6",
"z 	c #A9A9A9",
"A 	c #B1B1B1",
"B 	c #A2A2A2",
"C 	c #ECECEC",
"D 	c #B2B2B2",
"E 	c #C1C1C1",
"F 	c #898989",
"G 	c #777777",
"H 	c #D9D9D9",
"I 	c #C4C4C4",
"J 	c #A1A1A1",
"K 	c #DDDDDD",
"L 	c #808080",
"M 	c #6A6A6A",
"N 	c #E1E1E1",
"O 	c #CCCCCC",
"P 	c #7B7B7B",
"Q 	c #CFCFCF",
"R 	c #8A8A8A",
"S 	c #FEFEFE",
"T 	c #888888",
"U 	c #D6D6D6",
"V 	c #B4B4B4",
"W 	c #9E9E9E",
"X 	c #858585",
"Y 	c #F6F6F6",
"Z 	c #9D9D9D",
"` 	c #818181",
" .	c #7E7E7E",
"..	c #9C9C9C",
"+.	c #EBEBEB",
"@.	c #DBDBDB",
"#.	c #C7C7C7",
"$.	c #787878",
"%.	c #797979",
"&.	c #CACACA",
"*.	c #BABABA",
"=.	c #9B9B9B",
"-.	c #828282",
";.	c #999999",
">.	c #8F8F8F",
",.	c #7F7F7F",
"'.	c #707070",
").	c #ACACAC",
"!.	c #BDBDBD",
"~.	c #9A9A9A",
"{.	c #515151",
"].	c #2A2A2A",
"^.	c #C0C0C0",
"/.	c #585858",
"(.	c #424242",
"_.	c #C5C5C5",
":.	c #525252",
"<.	c #C3C3C3",
"[.	c #989898",
"}.	c #7A7A7A",
"|.	c #979797",
"1.	c #868686",
"2.	c #E2E2E2",
"3.	c #909090",
"4.	c #C6C6C6",
"5.	c #BCBCBC",
"6.	c #BBBBBB",
"7.	c #737373",
"8.	c #6E6E6E",
"9.	c #575757",
"0.	c #BFBFBF",
"a.	c #838383",
"b.	c #919191",
"                                                    ",
"                                                    ",
"                                                    ",
"                                                    ",
"      . + @ # $ $ $ $ $ $ $ $ $ # % & * *           ",
"    = - ; @ > > > > > > > > > > > , ' ) ! ~         ",
"  { ) ] # ^ / / / / / / / / / / / ( _ : < !         ",
"  < { [ } / / / / / / / / / / / / / | 1 2 ! +       ",
"3 ~ 4 5 6 / / / / / / / / / / / / / / 7 8 9 0 ~ ~   ",
"{ a b * / / / / / / / / / / / / / / / / c d e f 6 { ",
"g [ h f / / / / / / / / / / / / / / / / / c i 9 / { ",
"j , f / / / / / / / / / / / / / / / / / / / ; k < ) ",
"l 4 / / / / / + m m m m m m m m n / / / / / * o f ! ",
"p / / / / / q r s _ _ _ _ _ _ t u / / / / / * , f ! ",
"p / / / / / 5 v w x y y y x w z A / / / / / * B f ~ ",
"p / / / / / C } # D D D D D ( E A / / / / / * B n ~ ",
"p / / / / / / F G           H I A / / / / / * J n ~ ",
"p / / / / / / 5 d           K : A / / / / / * $ ) * ",
"v / / / / / / L M           N O D / / / / / * $ ) * ",
"v / / / / / / P   .         | Q @ / / / / / * # ) * ",
"v / / / / / / R S .         3 e @ / / / / / * # ) + ",
"b / / / / / / T < 6         C U V / / / / / * W ) + ",
"b / / / / / / X ) Y         & H x / / / / / * Z Y m ",
"b / / / / / / ` ~ *         + K y / / / / / * Z ! m ",
"G / / / / / /  .0 &         Y N 4 / / / / / + ..Y m ",
"G / / / / / / P C +.6 C @.#./ | w / / / / / + ..! m ",
"$./ / / / / / %.+.O / 0 7 &.j N *./ / / / / + =.~ 0 ",
"$./ / / / / / _ % -.;.>.,.'.M ).!./ / / / / + ~.! 0 ",
"$./ / / / / / {.].^.Y ! ~ ~ 0 r *./ / / / / + ~.~ & ",
"%./ / / / / / /.(._./ / / / < F : / / / / / + ;.~ & ",
"%./ / / / / / :./.<./ / / / / / / / / / / / + [.* - ",
"}./ / / / / / ; ( 0 / / / / / / / / / / / / * ..! m ",
"P / / / / / / / / / / / / / / / / / / / / f  .y / + ",
"} + / / / / / / / / / / / / / / / / / / / F [ { 6   ",
"h F 0 / / / / / / / / / / / / / / / / / ] J ] ) <   ",
"] > |.) / / / / / / / / / / / / / / / = 1.K + =     ",
"/ 6 2 1.6 / / / / / / / / / / / / / / 2.w ~ S       ",
"S / ) I 3.! / / / / / / / / / / / / / N y 0 +       ",
"    / { > J #.4.4.4.4.4._.- / / / / / - $ 9 !       ",
"    S / ) K : : : : : : 5.=.! / / / / / 6.D !.)     ",
"      S / 6 m m m m m m n D 7.n 6 < ~ 8.9.P m )     ",
"                      < 0.7 3.a.b., J A #.7 6 {     ",
"                        S S ~ ! 6 / / @ > N < {     ",
"                        . . m + ) . S               ",
"                                                    ",
"                                                    ",
"                                                    ",
"                                                    ",
"                                                    "};
