/* XPM */
static const char * slash[] = {
"21 45 108 2",
"  	c #000000",
". 	c #E7E7E7",
"+ 	c #E9E9E9",
"@ 	c #B4B4B4",
"# 	c #A2A2A2",
"$ 	c #B2B2B2",
"% 	c #DFDFDF",
"& 	c #DDDDDD",
"* 	c #EBEBEB",
"= 	c #B6B6B6",
"- 	c #9E9E9E",
"; 	c #B3B3B3",
"> 	c #E0E0E0",
", 	c #DEDEDE",
"' 	c #FFFFFF",
") 	c #A5A5A5",
"! 	c #717171",
"~ 	c #F5F5F5",
"{ 	c #F7F7F7",
"] 	c #747474",
"^ 	c #CFCFCF",
"/ 	c #CBCBCB",
"( 	c #ECECEC",
"_ 	c #ADADAD",
": 	c #EAEAEA",
"< 	c #FEFEFE",
"[ 	c #878787",
"} 	c #F0F0F0",
"| 	c #F4F4F4",
"1 	c #A0A0A0",
"2 	c #BFBFBF",
"3 	c #F8F8F8",
"4 	c #C7C7C7",
"5 	c #EFEFEF",
"6 	c #DADADA",
"7 	c #8D8D8D",
"8 	c #EEEEEE",
"9 	c #F1F1F1",
"0 	c #EDEDED",
"a 	c #A1A1A1",
"b 	c #B9B9B9",
"c 	c #AFAFAF",
"d 	c #858585",
"e 	c #BCBCBC",
"f 	c #D3D3D3",
"g 	c #C3C3C3",
"h 	c #BEBEBE",
"i 	c #7D7D7D",
"j 	c #6D6D6D",
"k 	c #A8A8A8",
"l 	c #7F7F7F",
"m 	c #E2E2E2",
"n 	c #9F9F9F",
"o 	c #6E6E6E",
"p 	c #FDFDFD",
"q 	c #FCFCFC",
"r 	c #C6C6C6",
"s 	c #D8D8D8",
"t 	c #D4D4D4",
"u 	c #D5D5D5",
"v 	c #9A9A9A",
"w 	c #E8E8E8",
"x 	c #C8C8C8",
"y 	c #7E7E7E",
"z 	c #C5C5C5",
"A 	c #CCCCCC",
"B 	c #F6F6F6",
"C 	c #CACACA",
"D 	c #BBBBBB",
"E 	c #F3F3F3",
"F 	c #8A8A8A",
"G 	c #F2F2F2",
"H 	c #D9D9D9",
"I 	c #A9A9A9",
"J 	c #B0B0B0",
"K 	c #777777",
"L 	c #AAAAAA",
"M 	c #B1B1B1",
"N 	c #727272",
"O 	c #6C6C6C",
"P 	c #B8B8B8",
"Q 	c #7B7B7B",
"R 	c #E5E5E5",
"S 	c #FAFAFA",
"T 	c #838383",
"U 	c #949494",
"V 	c #F9F9F9",
"W 	c #E1E1E1",
"X 	c #828282",
"Y 	c #D6D6D6",
"Z 	c #8E8E8E",
"` 	c #929292",
" .	c #BABABA",
"..	c #CECECE",
"+.	c #939393",
"@.	c #C9C9C9",
"#.	c #757575",
"$.	c #868686",
"%.	c #5F5F5F",
"&.	c #565656",
"*.	c #E4E4E4",
"=.	c #AEAEAE",
"-.	c #969696",
";.	c #E6E6E6",
">.	c #989898",
",.	c #767676",
"'.	c #9B9B9B",
").	c #FBFBFB",
"                                          ",
"                                          ",
"                                          ",
"                  . + @ # # # # # # $ % & ",
"                  + * = - - - - - - ; > , ",
"                  ' ) ! ~ { { { { ~ ] ^ / ",
"                  ( _ : ' ' ' ' ' < [ ~ } ",
"                | 1 2 3 ' ' ' ' ' = ; 4 5 ",
"                } 6 2 ' ' ' ' ' ' 7 8 9   ",
"              0   a b ' ' ' ' ' + c   |   ",
"              0 : d } ' ' ' ' ' e f .     ",
"            2 g h i ' ' ' ' ' + j k 9     ",
"            5 { l g ' ' ' ' ' * ) m       ",
"            n ^ o < ' ' ' ' p d a q       ",
"            < r : ' ' ' ' ' p ! s t       ",
"          p u v w ' ' ' ' ' x 7 ' 3       ",
"          q w h q ' ' ' ' ' y z A B       ",
"          , C D ' ' ' ' ' E F G ~         ",
"        m   - . ' ' ' ' ' b k   ~         ",
"        % & [ ' ' ' ' ' < e H 8           ",
"      p ' I J ' ' ' ' ' w K L G           ",
"      8 G [ < ' ' ' ' ' * M 5             ",
"      ' = N p ' ' ' ' p O k '             ",
"      | P * ' ' ' ' ' < Q R m             ",
"    S b T w ' ' ' ' ' c U ' V             ",
"    B W h < ' ' ' ' ' X Y s               ",
"  S   M b ' ' ' ' ' . Z 9 ~               ",
"  S { ` E ' ' ' ' '  .b ; |               ",
"| f ..l ' ' ' ' ' q = > {                 ",
"~ q +.@.' ' ' ' ' w d  .3                 ",
"6 , #.p ' ' ' ' ' w b {                   ",
"' ) $.p ' ' ' ' p %.; &.                  ",
"*.k * ' ' ' ' ' ' $.} (                   ",
"=.N + ' ' ' ' ' -.# ' {                   ",
"t h ' ' ' ' ' ' [ *.;.                    ",
">.,.) ) ) ) ) ) '.B S                     ",
"0 *.R R R R R R G ~ o                     ",
"~ 5 } } } } } } V ).                      ",
"                                          ",
"                                          ",
"                                          ",
"                                          ",
"                                          ",
"                                          ",
"                                          "};
