/* XPM */
static const char * U[] = {
"25 49 124 2",
"  	c #000000",
". 	c #ABABAB",
"+ 	c #A0A0A0",
"@ 	c #A1A1A1",
"# 	c #CECECE",
"$ 	c #D8D8D8",
"% 	c #EAEAEA",
"& 	c #CDCDCD",
"* 	c #D5D5D5",
"= 	c #D4D4D4",
"- 	c #9A9A9A",
"; 	c #C9C9C9",
"> 	c #A7A7A7",
", 	c #B6B6B6",
"' 	c #C2C2C2",
") 	c #CCCCCC",
"! 	c #AEAEAE",
"~ 	c #B8B8B8",
"{ 	c #C6C6C6",
"] 	c #BDBDBD",
"^ 	c #707070",
"/ 	c #FFFFFF",
"( 	c #B0B0B0",
"_ 	c #797979",
": 	c #8A8A8A",
"< 	c #777777",
"[ 	c #DCDCDC",
"} 	c #EFEFEF",
"| 	c #7E7E7E",
"1 	c #848484",
"2 	c #727272",
"3 	c #B2B2B2",
"4 	c #888888",
"5 	c #909090",
"6 	c #DBDBDB",
"7 	c #EEEEEE",
"8 	c #7F7F7F",
"9 	c #858585",
"0 	c #FEFEFE",
"a 	c #A8A8A8",
"b 	c #949494",
"c 	c #808080",
"d 	c #D2D2D2",
"e 	c #979797",
"f 	c #7D7D7D",
"g 	c #A5A5A5",
"h 	c #7C7C7C",
"i 	c #D6D6D6",
"j 	c #828282",
"k 	c #A3A3A3",
"l 	c #787878",
"m 	c #D7D7D7",
"n 	c #9C9C9C",
"o 	c #7B7B7B",
"p 	c #818181",
"q 	c #737373",
"r 	c #747474",
"s 	c #DADADA",
"t 	c #9D9D9D",
"u 	c #7A7A7A",
"v 	c #717171",
"w 	c #9F9F9F",
"x 	c #EDEDED",
"y 	c #9E9E9E",
"z 	c #FDFDFD",
"A 	c #DDDDDD",
"B 	c #F4F4F4",
"C 	c #DEDEDE",
"D 	c #A2A2A2",
"E 	c #9B9B9B",
"F 	c #F5F5F5",
"G 	c #FCFCFC",
"H 	c #E1E1E1",
"I 	c #A4A4A4",
"J 	c #BBBBBB",
"K 	c #999999",
"L 	c #F3F3F3",
"M 	c #FAFAFA",
"N 	c #E2E2E2",
"O 	c #989898",
"P 	c #F1F1F1",
"Q 	c #F8F8F8",
"R 	c #E4E4E4",
"S 	c #969696",
"T 	c #F6F6F6",
"U 	c #E5E5E5",
"V 	c #A9A9A9",
"W 	c #BCBCBC",
"X 	c #959595",
"Y 	c #E8E8E8",
"Z 	c #939393",
"` 	c #EBEBEB",
" .	c #F2F2F2",
"..	c #E9E9E9",
"+.	c #ACACAC",
"@.	c #757575",
"#.	c #929292",
"$.	c #F0F0F0",
"%.	c #AFAFAF",
"&.	c #E7E7E7",
"*.	c #ECECEC",
"=.	c #8F8F8F",
"-.	c #E6E6E6",
";.	c #BABABA",
">.	c #8E8E8E",
",.	c #B4B4B4",
"'.	c #767676",
").	c #8D8D8D",
"!.	c #B9B9B9",
"~.	c #8C8C8C",
"{.	c #E0E0E0",
"].	c #FBFBFB",
"^.	c #C3C3C3",
"/.	c #C1C1C1",
"(.	c #B7B7B7",
"_.	c #838383",
":.	c #CACACA",
"<.	c #D0D0D0",
"[.	c #919191",
"}.	c #F9F9F9",
"|.	c #5F5F5F",
"1.	c #C7C7C7",
"2.	c #DFDFDF",
"3.	c #C8C8C8",
"                                                  ",
"                                                  ",
"                                                  ",
"                                                  ",
". + + + + + @ # $         % & @ + + + + + . * =   ",
"- ; ; ; ; ; > , '         ) ! ~ ; ; ; ; ; { ] ]   ",
"^ / / / / / ( _ :         . < [ / / / / / } | 1   ",
"2 / / / / / 3 _ 4         ; 5 6 / / / / / 7 8 9   ",
"2 / / / / / 0 a 9         # b 6 / / / / / 7 8 9   ",
"2 / / / / / / > c         d e 6 / / / / / 7 f 1   ",
"2 / / / / / / g h         i - 6 / / / / / 7 h j   ",
"2 / / / / / / k l         m n 6 / / / / / 7 o p   ",
"q / / / / / / @ r         s t 6 / / / / / 7 u p   ",
"q / / / / / / + v         6 w 6 / / / / / x _ c   ",
"q / / / / / / y   z       A @ 6 / / / / / x l |   ",
"q / / / / / / t B z       C D 6 / / / / / x _   0 ",
"q / / / / / / E F G       H I 6 / / / / / x J / 0 ",
"r / / / / / / K L M       N g 6 / / / / / x ] / 0 ",
"r / / / / / / O P Q       R > 6 / / / / / x ] / 0 ",
"r / / / / / / S } T       U V 6 / / / / / x W / z ",
"r / / / / / / X x B       Y . [ / / / / / x W / z ",
"r / / / / / / Z `  .      ..+.[ / / / / / x J / z ",
"@./ / / / / / #...$.      ` %.[ / / / / / x J / z ",
"@./ / / / / / 5 &.}       *.( [ / / / / / x J / G ",
"@./ / / / / / =.-.x       } 3 A / / / / / *.;./ G ",
"@./ / / / / / >.R `       $.,.A / / / / / *.;./ G ",
"'./ / / / / / ).N ..       ., A / / / / / *.!./ G ",
"'./ / / / / / ~.{.&.      L ~ A / / / / / *.!./ ].",
"'./ / / / / / : C U       T ;.A / / / / / *.~ / ].",
"< / / / / / / : A z M M ].Q J C / / / / / *.~ / ].",
"< / / / / / / p a ^.' ' ' /.4 [ / / / / / *.(./ M ",
"< / / / / / / R A C C C C C [ F / / / / / x !./ ].",
"l / / / / / / / / / / / / / / / / / / / B _.:./ G ",
"9 $./ / / / / / / / / / / / / / / / / / @.! @ :.  ",
"k S *./ / / / / / / / / / / / / / / / 6 . $.B     ",
"$.<.[.P / / / / / / / / / / / / / / s ).' / P     ",
"/ }.# p F / / / / / / / / / / / / Y |.d P =       ",
"z z / ) p $./ / / / / / / / / / 0 d @ U /         ",
"  0 / z # #.1.{ { { { { { { { { /.j 6 6 H         ",
"    z }.}.2.3.3.3.3.3.3.3.3.3.3.:.{./ z           ",
"      z 0 M P P P P P P P P P P  .M M M           ",
"                                                  ",
"                                                  ",
"                                                  ",
"                                                  ",
"                                                  ",
"                                                  ",
"                                                  ",
"                                                  "};
