/* XPM */
static const char * V[] = {
"24 49 134 2",
"  	c #000000",
". 	c #B5B5B5",
"+ 	c #A0A0A0",
"@ 	c #ADADAD",
"# 	c #EDEDED",
"$ 	c #EFEFEF",
"% 	c #F2F2F2",
"& 	c #F4F4F4",
"* 	c #BEBEBE",
"= 	c #9F9F9F",
"- 	c #B7B7B7",
"; 	c #F6F6F6",
"> 	c #A7A7A7",
", 	c #CBCBCB",
"' 	c #C9C9C9",
") 	c #9C9C9C",
"! 	c #DEDEDE",
"~ 	c #E0E0E0",
"{ 	c #E7E7E7",
"] 	c #E9E9E9",
"^ 	c #C7C7C7",
"/ 	c #CACACA",
"( 	c #F3F3F3",
"_ 	c #828282",
": 	c #D2D2D2",
"< 	c #FFFFFF",
"[ 	c #6E6E6E",
"} 	c #A6A6A6",
"| 	c #FEFEFE",
"1 	c #C1C1C1",
"2 	c #C3C3C3",
"3 	c #616161",
"4 	c #FDFDFD",
"5 	c #E6E6E6",
"6 	c #909090",
"7 	c #A4A4A4",
"8 	c #EAEAEA",
"9 	c #959595",
"0 	c #5D5D5D",
"a 	c #FBFBFB",
"b 	c #CECECE",
"c 	c #868686",
"d 	c #AAAAAA",
"e 	c #D6D6D6",
"f 	c #FCFCFC",
"g 	c #7E7E7E",
"h 	c #F0F0F0",
"i 	c #F8F8F8",
"j 	c #8C8C8C",
"k 	c #ECECEC",
"l 	c #A1A1A1",
"m 	c #CCCCCC",
"n 	c #9B9B9B",
"o 	c #636363",
"p 	c #FAFAFA",
"q 	c #ACACAC",
"r 	c #EEEEEE",
"s 	c #CFCFCF",
"t 	c #B3B3B3",
"u 	c #DFDFDF",
"v 	c #848484",
"w 	c #CDCDCD",
"x 	c #989898",
"y 	c #BDBDBD",
"z 	c #F1F1F1",
"A 	c #9D9D9D",
"B 	c #D1D1D1",
"C 	c #D7D7D7",
"D 	c #ABABAB",
"E 	c #DADADA",
"F 	c #D4D4D4",
"G 	c #999999",
"H 	c #E8E8E8",
"I 	c #B8B8B8",
"J 	c #BBBBBB",
"K 	c #737373",
"L 	c #8E8E8E",
"M 	c #B4B4B4",
"N 	c #797979",
"O 	c #C8C8C8",
"P 	c #939393",
"Q 	c #707070",
"R 	c #C6C6C6",
"S 	c #7A7A7A",
"T 	c #F7F7F7",
"U 	c #B0B0B0",
"V 	c #C2C2C2",
"W 	c #8A8A8A",
"X 	c #DBDBDB",
"Y 	c #EBEBEB",
"Z 	c #D3D3D3",
"` 	c #E5E5E5",
" .	c #B2B2B2",
"..	c #E1E1E1",
"+.	c #A9A9A9",
"@.	c #F9F9F9",
"#.	c #AEAEAE",
"$.	c #585858",
"%.	c #919191",
"&.	c #BFBFBF",
"*.	c #969696",
"=.	c #DCDCDC",
"-.	c #717171",
";.	c #9A9A9A",
">.	c #6D6D6D",
",.	c #B6B6B6",
"'.	c #9E9E9E",
").	c #C4C4C4",
"!.	c #606060",
"~.	c #A5A5A5",
"{.	c #727272",
"].	c #DDDDDD",
"^.	c #787878",
"/.	c #E4E4E4",
"(.	c #A8A8A8",
"_.	c #818181",
":.	c #F5F5F5",
"<.	c #C5C5C5",
"[.	c #949494",
"}.	c #7C7C7C",
"|.	c #747474",
"1.	c #6B6B6B",
"2.	c #AFAFAF",
"3.	c #E3E3E3",
"4.	c #7F7F7F",
"5.	c #929292",
"6.	c #898989",
"7.	c #BCBCBC",
"8.	c #D9D9D9",
"9.	c #B1B1B1",
"0.	c #4D4D4D",
"a.	c #C0C0C0",
"b.	c #858585",
"c.	c #A2A2A2",
"                                                ",
"                                                ",
"                                                ",
"                                                ",
". + + + + + + @ # $       % & * + + + + + = - ; ",
"> , ' ' ' ' ' ) ! ~       { ] > ^ ' ' ' ' / - ( ",
"_ : < < < < < [ } : |     1 2 3 4 < < < < 5 6 ~ ",
"} 7 < < < < < 8 9 < |     7 } 0 a < < < < b c d ",
"e > < < < < < f g % h   i < j k < < < < < b l m ",
"5 n % < < < < a o , '   ; p q r < < < < < s t u ",
"= v w < < < < 4 2 x y ; # z A # < < < < < B ^ ( ",
"C D b < < < < < $ } a ; E u j k < < < < < F G < ",
"& 2 : < < < < < k G k H I J K k < < < < # o 6 L ",
"M _ * p < < < < k N ^ 2 O L P % < < < < k Q - M ",
"R / S k < < < < T U _ ' < V C < < < < < k W X C ",
"Y $ ) # < < < < < Z V ; & O B < < < < < # n $ Y ",
"p < t ` < < < < < s  .! ... s < < < < < r +.@.& ",
"a I #.$.a < < < < w %.. &.*.b < < < < < z U < f ",
"  =.! -.a < < < < Y ;.` l >.w < < < < 4 ,.'.).f ",
"  @.f j a < < < < < D ` l U ; < < < < a !.1 &.  ",
"  4 < *.v < < < < < ~.R @  .< < < < < a {.u ].  ",
"    / ^ ^.< < < < < 2 +./.(.< < < < < f _.T :.  ",
"    k H c < < < < < < '.<.~.< < < < < | [.< 4   ",
"    i k }.V < < < < < _ ) ~.< < < < < ~.P < |   ",
"      t 7 7 < < < < < |.1.2.< < < < < |.2. .    ",
"      3.B } < < < < < 7 |.< < < < < < ^./ b     ",
"      T { t < < < < < < / < < < < < < 4.]...    ",
"      | =.[.].< < < < < < < < < < < < W h &     ",
"        s 7 b < < < < < < < < < < < a 5.X i     ",
"        ; O B < < < < < < < < < < < ~.6.*.      ",
"        < ' d T < < < < < < < < < < 7 @ 7.      ",
"        8.* |.k < < < < < < < < < < 7 , ].      ",
"        ..` [.# < < < < < < < < < < (.X #       ",
"        @.| (.C | < < < < < < < < < 9.5 T       ",
"        @.V l 0.a < < < < < < < < < a.` 4       ",
"          C 8.>.a < < < < < < < < u = '.4       ",
"          h ( b.f < < < < < < < < b A ^         ",
"          %   6 ] < < < < < < < < s - /.        ",
"            &.7.$.^ R R R R R R R c.b p         ",
"            % h b ^ O O O O O O O m ` <         ",
"            4 4 ( z z z z z z z z % ; @.        ",
"                                                ",
"                                                ",
"                                                ",
"                                                ",
"                                                ",
"                                                ",
"                                                ",
"                                                "};
