/* XPM */
static const char * X[] = {
"24 49 127 2",
"  	c #000000",
". 	c #B7B7B7",
"+ 	c #A1A1A1",
"@ 	c #A0A0A0",
"# 	c #B8B8B8",
"$ 	c #ECECEC",
"% 	c #EBEBEB",
"& 	c #B6B6B6",
"* 	c #E8E8E8",
"= 	c #E2E2E2",
"- 	c #AFAFAF",
"; 	c #A2A2A2",
"> 	c #D3D3D3",
", 	c #CACACA",
"' 	c #C9C9C9",
") 	c #C7C7C7",
"! 	c #9B9B9B",
"~ 	c #D5D5D5",
"{ 	c #DBDBDB",
"] 	c #EEEEEE",
"^ 	c #FDFDFD",
"/ 	c #FFFFFF",
"( 	c #D1D1D1",
"_ 	c #A3A3A3",
": 	c #C8C8C8",
"< 	c #A5A5A5",
"[ 	c #C0C0C0",
"} 	c #9E9E9E",
"| 	c #F7F7F7",
"1 	c #F0F0F0",
"2 	c #EFEFEF",
"3 	c #ACACAC",
"4 	c #E4E4E4",
"5 	c #B1B1B1",
"6 	c #EDEDED",
"7 	c #7D7D7D",
"8 	c #C3C3C3",
"9 	c #A7A7A7",
"0 	c #686868",
"a 	c #D9D9D9",
"b 	c #979797",
"c 	c #D7D7D7",
"d 	c #FEFEFE",
"e 	c #CECECE",
"f 	c #C6C6C6",
"g 	c #F1F1F1",
"h 	c #B5B5B5",
"i 	c #CBCBCB",
"j 	c #C5C5C5",
"k 	c #BDBDBD",
"l 	c #F6F6F6",
"m 	c #C4C4C4",
"n 	c #F9F9F9",
"o 	c #E0E0E0",
"p 	c #B3B3B3",
"q 	c #929292",
"r 	c #6E6E6E",
"s 	c #E3E3E3",
"t 	c #D6D6D6",
"u 	c #868686",
"v 	c #AEAEAE",
"w 	c #A6A6A6",
"x 	c #AAAAAA",
"y 	c #FCFCFC",
"z 	c #919191",
"A 	c #DCDCDC",
"B 	c #DEDEDE",
"C 	c #767676",
"D 	c #8E8E8E",
"E 	c #A9A9A9",
"F 	c #787878",
"G 	c #E1E1E1",
"H 	c #808080",
"I 	c #D4D4D4",
"J 	c #858585",
"K 	c #E6E6E6",
"L 	c #BEBEBE",
"M 	c #C2C2C2",
"N 	c #CCCCCC",
"O 	c #EAEAEA",
"P 	c #D8D8D8",
"Q 	c #FAFAFA",
"R 	c #B4B4B4",
"S 	c #8F8F8F",
"T 	c #D0D0D0",
"U 	c #B0B0B0",
"V 	c #DADADA",
"W 	c #A8A8A8",
"X 	c #F5F5F5",
"Y 	c #9F9F9F",
"Z 	c #E7E7E7",
"` 	c #FBFBFB",
" .	c #6B6B6B",
"..	c #CFCFCF",
"+.	c #E9E9E9",
"@.	c #F4F4F4",
"#.	c #898989",
"$.	c #D2D2D2",
"%.	c #707070",
"&.	c #F8F8F8",
"*.	c #B2B2B2",
"=.	c #6F6F6F",
"-.	c #7B7B7B",
";.	c #949494",
">.	c #E5E5E5",
",.	c #9D9D9D",
"'.	c #8D8D8D",
").	c #999999",
"!.	c #A4A4A4",
"~.	c #BBBBBB",
"{.	c #7F7F7F",
"].	c #DFDFDF",
"^.	c #B9B9B9",
"/.	c #7E7E7E",
"(.	c #F2F2F2",
"_.	c #878787",
":.	c #F3F3F3",
"<.	c #BABABA",
"[.	c #9C9C9C",
"}.	c #585858",
"|.	c #606060",
"1.	c #CDCDCD",
"2.	c #7C7C7C",
"3.	c #838383",
"4.	c #BCBCBC",
"5.	c #828282",
"6.	c #DDDDDD",
"                                                ",
"                                                ",
"                                                ",
"                                                ",
". + @ @ @ @ @ @ # $ %   & * = - @ @ @ @ @ @ ; > ",
"+ ; , ' ' ' ' ) ! ~ { ] ^ / ( ' ' ' ' ' ' ' _ : ",
"; < / / / / / / [ } | 1 $ 1 _ 2 / / / / / / 3 ~ ",
"4 5 / / / / / / 6 7 8 / / 9 0 $ / / / / / a b c ",
"> ; ( / / / / / d e f g = h i d / / / / ^ j k $ ",
"l m . n / / / / / o 9 p c q o / / / / / $ r h , ",
"s t u ] / / / / / / v f : w / / / / / / 1 x l g ",
"$ / b u y / / / / / w z b g / / / / / y q : / ^ ",
"  A B C y / / / / / ^ D D / / / / / / g z n l   ",
"  d / E B / / / / / / / / / / / / / / F j t n   ",
"  d 1 G H / / / / / / / / / / / / / I J K 6     ",
"    | 6 @ L / / / / / / / / / / / / < M N %     ",
"      O P < y / / / / / / / / / / y & O Q       ",
"      ] R S e / / / / / / / / / / T U V y       ",
"        * W t / / / / / / / / / X w : d         ",
"        N M Y g / / / / / / / / $ q s Z         ",
"        l ` v K / / / / / / / y  .Y / O         ",
"        j ..e  .` / / / / / / y H +.Z           ",
"          @.| #.y / / / / / / y _ / d           ",
"          $.~ %.y / / / / / / y J 6 %           ",
"        &.y *.Z / / / / / / / y =.< / 6         ",
"        ..: -.$ / / / / / / / / $ ;.>.+.        ",
"        * 3 ,.l / / / / / / / / l E ' d         ",
"      $ *.'.../ / / / / / / / / / T - a `       ",
"      * t < ^ / / / / / / / / / / y R * n       ",
"    X % ).[ / / / / / / / / / / / / !.~.8 K     ",
"  ` $ { 7 / / / / / / / / / / / / / t {.= *     ",
"  ` d Y ]./ / / / / / / / / / / / / / C ^.' @.  ",
"^ / I /.y / / / / / y S D / / / / / / (._.:.1   ",
"| ` p ] / / / / / / 9 _ _ 1 / / / / / y z <./ n ",
"~ 8 C $ / / / / / $ S > I E / / / / / / 2 Y $ :.",
"O . R Q / / / / / e [.: G @ ]./ / / / / $ }.a / ",
"[ '.$./ / / / / ] |.I ` 2 8 1.d / / / / ^ m h o ",
"t x / / / / / / 6 '.V     8 2.6 / / / / / { 3.m ",
"_.2.) f f f f f ~.+ / n 2 l ; 4.f f f f f : 5.f ",
"$.' : : : : : : e 6.4 &.6 K 4 1.: : : : : : ' G ",
":.g g g g g g 1 X ^ ^     ` ` :.g g g g g g 1 | ",
"                                                ",
"                                                ",
"                                                ",
"                                                ",
"                                                ",
"                                                ",
"                                                ",
"                                                "};
