/* XPM */
static char * ball2_xpm[] = {
"20 20 4 1",
" 	c None",
".	c #DF551D",
"+	c #998077",
"@	c #FFFFFF",
"       @@@@@@       ",
"     @@@@@@@@@@     ",
"   @@@@@@@@@@@@@@   ",
"  @@@@@@@@@@@@@@+.  ",
"  +@@@@@@@@@@@@@... ",
" ++@@@@@@@@@@@@+... ",
" ++@@@@@@@@@@@+.....",
"+++@@@@@@@@@@+......",
"++++@@@@@@@@........",
"+++++@@@@@+.........",
"+++++++@@+..........",
"+++++++++...........",
"++++++++............",
" ++++++............ ",
" +++++............. ",
"  +++.............  ",
"   +..............  ",
"    .............   ",
"     ..........     ",
"       ......       "};
