/* XPM */
static char * ball_xpm[] = {
"20 20 31 1",
" 	c None",
".	c #7C0403",
"+	c #063589",
"@	c #EA0003",
"#	c #811E7F",
"$	c #723902",
"%	c #2D4F5B",
"&	c #C93317",
"*	c #276186",
"=	c #0B7433",
"-	c #2F66A8",
";	c #3D7304",
">	c #856E04",
",	c #8B6A42",
"'	c #59787F",
")	c #B67CB4",
"!	c #8199A3",
"~	c #45A7E0",
"{	c #769CB2",
"]	c #F17E5F",
"^	c #F18709",
"/	c #7EA480",
"(	c #85BE1B",
"_	c #9DAFB7",
":	c #D4B829",
"<	c #A1C86C",
"[	c #F7B374",
"}	c #C2CBCE",
"|	c #E3CA78",
"1	c #F4DB00",
"2	c #FFFFFF",
"      {{{{{{{       ",
"    '{{{{{{{{{{     ",
"   '{{{{}}}}{{{{'   ",
"  *'{{{_}22}_{{{'*  ",
" %*'{{{{}22}_{{{'*  ",
" **'{{{{{_{{{{{{'*% ",
"%%*''{{{{{{{{{{''*% ",
"%%%''{{{{{{{{{{''%% ",
"%%%*''{{{{{{{!''*%%%",
"*%%%*''''{{''''*%%%*",
"'*%%%**''''''**%%%*'",
"**%%%%%******%%%%*'*",
"*'**%%%%%%%%%%%%*'' ",
" '''*%%%%%%%%%%*''' ",
" '''''**%%%%**''''' ",
" *'''''''''''''''*  ",
"  *''''''''''''''   ",
"   *'''''''''''*    ",
"     '''''''''*     ",
"       *'**'        "};
