/* XPM */
static char * block_power_xpm[] = {
"30 30 11 1",
" 	c None",
".	c #5C1812",
"+	c #C5222F",
"@	c #EB2412",
"#	c #018A1B",
"$	c #4B7882",
"%	c #00D028",
"&	c #61CD6D",
"*	c #E9AC46",
"=	c #DBD34B",
"-	c #CDE6C2",
"           =========          ",
"        ==============        ",
"       =================      ",
"     ====================     ",
"    ===============****===    ",
"   ===**==========*****@*==   ",
"   ===@@@========****@@@*===  ",
"  ====@@@@======****@@@@**==  ",
"  ===-=@@@@====****@@@@****== ",
" =======@@@@*=****@@@@*****== ",
" =******@@@@@**@@@@@@@@@@@@*= ",
" =+@@@@@@@@@@@@@@@@@@@@@@@@+==",
"==++++++++@@@@@@@@@@+++++++.==",
"==+++++++++@@@@@@@@++++++++.==",
"==++...+++++@@@@@@+++++++++.*=",
"==++...+++++@@@@@@+++++++++.==",
"==+++.+++++@@@@@@@@++++++++.==",
"==++......+@@@++@@@@........==",
" =*......+@@@+..+@@@@.......= ",
" =====***@@@@*****@@@@******= ",
" ====***@@@@*******@@@@****== ",
"  ===**@@@@*********@@@@***=  ",
"  ===*@@@@***********@@@**==  ",
"   ==*@@@*************@@**=   ",
"    ==*******************=    ",
"     ==****************==     ",
"      ==**************==      ",
"       ===**********===       ",
"         ============         ",
"            ======            "};
