/* XPM */
static const char * brick1d_xpm[] = {
"70 23 40 1",
" 	c #000000",
".	c #390037",
"+	c #480153",
"@	c #001D5C",
"#	c #2F2201",
"$	c #7D0B02",
"%	c #073306",
"&	c #273339",
"*	c #E10003",
"=	c #673201",
"-	c #841F82",
";	c #164AA2",
">	c #2D4D59",
",	c #115F8D",
"'	c #1A6D26",
")	c #7F5B30",
"!	c #516E7B",
"~	c #806B01",
"{	c #E85535",
"]	c #A970AF",
"^	c #639A25",
"/	c #6B8BCA",
"(	c #A48764",
"_	c #78919D",
":	c #B87EB5",
"<	c #619F74",
"[	c #EE8506",
"}	c #3DACE3",
"|	c #A9984B",
"1	c #8BA3AD",
"2	c #9BA7A8",
"3	c #87C218",
"4	c #F99C69",
"5	c #D8BD24",
"6	c #A9C2D5",
"7	c #ACD276",
"8	c #C0CBCF",
"9	c #F9E000",
"0	c #F7DD80",
"a	c #FFFFFF",
",/////////////////////////////////////////////////////////////////////",
",////////////////////////////////////////////////////////////////////@",
",;//////////////////////////////////////////////////////////////////@@",
",;;!///////////////////////////////////////////////////////////////@@@",
",;;;!/!///////////////////////////////////////////////////////////@@@@",
",;;;;;;;;;;;;;;;;;;;;;;;;;;;;;;;;;;;;;;;;;;;;;;;;;;;;;;;;;;;;;;;;;@@@@",
",;;;;;;;;;;;;;;;;;;;;;;;;;;;;;;;;;;;;;;;;;;;;;;;;;;;;;;;;;;;;;;;;;@@@@",
",;;;;;;;;;;;;;;;;;;;;;;;;;;;;;;;;;;;;;;;;;;;;;;;;;;;;;;;;;;;;;;;;;@@@@",
",;;;;;@;;;;;;;;;;;;;;;;;;;;;;;;;;;;;;;;;;;;;;;;;;;;;;;;;;;;;;;;;;;@@@@",
",;;;;;@;;;@;@;;;;;;;;;;;;;;;;;;;;;;;;;;;;;;;;;;;;;;;;;;;;;;;;;;;;;@@@@",
",;;;;@@;;;@@@;;;;;;;;;;;;;;;;;;;;;;;;;;;;;;;;;;;;;;;;;;;;;;;;;;;;;@@@@",
",;;;;@@@;@@@@;;;;;;;;;;;;;;;;;;;;;;;;;;@;;;;;;;;;;;;;;;;;;;;;;;;;;@@@@",
",;;;;@@@@@@@@;;;;;;;;;;;;;;;;;;;;;;;;;;;;;;;;;;;;;;;;;;;;;;;;;;;;;@@@@",
",;;;;;@@@@@@@;;;@;;;;;;;;;;;;;;;;;;;;;;;;;;;;;;;;;;;;;;;;;;;;;;;;;@@@@",
",;;;;;@@@@@@;;;;;;;;;;;;@;;@;;;;;;;;;;;;;;;;;;;;;;;;;;;;;;;;;;;;;;@@@@",
",;;;;@@@@@@@;;;;;;;;;;;;;@;@;;;;;;@;;@@@;;;;;;;;;;;;;;;;;;;;;;;;;;@@@@",
",;;;@;;;@;@@@;;;;;;;;;;;;@@@@@;@@@@@;;;;;;;;;;;;;;;;;;;;;;;;;;;;;;@@@@",
",;;;;;;;;;;;@;;;;;;;;;;@@@@@@@@@;;@;;;;;;;;;;;;;;;;;;;;;;;;;;;;;;;@@@@",
",;;;;;;;;@;@;@@;;;;;@@@@@@@@@@@;;;@@;;;;;;;;;;;;;;;;;;;;;;;;;;;;;;@@@@",
",;;;@@@@@@@@@@@@@@@@@@@@@@@@@@@@@@@@@@@@@@@@@@@@@@@@@@@@@@@@@@@@@@@@@@",
",;;@@@@@@@@@@@@@@@@@@@@@@@@@@@@@@@@@@@@@@@@@@@@@@@@@@@@@@@@@@@@@@@@@@@",
",;@@@@@@@@@@@@@@@@@@@@@@@@@@@@@@@@@@@@@@@@@@@@@@@@@@@@@@@@@@@@@@@@@@@@",
",@@@@@@@@@@@@@@@@@@@@@@@@@@@@@@@@@@@@@@@@@@@@@@@@@@@@@@@@@@@@@@@@@@@@@"};
