/* XPM */
static const char * brick3d_xpm[] = {
"170 57 4 1",
" 	c #C50000",
".	c #FF4444",
"+	c #A60000",
"@	c #410000",
"                                                                                                                                                                          ",
" ..........+.............................................................................................................................................................+",
" +......................................................................................................................................................................+@",
" ++.........+..........................................................................................................................................................+@@",
" +++........+.........................................................................................................................................................+@@@",
" ++++........+.......................................................................................................................................................+@@@@",
" +++++.......+......................................................................................................................................................+@@@@@",
" ++++++.......+....................................................................................................................................................+@@@@@@",
" +++++++......@...................................................................................................................................................+@@@@@@@",
" ++++++++.....++.................................................................................................................................................+@@@@@@@@",
" +++++++++.....@................................................................................................................................................+@@@@@@@@@",
" ++++++++++....@ ..............................................................................................................................................+@@@@@@@@@@",
" +++++++++++++++@+++++++++++++++++++++++++++++++++++++++++++++++++++++++++++++++++++++++++++++++++++++++++++++++++++++++++++++++++++++++++++++++++++++++++++++++@@@@@@@@@@",
" +++++++++++++++@+++++++++++++++++++++++++++++++++++++++++++++++++++++++++++++++++++++++++++++++++++++++++++++++++++++++++++++++++++++++++++++++++++++++++++++++@@@@@@@@@@",
" +++++++++++++++@@++++++++++++++++++++@+++++++++++++++++++++++++++++++++++++++++++++++++++++++++++++++++++++++++++++++++++++++++++++++++++++++++++++++++++++++++@@@@@@@@@@",
" ++++++++++++++++@++++++++++++++++++@@++++++++++++++++++++++++++++++++++++++++++++++++++++++++++++++++++++++++++++++++++++++++++++++++++++++++++++++++++++++++++@@@@@@@@@@",
" ++++++++++++++++@++++++++++++++++@@++++++++++++++++++++++++++++++++++++++++++++++++++++++++++++++++++++++++++++++++++++++++++++++++++++++++++++++++++++++++++++@@@@@@@@@@",
" ++++++++++++++++@++++++@++++++++@@+++++++++++++++++++++++++++++++++++++++++++++++++++++++++++++++++++++++++++++++++++++++++++++++++++++++++++++++++++++++++++++@@@@@@@@@@",
" +++++++++++++++@@+@++++@++++++++@++++++++++++++++++++++++++++++++++++++++++++++++++++++++++++++++++++++++++++++++++++++++++++++++++++++++++++++++++++++++++++++@@@@@@@@@@",
" +++++++++++++++@@+@++++@+++++++@@++++++++++++++++++++++++++++++++++++++++++++++++++++++++++++++++++++++++++++++++++++++++++++++++++++++++++++++++++++++++++++++@@@@@@@@@@",
" ++++++++++++@++@@++++++@+++++++@+++++++++++++++++++++++++++++++++++++++++++++++++++++++++++++++++++++++++++++++++++++++++++++++++++++++++++++++++++++++++++++++@@@@@@@@@@",
" +++++++++++++@@@@++@+++@+++@++@@+++++++++++++++++++++++++++++++++++++++++++++++++++++++++++++++++++++++++++++++++++++++++++++++++++++++++++++++++++++++++++++++@@@@@@@@@@",
" ++++++@+++++++@@+++@+++@++++@@@++++++++++++++++++++++++++++++++++++++++++++++++++++++++++++++++++++++++++++++++++++++++++++++++++++++++++++++++++++++++++++++++@@@@@@@@@@",
" +++++++@++++++@@+++@+@+@++++@@@++++++@++++++++++++++++++++++++@++++++++++++++++++++++++++++++++++++++++++++++++++++++++++++++++++++++++++++++++++++++++++++++++@@@@@@@@@@",
" ++++++++@+++++@@+++@+@+@@+++@@+++++@@+++++++++++++++++++++++++@+++++++++++++++++++++++++++++++++++++++++@++++++++++++++++++++++++++++++++++++++++++++++++++++++@@@@@@@@@@",
" +++++++++@@+++@@+++@+@+@@++@@@++++@@++++++++++++++++++++++++++@+++++++++++++++++++++++++++++++++++++++@@+++++++++++++++++++++++++++++++++++++++++++++++++++++++@@@@@@@@@@",
" ++++++++++@@@+@@+++@@@+@@+@@@@+++@@+++++++++++++++++++++++++++@++++++++++++++++++++++++++++++++++++@@++++++++++++++++++++++++++++++++++++++++++++++++++++++++++@@@@@@@@@@",
" +++++++++++@@@@@+++@@@+@@@@@@@+@@++++++++++++++++++++++++++++++@+++++++++++++++++++++++++++++++++@@++++++++++++++++++++++++++++++++++++++++++++++++++++++++++++@@@@@@@@@@",
" +++++++++++@@@@@@+++@@@@@@@@@+@@+++++++++++++++++++++++++++++++@++++++++++++++++++++++++++++++@@@++++++++++++++++++++++++++++++++++++++++++++++++++++++++++++++@@@@@@@@@@",
" +++++++++++@@@@@@@++@@@@@@@@@@@++++++++++@+@@@@++++++++++++++++@+++++++++++++++++++++++++++++@@++++++++++++++++++++++++++++++++++++++++++++++++++++++++++++++++@@@@@@@@@@",
" +++++++++++@@@@@@@@@@@@@@@@@@@++++++++++++++++++@@@@+++++++++++@+++++++++++++++++++++++++++++@+++++++++++++++++++++++++++++++++++++++++++++++++++++++++++++++++@@@@@@@@@@",
" +++++++++++@@@@@@@@@@@@@@@@@@@@@+++++++++++++++++++@@++++++++++@@+++++++++++@++++++++++++++++@+++++++++++++++++++++++++++++++++++++++++++++++++++++++++++++++++@@@@@@@@@@",
" ++++++++++@@@@@@@@@@@@@@@@@@@@@@@@@+++++++++++++++++@@++++++++++@+++++++++++@++++++++++++++++@+++++++++++++++++++++++++++++++++++++++++++++++++++++++++++++++++@@@@@@@@@@",
" ++++++++@@@@@@@@@@@@@@@@@@@@@@@@+@@@@@@++++++++++++++@@+++++++++@+++++++++++@++++++++++++++++@+++++++++++++++++++++++++++++++++++++++++++++++++++++++++++++++++@@@@@@@@@@",
" ++++++++++++++@@@@@@@@@@@@@@@@+++++++@@@@@++++++++++++@@++++++++@@++++++++++@+++++++++++++++@@+++++++++++++++++++++++++++++++++++++++++++++++++++++++++++++++++@@@@@@@@@@",
" ++++++++++++++@@@@@@@@@@@@@@+++++++++@@++++++++++++++++@@@++++++@@++++++++++@@++++++++++++++@@+++++++++++++++++++++++++++++++++++++++++++++++++++++++++++++++++@@@@@@@@@@",
" +++++++++++++@@@@@@@@@@@@@@@@@@@@++++@@+++++++++++++++++@@@+++++@@+++++++++++@++++@+++++++++@++++++++++++++++++++++++++++++++++++++++++++++++++++++++++++++++++@@@@@@@@@@",
" ++++++++++++@@@@@@@@@@@@@@@@@+++++++@+++++++++++++++++++@@@@+++++@+++++++++++@++++@+++++++++@++++++++++++++++++++++++++++++++++++++++++++++++++++++++++++++++++@@@@@@@@@@",
" +++++++++++@@@@@@@@@@@@@@@@@+++++++++++++++++++++++++++@@+@@@++++@@++++++++++@++++@+++++@@@@@@@++++++++++++++++++++++++++++++++++++++++++++++++++++++++++++++++@@@@@@@@@@",
" ++++++++++@@@@@+@@@++@@@@@@@++++++++++++++++++++++++++@++++@@@@++@@@@++++++++@@++@@@@@@@@@@@@@@@@++++++++++++++++++++++++++++++++++++++++++++++++++++++++++++++@@@@@@@@@@",
" +++++++++@@@++++++@++++@@@@@@++++++++++++++++++++++++@++++++@@@@+@@@@@++++++@@@@@@@@@@@@@+++++++@@@@+++++++++++++++++++++++++++++++++++++++++++++++++++++++++++@@@@@@@@@@",
" +++++++++@++++++++@@+++@@@@@@@++++++++++++++++++++++@+++++++@@@@@@@@@@@@@@@@@@@@@@@@@+++++++++++++++@@+++++++++++++++++++++++++++++++++++++++++++++++++++++++++@@@@@@@@@@",
" ++++++++@@++++++++@@+++@++@@@@@++++++++++++++++++++++++++@@@@@@@@@@@@@@@@@@@@@@@@@+++++++++++++++++++++++++++++++++++++++++++++++++++++++++++++++++++++++++++++@@@@@@@@@@",
" +++++++@+@+++++++++@++@@+++@@@@+++++++++++++++++++++++@@@@@@@@@@@@@@@@@@@@@@@@+++@@++++++++++++++++++++++++++++++++++++++++++++++++++++++++++++++++++++++++++++@@@@@@@@@@",
" +++++@@++@+++++++++@++@++++@++@@+++++++++++++++++++@@@@@@@@@@@@@@@@@@@@@@@@+++++++@@+++++++++++++++++++++++++++++++++++++++++++++++++++++++++++++++++++++++++++@@@@@@@@@@",
"@@+@+++++++@+++++++++++@++++@+++@@++++++++++++++@@@@@@@@@@@@@@@@@@@@@@@@@@@+++++++++@@++++++++++++++++++++++++++++++++++++++++++++++++++++++++++++++++++++++++++@@@@@@@@@@",
" ++++++++++@@@@@@@@@@@@@@@@@@@@@@@@@@@@@@@@@@@@@@@@@@@@@@@@@@@@@@@@@@@@@@@@@@@@@@@@@@@@@@@@@@@@@@@@@@@@@@@@@@@@@@@@@@@@@@@@@@@@@@@@@@@@@@@@@@@@@@@@@@@@@@@@@@@@@@@@@@@@@@@",
" +++++++++@@@@@@@@@@@@@@@@@@@@@@@@@@@@@@@@@@@@@@@@@@@@@@@@@@@@@@@@@@@@@@@@@@@@@@@@@@@@@@@@@@@@@@@@@@@@@@@@@@@@@@@@@@@@@@@@@@@@@@@@@@@@@@@@@@@@@@@@@@@@@@@@@@@@@@@@@@@@@@@@",
" ++++++++@@@@@@@@@@@@@@@@@@@@@@@@@@@@@@@@@@@@@@@@@@@@@@@@@@@@@@@@@@@@@@@@@@@@@@@@@@@@@@@@@@@@@@@@@@@@@@@@@@@@@@@@@@@@@@@@@@@@@@@@@@@@@@@@@@@@@@@@@@@@@@@@@@@@@@@@@@@@@@@@@",
" +++++++@@@@@@@@@@@@@@@@@@@@@@@@@@@@@@@@@@@@@@@@@@@@@@@@@@@@@@@@@@@@@@@@@@@@@@@@@@@@@@@@@@@@@@@@@@@@@@@@@@@@@@@@@@@@@@@@@@@@@@@@@@@@@@@@@@@@@@@@@@@@@@@@@@@@@@@@@@@@@@@@@@",
" ++++++@@@@@@@@@@@@@@@@@@@@@@@@@@@@@@@@@@@@@@@@@@@@@@@@@@@@@@@@@@@@@@@@@@@@@@@@@@@@@@@@@@@@@@@@@@@@@@@@@@@@@@@@@@@@@@@@@@@@@@@@@@@@@@@@@@@@@@@@@@@@@@@@@@@@@@@@@@@@@@@@@@@",
" +++++@@@@@@@@@@@@@@@@@@@@@@@@@@@@@@@@@@@@@@@@@@@@@@@@@@@@@@@@@@@@@@@@@@@@@@@@@@@@@@@@@@@@@@@@@@@@@@@@@@@@@@@@@@@@@@@@@@@@@@@@@@@@@@@@@@@@@@@@@@@@@@@@@@@@@@@@@@@@@@@@@@@@",
" ++++@@@@@@@@@@@@@@@@@@@@@@@@@@@@@@@@@@@@@@@@@@@@@@@@@@@@@@@@@@@@@@@@@@@@@@@@@@@@@@@@@@@@@@@@@@@@@@@@@@@@@@@@@@@@@@@@@@@@@@@@@@@@@@@@@@@@@@@@@@@@@@@@@@@@@@@@@@@@@@@@@@@@@",
" +++@@@@@@@@@@@@@@@@@@@@@@@@@@@@@@@@@@@@@@@@@@@@@@@@@@@@@@@@@@@@@@@@@@@@@@@@@@@@@@@@@@@@@@@@@@@@@@@@@@@@@@@@@@@@@@@@@@@@@@@@@@@@@@@@@@@@@@@@@@@@@@@@@@@@@@@@@@@@@@@@@@@@@@",
" ++@@@@@@@@@@@@@@@@@@@@@@@@@@@@@@@@@@@@@@@@@@@@@@@@@@@@@@@@@@@@@@@@@@@@@@@@@@@@@@@@@@@@@@@@@@@@@@@@@@@@@@@@@@@@@@@@@@@@@@@@@@@@@@@@@@@@@@@@@@@@@@@@@@@@@@@@@@@@@@@@@@@@@@@",
" +@@@@@@@@@@@@@@@@@@@@@@@@@@@@@@@@@@@@@@@@@@@@@@@@@@@@@@@@@@@@@@@@@@@@@@@@@@@@@@@@@@@@@@@@@@@@@@@@@@@@@@@@@@@@@@@@@@@@@@@@@@@@@@@@@@@@@@@@@@@@@@@@@@@@@@@@@@@@@@@@@@@@@@@@",
" @@@@@@@@@@@@@@@@@@@@@@@@@@@@@@@@@@@@@@@@@@@@@@@@@@@@@@@@@@@@@@@@@@@@@@@@@@@@@@@@@@@@@@@@@@@@@@@@@@@@@@@@@@@@@@@@@@@@@@@@@@@@@@@@@@@@@@@@@@@@@@@@@@@@@@@@@@@@@@@@@@@@@@@@@"};
