/* XPM */
static char * heart_xpm[] = {
"58 50 3 1",
" 	c None",
".	c #EF1920",
"+	c #B9BEC0",
"        .................        .................        ",
"        .................        .................        ",
"        .................        .................        ",
"        .................        .................        ",
"        .................        .................        ",
"        .................        .................        ",
"        .................        .................        ",
"        .................        .................        ",
"..........................................................",
"..........................................................",
"..........................................................",
"..........................................................",
"..........................................................",
"..........................................................",
"..........................................................",
"..........................................................",
"..........................................................",
"..........................................................",
"..........................................................",
"..........................................................",
"..........................................................",
"..........................................................",
"..........................................................",
"..........................................................",
"..........................................................",
"        ..........................................        ",
"        ..........................................        ",
"        ..........................................        ",
"        ..........................................        ",
"        ..........................................        ",
"        ..........................................        ",
"        ..........................................        ",
"        ..........................................        ",
"                ..........................                ",
"                .........................                 ",
"                .........................                 ",
"                .........................                 ",
"                .........................                 ",
"                .........................                 ",
"                .........................                 ",
"                .........................                 ",
"                 ........................                 ",
"                         ........                         ",
"                         ........                         ",
"                         ........                         ",
"                         ........                         ",
"                         ........                         ",
"                         ........                         ",
"                         ........                         ",
"                         ........                         "};
