/* XPM */
static char * life_power_xpm[] = {
"30 30 6 1",
" 	c None",
".	c #D12427",
"+	c #C28631",
"@	c #23BB33",
"#	c #B2D3B5",
"$	c #E7D946",
"           @@@@@@@@           ",
"        @@@#######@@@         ",
"      @@@@##########@@@       ",
"     @@@#############@@@      ",
"    @@@###############@@@@    ",
"   @@@@###############@@@@    ",
"  @@@@@################@@@@   ",
"  @@@@@################@@@@@  ",
" @@@@@@@@@@@@@@@@@@@@@@@@@@@  ",
" @@@@@@@@@@@$$$$$@@@@@@@@@@@@ ",
"@@@@@@@@@@@@$$$$$@@@@@@@@@@@@ ",
"@@@@@@@@@@@@@@@@@@@@@@@@@@@@@ ",
"@@@######@@..+@@..+@######@@@@",
"@@@#######.........#######@@@@",
"@@@@######.........######@@@@@",
"@@@@@#####.........#####@@@@@@",
"@@@@@@####+.......+@###@@@@@@@",
"@@@@@@@@@@@+.....+@@@@@@@@@@@@",
"@@@@@@@@@@@@@...+@@@@@@@@@@@@ ",
"@@@@@@@@@@@@@+.+@@@@@@@@@@@@@ ",
" @@@@@@@@@@@@@@@@@@@@@@@@@@@@ ",
" @@@@@@@@@@@@@@@@@@@@@@@@@@@  ",
"  @@@@@@@@@@@@@@@@@@@@@@@@@@  ",
"  @@@@@@@@@@@@@@@@@@@@@@@@@   ",
"   @@@@@@@@@@@@@@@@@@@@@@@    ",
"    @@@@@@@@@@@@@@@@@@@@@@    ",
"     @@@@@@@@@@@@@@@@@@@@     ",
"      @@@@@@@@@@@@@@@@@       ",
"        @@@@@@@@@@@@@         ",
"           @@@@@@@@           "};
