/* XPM */
static char * leaderboard_button_xpm[] = {
"206 63 3 1",
" 	c #000000",
".	c #67210D",
"+	c #FFFFFF",
"                                                                                                                                                                                                              ",
"                                                                                                                                                                                                              ",
"                                                                                                                                                                                                              ",
"    ......................................................................................................................................................................................................    ",
"   .......................................................................................................................................................................................................    ",
"   .......................................................................................................................................................................................................    ",
"   .......................................................................................................................................................................................................    ",
"   .......................................................................................................................................................................................................    ",
"   .......................................................................................................................................................................................................    ",
"   .......................................................................................................................................................................................................    ",
"   .......................................................................................................................................................................................................    ",
"   .......................................................................................................................................................................................................    ",
"   .......................................................................................................................................................................................................    ",
"   .......................................................................................................................................................................................................    ",
"   .......................................................................................................................................................................................................    ",
"   .......................................................................................................................................................................................................    ",
"   .......................................................................................................................................................................................................    ",
"   .......................................................................................................................................................................................................    ",
"   .......................................................................................................................................................................................................    ",
"   .......................................................................................................................................................................................................    ",
"   .......................................................................................................................................................................................................    ",
"   .......................................................................................................................................................................................................    ",
"   .......................................................................................................................................................................................................    ",
"   .......................................................................................................................................................................................................    ",
"   .......................................................................................................................................................................................................    ",
"   .......................................................................................................................................................................................................    ",
"   ......................................+++++............+.........++++++++...+++++....++++++....++++++++..++++++....+++++++.....+++++.....+++++...+++++++...+++++++.....................................    ",
"   ......................................+++++...........++.........++++++++...+++++....+++++++...++++++++..+++++++...+++++++.....+++++.....+++++...+++++++...+++++++.....................................    ",
"   ....................................++.....+..........++.........+.........+.....++..+.....++..+.........++.....+..++.....+..++.....++.++.....++.++.....++.++.....++...................................    ",
"   ........................................+++...........++.........++++++....+.....++..+.....++..++++++....++.....+..++++++++..++.....++.++.....++.++.....++.++.....++...................................    ",
"   .......................................++++...........++.........++++++....+.....++..+.....++..+++++++...++.....+..+++++++...++.....++.++.....++.++.....++.++.....++...................................    ",
"   ....................................++.....+..........++.........+.........++++++++..+.....++..++........+++++++...++.....+..++.....++.+++++++++.+++++++...++.....++...................................    ",
"   ....................................++.....+...........+.........+.........++++++++..++....++..++........+++++++...++.....+..++.....+..+++++++++.+++++++...++.....++...................................    ",
"   ......................................+++++...++........+++++++..++++++++..+.....++..++++++....++++++++..++.....+..+++++++.....+++++...++.....++.++.....++.+++++++.....................................    ",
"   ......................................++++...............+++++...+++++++...+......+..++++++....++++++++..+......+..++++++......++++...........+.........+...+++++......................................    ",
"   .......................................................................................................................................................................................................    ",
"   .......................................................................................................................................................................................................    ",
"   .......................................................................................................................................................................................................    ",
"   .......................................................................................................................................................................................................    ",
"   .......................................................................................................................................................................................................    ",
"   .......................................................................................................................................................................................................    ",
"   .......................................................................................................................................................................................................    ",
"   .......................................................................................................................................................................................................    ",
"   .......................................................................................................................................................................................................    ",
"   .......................................................................................................................................................................................................    ",
"   .......................................................................................................................................................................................................    ",
"   .......................................................................................................................................................................................................    ",
"   .......................................................................................................................................................................................................    ",
"   .......................................................................................................................................................................................................    ",
"   .......................................................................................................................................................................................................    ",
"   .......................................................................................................................................................................................................    ",
"   .......................................................................................................................................................................................................    ",
"   .......................................................................................................................................................................................................    ",
"   .......................................................................................................................................................................................................    ",
"   .......................................................................................................................................................................................................    ",
"   .......................................................................................................................................................................................................    ",
"   .......................................................................................................................................................................................................    ",
"   .......................................................................................................................................................................................................    ",
"   .......................................................................................................................................................................................................    ",
"    ......................................................................................................................................................................................................    ",
"                                                                                                                                                                                                              ",
"                                                                                                                                                                                                              ",
"                                                                                                                                                                                                              "};
