/* XPM */
static char * multiplayer_button_xpm[] = {
"206 63 3 1",
" 	c #000000",
".	c #65200C",
"+	c #FFFFFF",
"                                                                                                                                                                                                              ",
"                                                                                                                                                                                                              ",
"                                                                                                                                                                                                              ",
"   .......................................................................................................................................................................................................    ",
"   .......................................................................................................................................................................................................    ",
"   .......................................................................................................................................................................................................    ",
"   .......................................................................................................................................................................................................    ",
"   .......................................................................................................................................................................................................    ",
"   .......................................................................................................................................................................................................    ",
"   .......................................................................................................................................................................................................    ",
"   .......................................................................................................................................................................................................    ",
"   .......................................................................................................................................................................................................    ",
"   .......................................................................................................................................................................................................    ",
"   .......................................................................................................................................................................................................    ",
"   .......................................................................................................................................................................................................    ",
"   .......................................................................................................................................................................................................    ",
"   .......................................................................................................................................................................................................    ",
"   .......................................................................................................................................................................................................    ",
"   .......................................................................................................................................................................................................    ",
"   .......................................................................................................................................................................................................    ",
"   .......................................................................................................................................................................................................    ",
"   .......................................................................................................................................................................................................    ",
"   .......................................................................................................................................................................................................    ",
"   .......................................................................................................................................................................................................    ",
"   .......................................................................................................................................................................................................    ",
"   .......................................................................................................................................................................................................    ",
"   .......................................+++++............++.....+..++.....+..++........+++++++++.+++++..+++++++...++..........+++++...++.....++.+++++++++..++++++.......................................    ",
"   .......................................+++++............++....++..++.....++.++........++++++++..+++++..+++++++...++..........+++++...++.....++.+++++++++.+++++++.......................................    ",
"   ......................................+.....++..........+++..+++..++.....++.++............+.......++...++.....++.++........++.....++.++.....++.++........++.....++.....................................    ",
"   ......................................+..++++...........++.++.++..++.....++.++............+.......++...++.....++.++........++.....++..++...++..+++++++...++.....++.....................................    ",
"   .........................................+++............++.++..+..++.....++.++............+.......++...++.....+..++........++.....++...++.++...+++++++...++.....++.....................................    ",
"   .......................................++...............++.....+..++.....++.++............+.......++...+++++++...++........+++++++++.....+.....++........+++++++.......................................    ",
"   .......................................++...............++.....+..++.....+..++............+.......++...+++++++...++........+++++++++.....+.....++........+++++++.......................................    ",
"   ......................................++++++++..+.......++.....+....+++++.....+++++++.....+.....+++++..++..........+++++++.++.....++.....+.....+++++++++.++.....++.....................................    ",
"   ......................................+++++++...+.......+......+....++++......++++++......+......++++..............++++++.........+......+......+++++++...+............................................    ",
"   .......................................................................................................................................................................................................    ",
"   .......................................................................................................................................................................................................    ",
"   .......................................................................................................................................................................................................    ",
"   .......................................................................................................................................................................................................    ",
"   .......................................................................................................................................................................................................    ",
"   .......................................................................................................................................................................................................    ",
"   .......................................................................................................................................................................................................    ",
"   .......................................................................................................................................................................................................    ",
"   .......................................................................................................................................................................................................    ",
"   .......................................................................................................................................................................................................    ",
"   .......................................................................................................................................................................................................    ",
"   .......................................................................................................................................................................................................    ",
"   .......................................................................................................................................................................................................    ",
"   .......................................................................................................................................................................................................    ",
"   .......................................................................................................................................................................................................    ",
"   .......................................................................................................................................................................................................    ",
"   .......................................................................................................................................................................................................    ",
"   .......................................................................................................................................................................................................    ",
"   .......................................................................................................................................................................................................    ",
"   .......................................................................................................................................................................................................    ",
"   .......................................................................................................................................................................................................    ",
"   .......................................................................................................................................................................................................    ",
"   .......................................................................................................................................................................................................    ",
"   .......................................................................................................................................................................................................    ",
"                                                                                                                                                                                                              ",
"                                                                                                                                                                                                              ",
"                                                                                                                                                                                                              ",
"                                                                                                                                                                                                              "};
