/* XPM */
static char * settings_button_xpm[] = {
"206 63 3 1",
" 	c #000000",
".	c #66210C",
"+	c #FFFFFF",
"                                                                                                                                                                                                              ",
"                                                                                                                                                                                                              ",
"                                                                                                                                                                                                              ",
"    . .................................................................................................................................................................................................  .    ",
"   .......................................................................................................................................................................................................    ",
"   .......................................................................................................................................................................................................    ",
"   .......................................................................................................................................................................................................    ",
"   .......................................................................................................................................................................................................    ",
"   .......................................................................................................................................................................................................    ",
"   .......................................................................................................................................................................................................    ",
"   .......................................................................................................................................................................................................    ",
"   .......................................................................................................................................................................................................    ",
"   .......................................................................................................................................................................................................    ",
"   .......................................................................................................................................................................................................    ",
"   .......................................................................................................................................................................................................    ",
"   .......................................................................................................................................................................................................    ",
"   .......................................................................................................................................................................................................    ",
"   .......................................................................................................................................................................................................    ",
"   .......................................................................................................................................................................................................    ",
"   .......................................................................................................................................................................................................    ",
"   .......................................................................................................................................................................................................    ",
"   .......................................................................................................................................................................................................    ",
"   .......................................................................................................................................................................................................    ",
"   .......................................................................................................................................................................................................    ",
"   .......................................................................................................................................................................................................    ",
"   .......................................................................................................................................................................................................    ",
"   .....................................................+......+............++++++..+++++++++.+++++++++.+++++++++..++++..++.....++...+++++++...+++++++....................................................    ",
"   .....................................................+.....++............++++++..++++++++..+++++++++.+++++++++..++++..++.....++...+++++++...+++++++....................................................    ",
"   .....................................................+.....++..........++........++............+.........+.......++...++++...++.++........++...........................................................    ",
"   .....................................................+.....++...........+++++....++++++........+.........+.......++...++.++..++.++..++++...++++++......................................................    ",
"   .....................................................+.....++............+++++...+++++++.......+.........+.......++...++..+..++.++..+++++...+++++......................................................    ",
"   ......................................................+++++++.................+..++............+.........+.......++...++...++++.++.....++........++....................................................    ",
"   .......................................................++++++.................+..++............+.........+.......++...++...++++.++.....++........++....................................................    ",
"   ...........................................................++..+.......+++++++...+++++++++.....+.........+.....++++++.++.....++...+++++++.+++++++......................................................    ",
"   ............................................................+..+........+++++.....+++++++......+.........+......++++.........+....++++++...+++++.......................................................    ",
"   .......................................................................................................................................................................................................    ",
"   .......................................................................................................................................................................................................    ",
"   .......................................................................................................................................................................................................    ",
"   .......................................................................................................................................................................................................    ",
"   .......................................................................................................................................................................................................    ",
"   .......................................................................................................................................................................................................    ",
"   .......................................................................................................................................................................................................    ",
"   .......................................................................................................................................................................................................    ",
"   .......................................................................................................................................................................................................    ",
"   .......................................................................................................................................................................................................    ",
"   .......................................................................................................................................................................................................    ",
"   .......................................................................................................................................................................................................    ",
"   .......................................................................................................................................................................................................    ",
"   .......................................................................................................................................................................................................    ",
"   .......................................................................................................................................................................................................    ",
"   .......................................................................................................................................................................................................    ",
"   .......................................................................................................................................................................................................    ",
"   .......................................................................................................................................................................................................    ",
"   .......................................................................................................................................................................................................    ",
"   .......................................................................................................................................................................................................    ",
"   .......................................................................................................................................................................................................    ",
"   .......................................................................................................................................................................................................    ",
"   .......................................................................................................................................................................................................    ",
"   .......................................................................................................................................................................................................    ",
"    . .................................................................................................................................................................................................  .    ",
"                                                                                                                                                                                                              ",
"                                                                                                                                                                                                              ",
"                                                                                                                                                                                                              "};
