/* XPM */
static char * ball_power_xpm[] = {
"30 30 11 1",
" 	c None",
".	c #602515",
"+	c #D32026",
"@	c #03891B",
"#	c #4F7D8C",
"$	c #00D028",
"%	c #5FCB6A",
"&	c #E2A927",
"*	c #EEB8B7",
"=	c #EDDD48",
"-	c #FFFFFF",
"          ..++++++++          ",
"        ..++++++++++++        ",
"       ..+++++++++++++++      ",
"     ...+++++++++++++++++     ",
"    ...+++++++++++++++++++    ",
"   ...+++++++++++++***+++++   ",
"   ...++++++++++++*-*--+++++  ",
"  ...+++++++*-*+-*+++*-+++++  ",
"  ...++++++++*--*++++-*++++++ ",
" ...++++++++++--++++-*+++++++ ",
" ...+++.####**--*++-*+++++++++",
" ...++.##---#-**-**----+++++++",
"....+.####-###*+*******+++++++",
"....+.#########+++++++++++++++",
"....+##########*##*+++++++++++",
"....+###########--##*+++++++++",
"......##########--###+++++++++",
"......###############.++++++++",
" ......##############.++++++++",
" .....++..#.##########+++++++ ",
" ......+++++#########.+++++++ ",
"  ......+++++########++++++++ ",
"  .......++++.######.+++++++  ",
"   .......++++.###.++++++++   ",
"    ........+++++++++++++++   ",
"     .........++++++++++++    ",
"      ............++++++      ",
"       ................       ",
"         ............         ",
"             ....             "};
