/* XPM */
static const char * brick2_xpm[] = {
"70 23 4 1",
" 	c #226626",
".	c #4CC353",
"+	c #349D3A",
"@	c #0D280F",
" ....................................................................+",
"  ...................................................................@",
"   ................................................................+@@",
"    ..............................................................+@@@",
"     ............................................................+@@@@",
"                                                                  @@@@",
"                                                                  @@@@",
"                                                                  @@@@",
"                                                                  @@@@",
"                                                                  @@@@",
"                                                                  @@@@",
"                                                                  @@@@",
"                                                                  @@@@",
"                                                                  @@@@",
"                                                                  @@@@",
"                                                                  @@@@",
"                                                                  @@@@",
"                                                                  @@@@",
"                                                                 @@@@@",
"    @@@@@@@@@@@@@@@@@@@@@@@@@@@@@@@@@@@@@@@@@@@@@@@@@@@@@@@@@@@@@@@@@@",
"   @@@@@@@@@@@@@@@@@@@@@@@@@@@@@@@@@@@@@@@@@@@@@@@@@@@@@@@@@@@@@@@@@@@",
"  @@@@@@@@@@@@@@@@@@@@@@@@@@@@@@@@@@@@@@@@@@@@@@@@@@@@@@@@@@@@@@@@@@@@",
" @@@@@@@@@@@@@@@@@@@@@@@@@@@@@@@@@@@@@@@@@@@@@@@@@@@@@@@@@@@@@@@@@@@@@"};
