/* XPM */
static const char * brick2d_xpm[] = {
"70 23 40 1",
" 	c #0A2711",
".	c #0D280C",
"+	c #102B0F",
"@	c #0A2E11",
"#	c #123211",
"$	c #0E3814",
"%	c #103A16",
"&	c #153C13",
"*	c #104117",
"=	c #14441A",
"-	c #124A18",
";	c #1A4817",
">	c #154D1A",
",	c #184F1D",
"'	c #1A511E",
")	c #1C5320",
"!	c #1D5321",
"~	c #20541B",
"{	c #18571D",
"]	c #1B591F",
"^	c #1D5B20",
"/	c #1F5D22",
"(	c #225F24",
"_	c #1A6326",
":	c #1F6522",
"<	c #206623",
"[	c #226724",
"}	c #236825",
"|	c #1F6F2A",
"1	c #23732E",
"2	c #2F8537",
"3	c #2E8C36",
"4	c #34913A",
"5	c #369C3C",
"6	c #42A545",
"7	c #39A948",
"8	c #3FAB43",
"9	c #45B148",
"0	c #42BA4F",
"a	c #4FC250",
"4877587777777777777777777777777777777777777777777777777777777777777783",
"17aaa9aaaaaaaaaaaaaaaaaaaaaaaaaaaaaaaaaaaaaaaaaaaaaaaaaaaaaaaaaaaaaa7&",
"|}7aa7aaaaaaaaaaaaaaaaaaaaaaaaaaaaaaaaaaaaaaaaaaaaaaaaaaaaaaaaaaaaa7%.",
"|<}7a97aaaaaaaaaaaaaaaaaaaaaaaaaaaaaaaaaaaaaaaaaaaaaaaaaaaaaaaaaaa6&..",
"|<<[60200000000000000000000000000000000000000000000000000000000006$...",
"|<<<<:)/:::::::(:::::::::::::::::::::::::::::::::::::::::::::::::_ ...",
"|<<<<<:)<<:<<:']<<<<<<<<<<<<<<<<<<<<<<<<<<<<<<<<<<<<<<<<<<<<<<<<<_ ...",
"|<<<<<{>/_{<<-_<<<<<<<<<<<<<<<<<<<<<<<<<<<<<<<<<<<<<<<<<<<<<<<<<<_ ...",
"|<<<<]*~^_]//,<<<<<<<<<<<<<<<<<<<<<<<<<<<<<<<<<<<<<<<<<<<<<<<<<<<_ ...",
"|<<{<[$<))':@_:{<<<<<<<<<:^<<<<<<<<<<<<<<<<(<<<<<<<<<<<<<<<<<<<<<_ ...",
"|<<<-)$<;>*=&_;(<<<<<<<<<:{<<<<<<<<<<<<<:{^_<<<<<<<<<<<<<<<<<<<<<_ ...",
"|<<<:..),# .&><<<_]^<<<<<<)<<<<<<<<<<<_>{:<<<<<<<<<<<<<<<<<<<<<<<_ ...",
"|<<<_...@...#{:<<:__{;(<<<>_<<<(:<<<<<](<<<<<<<<<<<<<<<<<<<<<<<<<_ ...",
"|<<_-*@.....@-=,,/<<<:=(<<^]<<<]_<<<<<)_<<<<<<<<<<<<<<<<<<<<<<<<<_ ...",
"|<<<<_#....+>)<{>_<<<<:*,</-<<<('</<<<-:<<<<<<<<<<<<<<<<<<<<<<<<<_ ...",
"|<<<(## &..@_<<(<<<<<<_>*>_=^<<<>:-^)=%,_<<<<<<<<<<<<<<<<<<<<<<<<_ ...",
"|<<<=]_])/+.><<<<<<<<_{<_#$#.-,-+#@*>(_(')(<<<<<<<<<<<<<<<<<<<<<<_ ...",
"|<_{'<<:>{^;$^<<<<<<<(~=.......$-',<<<<<<<<<<<<<<<<<<<<<<<<<<<<<<_ ...",
"/(_:''''>='=,#'''''>$@........@,''*='''''''''''''''''''''''''''''> ...",
"|<<]@.................................................................",
"|<]@..................................................................",
"|]+...................................................................",
"_@...................................................................."};
