/* XPM */
static const char * brick3d_xpm[] = {
"70 23 40 1",
" 	c #410000",
".	c #440102",
"+	c #4A0000",
"@	c #540000",
"#	c #500200",
"$	c #580100",
"%	c #5F0003",
"&	c #610000",
"*	c #670001",
"=	c #6B0000",
"-	c #710002",
";	c #760000",
">	c #7B0002",
",	c #7E0000",
"'	c #800000",
")	c #860002",
"!	c #870000",
"~	c #890000",
"{	c #8B0000",
"]	c #820301",
"^	c #910003",
"/	c #930000",
"(	c #8D0301",
"_	c #9C0002",
":	c #970200",
"<	c #9F0000",
"[	c #A10000",
"}	c #A80002",
"|	c #A90000",
"1	c #A20300",
"2	c #B50000",
"3	c #B70004",
"4	c #D11F21",
"5	c #B82725",
"6	c #DB2C2B",
"7	c #E93233",
"8	c #E23536",
"9	c #E93C3B",
"0	c #F53E3B",
"a	c #FF4142",
"4777677777777777777777777777777777777777777777777777777777777777777774",
"38aaa7aaaaaaaaaaaaaaaaaaaaaaaaaaaaaaaaaaaaaaaaaaaaaaaaaaaaaaaaaaaaaa8%",
"2}8aa8aaaaaaaaaaaaaaaaaaaaaaaaaaaaaaaaaaaaaaaaaaaaaaaaaaaaaaaaaaaaa8% ",
"2}}8a98aaaaaaaaaaaaaaaaaaaaaaaaaaaaaaaaaaaaaaaaaaaaaaaaaaaaaaaaaaa8%  ",
"2}}}80500000000000000000000000000000000000000000000000000000000008$   ",
"2}}}}}{_}}}}}}}<1}}}}}}}}}}}}}}}}}}}}}}}}}}}}}}}}}}}}}}}}}}}}}}}}[    ",
"2}}}}}1{}}1}}1)/}}}}}}}}}}}}}}}}}}}}}}}}}}}}}}}}}}}}}}}}}}}}}}}}}[    ",
"2}}}}}/'_[/}}'[}}}}}}}}}}}}}}}}}}}}}}}}}}}}}}}}}}}}}}}}}}}}}}}}}}[    ",
"2}}1}/={:[/_:]}}}}}}}}}}}}}}}}}}}}}}}}}}}}}}}}}}}}}}}}}}}}}}}}}}}[    ",
"2}1(1|%}{{~1+[1(}}}}}}}}}1:}}}}}}}}}}}}}}}}[}}}}}}}}}}}}}}}}}}}}}[    ",
"2}}}>{%};'=-&[;[}}}}}}}}}1{}}}}}}}}}}}}}1{:[}}}}}}}}}}}}}}}}}}}}}[    ",
"2}}}1 .{]$  *'}}}[/:|}}}}}{}}}}}}}}}}}['(1}}}}}}}}}}}}}}}}}}}}}}}[    ",
"2}}}[  .+   @^1}}1[1(;[}}}'[}}}<1}}}}}/[}}}}}}}}}}}}}}}}}}}}}}}}}[    ",
"2}}['=+     +'-']:}}}1;<}}:/}}}/[}}}}}{[}}}}}}}}}}}}}}}}}}}}}}}}}[    ",
"2}}}}[#    .'{}{'[}}}}1=]}:>}}}<~}:}}}>1}}}}}}}}}}}}}}}}}}}}}}}}}[    ",
"2}}}[@@ &. +[}}[}}}}}}['='[=:}}|'1>:{-&][}}}}}}}}}}}}}}}}}}}}}}}}[    ",
"2}}};/[:{:..'}}}}}}}}1/}[#%@.');.@+='<[<){_}}}}}}}}}}}}}}}}}}}}}}[    ",
"2}[()}}1'(:;%:}}}}}}|[{-       %>~'}}}}}}}}}}}}}}}}}}}}}}}}}}}}}}[    ",
":<[1)~~~'=~-]$)~~~~'$+        +]~~=;~~~~~~~~~~~~~~~~~~~~~~~~~~~~~'    ",
"2}}/+                                                                 ",
"2}/+                                                                  ",
"2/.                                                                   ",
"[+                                                                    "};
