/* XPM */
static char * extra_ball_xpm[] = {
"20 20 16 1",
" 	c None",
".	c #2B1E30",
"+	c #C3181C",
"@	c #74331D",
"#	c #704A82",
"$	c #835058",
"%	c #087B1F",
"&	c #F0412D",
"*	c #CB8654",
"=	c #3AB544",
"-	c #00CD25",
";	c #C295D3",
">	c #E29FA4",
",	c #F9AD31",
"'	c #AFC24D",
")	c #BFD1B0",
"      ...*$...      ",
"    .####,*#....    ",
"   .#;;;>,,###...   ",
"  .#;;;;*,,*###...  ",
" .#;;);>,,,,####..  ",
" .#;>)>*,,,,*###... ",
" *>*,,,,,,,,,,,,*** ",
".*,,,,,,,,,,,,,,,,@.",
".#>,,,,,,,,,,,,,,@..",
".##>,,,,,,,,,,,,$...",
".##;>,,,,,,,,,,$#...",
".###;*,,,,,,,,*#....",
"..###*,,,,,,,,*#... ",
" ..##,,,,,,,,,,.... ",
" ..#$,,,,,,,,,,.... ",
"  ..*,,,$##*,,,@..  ",
"   .*,*####.$*,*.   ",
"    @.........@@    ",
"     ..........     ",
"       ......       "};
