/* XPM */
static char * paddle_xpm[] = {
"100 20 6 1",
" 	c None",
".	c #000000",
"+	c #6F5D58",
"@	c #E84543",
"#	c #8A8C89",
"$	c #CBCCCC",
"     ++.....................................................................................++      ",
"   ....+++++++++++++++....+++++++++++++++++++++++++++++++++++++++++++++++....+++++++++++++++....    ",
"  .+++$$$$$$$$$$$$$$$$+..+$$$$$$$$$$$$$$$$$$$$$$$$$$$$$$$$$$$$$$$$$$$$$$$#...$$$$$$$$$$$$$$$$++@..  ",
" .@@@+$$$$$$$$$$$$$$$$+..+$$$$$$$$$$$$$$$$$$$$$$$$$$$$$$$$$$$$$$$$$$$$$$$#...$$$$$$$$$$$$$$$$#+@@.  ",
"++@@@+$$$$$$$$$$$$$$$$+..+$$$$$$$$$$$$$$$$$$$$$$$$$$$$$$$$$$$$$$$$$$$$$$$#...$$$$$$$$$$$$$$$$#+@@@+ ",
".@@@@+$$$$$$$$$$$$$$$$+..+$$$$$$$$$$$$$$$$$$$$$$$$$$$$$$$$$$$$$$$$$$$$$$$#...$$$$$$$$$$$$$$$$#+@@@+ ",
"+@@@@+$$$$$$$$$$$$$$$$+..+$$$$$$$$$$$$$$$$$$$$$$$$$$$$$$$$$$$$$$$$$$$$$$$#...$$$$$$$$$$$$$$$$#+@@@@ ",
"@@@@@+$$$$$$$$$$$$$$$$+..+$$$$$$$$$$$$$$$$$$$$$$$$$$$$$$$$$$$$$$$$$$$$$$$#...$$$$$$$$$$$$$$$$#+@@@@+",
"@@@@@+$$$$$$$$$$$$$$$$+..+$$$$$$$$$$$$$$$$$$$$$$$$$$$$$$$$$$$$$$$$$$$$$$$#...$$$$$$$$$$$$$$$$#+@@@@+",
"@@@@@+$$$$$$$$$$$$$$$$+..+$$$$$$$$$$$$$$$$$$$$$$$$$$$$$$$$$$$$$$$$$$$$$$$#...$$$$$$$$$$$$$$$$#+@@@@.",
"@@@@@+$$$$$$$$$$$$$$$$+..+$$$$$$$$$$$$$$$$$$$$$$$$$$$$$$$$$$$$$$$$$$$$$$$#...$$$$$$$$$$$$$$$$#+@@@@.",
"@@@@@+$$$$$$$$$$$$$$$$+..+$$$$$$$$$$$$$$$$$$$$$$$$$$$$$$$$$$$$$$$$$$$$$$$#...$$$$$$$$$$$$$$$$#+@@@@.",
"@@@@@.################+..+###############################################+...################++@@@@+",
"+@@@@.++++++++++++++++....++++++++++++++++++++++++++++++++++++++++++++++++...++++++++++++++++.+@@@@ ",
"+@@@@.........................................................................................+@@@+ ",
".@@@@.........................................................................................+@@@. ",
" .@@@.##########################################+..+#########################################++@@++ ",
" +.@@.++++++++++++++++++++++++++++++++++++++++++...++++++++++++++++++++++++++++++++++++++++++++@++  ",
"  +...++++++++++++++++++++++++++++++++++++++++++...++++++++++++++++++++++++++++++++++++++++++....   ",
"    ............................................................................................    "};
